%
M48
M72
T01C0.0236
T02C0.0300
T03C0.0320
T04C0.0354
T05C0.0360
T06C0.0394
T07C0.0400
T08C0.0551
T09C0.0709
T10C0.0906
%
T01
X11174Y4481
X13142Y8536
X10780Y11567
X9599Y12945
X8024Y12158
X4874Y11567
X3300Y11587
X1725Y12945
X2709Y13733
X2906Y15504
X2119Y15504
X544Y15898
X544Y11174
X9008Y15898
X10189Y15898
X12355Y14126
X12945Y14126
X13536Y14126
X15898Y12552
X16292Y14323
X14323Y16292
X13142Y17079
X13930Y17473
X15898Y17473
X16685Y17473
X15504Y19441
X17473Y20622
X17867Y21410
X20229Y24559
X14717Y24559
X14717Y26528
X11567Y27315
X8615Y24756
X8615Y22000
X9205Y21410
X11370Y20819
X13142Y19835
X11567Y19048
X20622Y15111
X21016Y17473
X21804Y19048
X28890Y13930
X28890Y12355
X30465Y11685
X30071Y10386
X31646Y9993
X34796Y8811
X34796Y6843
X36567Y5268
X35583Y4678
X37158Y4481
X39717Y4481
X38142Y6843
X38339Y8024
X32040Y5268
X30268Y5465
X29087Y5465
X31646Y6843
X28496Y7630
X28496Y8536
X25741Y7630
X23969Y6449
X22000Y6449
X22000Y5268
X22591Y4481
X20622Y6449
X21804Y8536
X23378Y8536
X22197Y10780
X22788Y12552
X23575Y12355
X20819Y12552
X32433Y14323
X34796Y12945
X35189Y14323
X36764Y13536
X40504Y14914
X40504Y15898
X43063Y15898
X38930Y18851
X33221Y17473
X32630Y22197
X35189Y25347
X26922Y27315
T02
X20032Y25741
X18063Y25741
X16489Y23772
X15307Y23772
X15307Y21410
X16489Y21410
X11370Y22985
X9402Y22985
X9402Y25741
X11370Y25741
X17473Y14520
X17473Y13339
X23772Y7433
X23772Y5465
X27315Y5465
X27315Y7433
X32630Y6843
X33811Y6843
X35780Y6843
X36961Y6843
X38930Y6843
X40111Y6843
X37552Y16095
X37552Y18063
X34796Y18063
X34796Y16095
X31843Y18654
X29874Y18654
X29874Y21016
X31843Y21016
X11961Y6646
X11961Y5465
T03
X6843Y7861
X4481Y7861
X4481Y9761
X6843Y9761
X20229Y9386
X20229Y10386
X20229Y11386
X33615Y11174
X33615Y12174
X33615Y10174
X36764Y10174
X36764Y11174
X36764Y12174
X39914Y12174
X39914Y11174
X39914Y10174
T04
X6213Y22886
X6213Y23870
X3536Y23870
X3536Y22906
T05
X3981Y5859
X4981Y5859
X6343Y5859
X7343Y5859
X8615Y13430
X8615Y14430
X10780Y14430
X10780Y13430
X5874Y16685
X4874Y16685
X3874Y16685
X3874Y18654
X4874Y18654
X5874Y18654
X5874Y20622
X4874Y20622
X3874Y20622
T06
X2119Y9796
X2119Y7827
X9205Y7827
X9205Y9796
X19048Y21607
X19048Y23575
X21607Y23741
X25937Y23741
X27906Y23741
X32237Y23741
X30071Y27284
X23772Y27284
T07
X20032Y25741
X18063Y25741
X16489Y23772
X15307Y23772
X15307Y21410
X16489Y21410
X11370Y22985
X9402Y22985
X9402Y25741
X11370Y25741
X24347Y18835
X26347Y18835
X25347Y20835
X29874Y21016
X31843Y21016
X31843Y18654
X29874Y18654
X25347Y16111
X26347Y14111
X24347Y14111
X25347Y11386
X26347Y9386
X24347Y9386
X23772Y7433
X23772Y5465
X27315Y5465
X27315Y7433
X32630Y6843
X33811Y6843
X35780Y6843
X36961Y6843
X38930Y6843
X40111Y6843
X38827Y1725
X37827Y1725
X36827Y1725
X35827Y1725
X34827Y1725
X33827Y1725
X32827Y1725
X31827Y1725
X30827Y1725
X29827Y1725
X28827Y1725
X27827Y1725
X26827Y1725
X17685Y9386
X15685Y9386
X16685Y11386
X17473Y13339
X17473Y14520
X11961Y6646
X11961Y5465
X34796Y16095
X34796Y18063
X37552Y18063
X37552Y16095
T08
X37764Y20351
X35792Y21359
X34819Y22355
X34819Y20355
X37764Y22351
X39729Y21363
X40729Y22355
X40729Y20355
X39729Y26285
X35788Y26285
T09
X30071Y24331
X23772Y24331
T10
X7552Y25052
X4874Y25367
X2217Y25052
M30
