G75*
%MOIN*%
%OFA0B0*%
%FSLAX25Y25*%
%IPPOS*%
%LPD*%
%AMOC8*
5,1,8,0,0,1.08239X$1,22.5*
%
%ADD10C,0.06000*%
%ADD11C,0.05200*%
%ADD12R,0.09449X0.11024*%
%ADD13R,0.05906X0.05118*%
%ADD14R,0.05512X0.07087*%
%ADD15R,0.07087X0.05512*%
%ADD16R,0.06299X0.09449*%
%ADD17R,0.09449X0.06299*%
%ADD18R,0.05118X0.05906*%
%ADD19R,0.11024X0.09449*%
%ADD20C,0.08661*%
%ADD21C,0.11811*%
%ADD22C,0.09000*%
%ADD23R,0.01772X0.07087*%
%ADD24C,0.05200*%
%ADD25C,0.05937*%
%ADD26R,0.02600X0.08000*%
%ADD27C,0.13780*%
%ADD28OC8,0.05600*%
%ADD29C,0.05600*%
%ADD30C,0.03937*%
%ADD31C,0.01969*%
%ADD32R,0.03962X0.03962*%
%ADD33C,0.03962*%
%ADD34C,0.01600*%
D10*
X0158354Y0092862D02*
X0158354Y0098862D01*
X0178354Y0098862D02*
X0178354Y0092862D01*
X0171354Y0115862D02*
X0165354Y0115862D01*
X0244969Y0098862D02*
X0244969Y0092862D01*
X0264969Y0092862D02*
X0264969Y0098862D01*
X0257969Y0115862D02*
X0251969Y0115862D01*
X0244969Y0140106D02*
X0244969Y0146106D01*
X0251969Y0163106D02*
X0257969Y0163106D01*
X0264969Y0146106D02*
X0264969Y0140106D01*
X0264969Y0187350D02*
X0264969Y0193350D01*
X0257969Y0210350D02*
X0251969Y0210350D01*
X0244969Y0193350D02*
X0244969Y0187350D01*
X0269772Y0022248D02*
X0269772Y0016248D01*
X0279772Y0016248D02*
X0279772Y0022248D01*
X0289772Y0022248D02*
X0289772Y0016248D01*
X0299772Y0016248D02*
X0299772Y0022248D01*
X0309772Y0022248D02*
X0309772Y0016248D01*
X0319772Y0016248D02*
X0319772Y0022248D01*
X0329772Y0022248D02*
X0329772Y0016248D01*
X0339772Y0016248D02*
X0339772Y0022248D01*
X0349772Y0022248D02*
X0349772Y0016248D01*
X0359772Y0016248D02*
X0359772Y0022248D01*
X0369772Y0022248D02*
X0369772Y0016248D01*
X0379772Y0016248D02*
X0379772Y0022248D01*
X0389772Y0022248D02*
X0389772Y0016248D01*
D11*
X0398038Y0103736D02*
X0403238Y0103736D01*
X0403238Y0113736D02*
X0398038Y0113736D01*
X0398038Y0123736D02*
X0403238Y0123736D01*
X0371742Y0123736D02*
X0366542Y0123736D01*
X0366542Y0113736D02*
X0371742Y0113736D01*
X0371742Y0103736D02*
X0366542Y0103736D01*
X0340246Y0103736D02*
X0335046Y0103736D01*
X0335046Y0113736D02*
X0340246Y0113736D01*
X0340246Y0123736D02*
X0335046Y0123736D01*
X0206387Y0115862D02*
X0201187Y0115862D01*
X0201187Y0105862D02*
X0206387Y0105862D01*
X0206387Y0095862D02*
X0201187Y0095862D01*
D12*
X0297685Y0188539D03*
X0322488Y0188539D03*
X0322488Y0212161D03*
X0297685Y0212161D03*
X0204378Y0259406D03*
X0179575Y0259406D03*
X0117764Y0259406D03*
X0092961Y0259406D03*
X0092961Y0231846D03*
X0117764Y0231846D03*
D13*
X0081740Y0211965D03*
X0081740Y0204484D03*
X0081740Y0172594D03*
X0081740Y0165114D03*
X0093551Y0125350D03*
X0093551Y0117870D03*
X0121110Y0089917D03*
X0121110Y0082437D03*
X0093551Y0064327D03*
X0093551Y0056846D03*
X0022685Y0056846D03*
X0022685Y0064327D03*
X0022685Y0117870D03*
X0022685Y0125350D03*
X0018748Y0141492D03*
X0018748Y0148972D03*
X0018748Y0165114D03*
X0018748Y0172594D03*
X0018748Y0204484D03*
X0018748Y0211965D03*
X0156543Y0145035D03*
X0156543Y0137555D03*
X0195913Y0137555D03*
X0195913Y0145035D03*
X0231346Y0157240D03*
X0231346Y0164720D03*
X0207724Y0184799D03*
X0207724Y0192280D03*
X0191976Y0192280D03*
X0191976Y0184799D03*
X0231346Y0204484D03*
X0231346Y0211965D03*
X0298276Y0168657D03*
X0298276Y0161177D03*
X0317961Y0161177D03*
X0317961Y0168657D03*
X0317961Y0145035D03*
X0317961Y0137555D03*
X0298276Y0137555D03*
X0298276Y0145035D03*
X0298276Y0121413D03*
X0298276Y0113933D03*
X0298276Y0097791D03*
X0298276Y0090311D03*
X0298276Y0070232D03*
X0298276Y0062752D03*
X0231346Y0109996D03*
X0231346Y0117476D03*
X0215598Y0070232D03*
X0215598Y0062752D03*
X0341583Y0137555D03*
X0341583Y0145035D03*
X0361268Y0145035D03*
X0361268Y0137555D03*
X0380953Y0137555D03*
X0380953Y0145035D03*
X0400638Y0145035D03*
X0400638Y0137555D03*
X0400638Y0161177D03*
X0400638Y0168657D03*
X0400638Y0180862D03*
X0400638Y0188343D03*
X0380953Y0058421D03*
X0380953Y0050941D03*
D14*
X0390008Y0090114D03*
X0403394Y0090114D03*
X0371898Y0090114D03*
X0358512Y0090114D03*
X0340402Y0090114D03*
X0327016Y0090114D03*
D15*
X0121110Y0107043D03*
X0121110Y0120429D03*
D16*
X0154575Y0216098D03*
X0166386Y0216098D03*
X0166386Y0239720D03*
X0154575Y0239720D03*
X0327803Y0070429D03*
X0339614Y0070429D03*
X0359299Y0070429D03*
X0371110Y0070429D03*
X0390795Y0070429D03*
X0402606Y0070429D03*
D17*
X0176228Y0135390D03*
X0176228Y0147201D03*
X0121110Y0068461D03*
X0121110Y0056650D03*
D18*
X0164614Y0082240D03*
X0172094Y0082240D03*
X0200047Y0082240D03*
X0207528Y0082240D03*
X0140598Y0216098D03*
X0133118Y0216098D03*
X0133118Y0239720D03*
X0140598Y0239720D03*
X0140598Y0263343D03*
X0133118Y0263343D03*
X0156740Y0263343D03*
X0164220Y0263343D03*
D19*
X0349457Y0185193D03*
X0377016Y0185193D03*
X0377016Y0160390D03*
X0349457Y0160390D03*
X0274654Y0078894D03*
X0274654Y0054091D03*
X0239220Y0054091D03*
X0239220Y0078894D03*
D20*
X0217567Y0235075D02*
X0217567Y0243736D01*
X0239220Y0270508D02*
X0239220Y0279169D01*
X0260874Y0243736D02*
X0260874Y0235075D01*
X0280559Y0235075D02*
X0280559Y0243736D01*
X0302213Y0270508D02*
X0302213Y0279169D01*
X0323866Y0243736D02*
X0323866Y0235075D01*
D21*
X0302213Y0245311D03*
X0239220Y0245311D03*
D22*
X0349693Y0225547D03*
X0359417Y0215587D03*
X0349693Y0205547D03*
X0379142Y0205508D03*
X0398787Y0215626D03*
X0408787Y0225547D03*
X0408787Y0205547D03*
X0379142Y0225508D03*
X0398787Y0264847D03*
X0359378Y0264847D03*
D23*
X0176228Y0186965D03*
X0171228Y0186965D03*
X0166228Y0186965D03*
X0161228Y0186965D03*
X0156228Y0186965D03*
X0151228Y0186965D03*
X0146228Y0186965D03*
X0141228Y0186965D03*
X0136228Y0186965D03*
X0131228Y0186965D03*
X0126228Y0186965D03*
X0121228Y0186965D03*
X0121228Y0158618D03*
X0126228Y0158618D03*
X0131228Y0158618D03*
X0136228Y0158618D03*
X0141228Y0158618D03*
X0146228Y0158618D03*
X0151228Y0158618D03*
X0156228Y0158618D03*
X0161228Y0158618D03*
X0166228Y0158618D03*
X0171228Y0158618D03*
X0176228Y0158618D03*
D24*
X0069929Y0099614D03*
X0046307Y0099614D03*
X0046307Y0080614D03*
X0069929Y0080614D03*
D25*
X0093551Y0080272D03*
X0093551Y0099957D03*
X0022685Y0099957D03*
X0022685Y0080272D03*
X0191976Y0218067D03*
X0191976Y0237752D03*
D26*
X0073118Y0149458D03*
X0068118Y0149458D03*
X0063118Y0149458D03*
X0058118Y0149458D03*
X0053118Y0149458D03*
X0048118Y0149458D03*
X0043118Y0149458D03*
X0043118Y0125258D03*
X0048118Y0125258D03*
X0053118Y0125258D03*
X0058118Y0125258D03*
X0063118Y0125258D03*
X0068118Y0125258D03*
X0073118Y0125258D03*
D27*
X0077016Y0252516D03*
X0050244Y0255665D03*
X0023669Y0252516D03*
D28*
X0036858Y0240705D03*
X0036858Y0231059D03*
X0063630Y0230862D03*
X0063630Y0240705D03*
D29*
X0060244Y0211024D02*
X0060244Y0205424D01*
X0050244Y0205424D02*
X0050244Y0211024D01*
X0040244Y0211024D02*
X0040244Y0205424D01*
X0040244Y0191339D02*
X0040244Y0185739D01*
X0050244Y0185739D02*
X0050244Y0191339D01*
X0060244Y0191339D02*
X0060244Y0185739D01*
X0060244Y0171654D02*
X0060244Y0166054D01*
X0050244Y0166054D02*
X0050244Y0171654D01*
X0040244Y0171654D02*
X0040244Y0166054D01*
D30*
X0006937Y0113736D02*
X0006937Y0046807D01*
X0022685Y0046807D01*
X0093551Y0046807D01*
X0113236Y0046807D01*
X0121110Y0046807D01*
X0164417Y0046807D01*
X0215598Y0046807D01*
X0227409Y0046807D01*
X0239220Y0046807D01*
X0239220Y0054091D01*
X0239220Y0046807D02*
X0260874Y0046807D01*
X0260874Y0038933D01*
X0274654Y0038933D01*
X0274654Y0054091D01*
X0274654Y0038933D02*
X0290402Y0038933D01*
X0298276Y0038933D01*
X0329772Y0038933D01*
X0369142Y0038933D01*
X0398669Y0038933D01*
X0398669Y0046807D01*
X0432134Y0046807D01*
X0432134Y0160980D01*
X0432134Y0274839D01*
X0323866Y0274839D01*
X0323866Y0239406D01*
X0337724Y0225547D01*
X0349693Y0225547D01*
X0282528Y0239406D02*
X0282528Y0274839D01*
X0239220Y0274839D01*
X0239220Y0275154D01*
X0215598Y0275154D01*
X0215598Y0239720D01*
X0260874Y0239406D02*
X0280559Y0239406D01*
X0282528Y0239406D01*
X0282528Y0274839D02*
X0302213Y0274839D01*
X0323866Y0274839D01*
X0239220Y0274839D02*
X0006937Y0275154D01*
X0006937Y0240705D01*
X0006937Y0211965D01*
X0006937Y0188539D01*
X0006937Y0160980D01*
X0006937Y0141295D01*
X0006937Y0113736D01*
X0140598Y0216098D02*
X0140795Y0216098D01*
X0063630Y0240705D02*
X0036858Y0240705D01*
X0006937Y0240705D01*
X0164417Y0082240D02*
X0164614Y0082240D01*
X0239220Y0078894D02*
X0258906Y0078894D01*
X0258906Y0078303D01*
X0274654Y0078303D02*
X0276622Y0078303D01*
X0286465Y0078303D01*
X0298276Y0078303D01*
X0310087Y0078303D01*
X0310087Y0113736D01*
X0337646Y0113736D01*
X0369142Y0113736D01*
X0400638Y0113736D01*
X0369142Y0038933D02*
X0369142Y0019248D01*
X0369772Y0019248D01*
X0329772Y0019248D02*
X0329772Y0038933D01*
X0290402Y0038933D02*
X0290402Y0019248D01*
X0289772Y0019248D01*
D31*
X0298276Y0038933D02*
X0298276Y0062752D01*
X0298276Y0070232D02*
X0298276Y0078303D01*
X0298276Y0090311D01*
X0298276Y0097791D02*
X0298079Y0097988D01*
X0294339Y0097988D01*
X0286465Y0090114D01*
X0286465Y0087358D01*
X0274654Y0090114D02*
X0270717Y0086177D01*
X0266780Y0086177D01*
X0258906Y0078303D01*
X0274654Y0090114D02*
X0274654Y0090311D01*
X0298276Y0113933D01*
X0302409Y0113933D01*
X0306150Y0118854D01*
X0298276Y0121413D02*
X0294142Y0125547D01*
X0290402Y0125547D01*
X0294142Y0133421D02*
X0254969Y0133421D01*
X0245283Y0143106D01*
X0244969Y0143106D01*
X0231346Y0157240D02*
X0229378Y0155272D01*
X0229378Y0127516D01*
X0231346Y0117476D02*
X0231346Y0115862D01*
X0254969Y0115862D01*
X0231346Y0109996D02*
X0231150Y0109799D01*
X0223472Y0109799D01*
X0215598Y0105862D02*
X0215598Y0145035D01*
X0195913Y0145035D01*
X0195913Y0147201D01*
X0176228Y0147201D01*
X0176228Y0158618D01*
X0176228Y0168854D01*
X0156543Y0168854D01*
X0152606Y0172791D01*
X0148669Y0172791D01*
X0148669Y0176728D01*
X0146228Y0179169D01*
X0146228Y0186965D01*
X0141228Y0186965D02*
X0141228Y0177161D01*
X0140795Y0176728D01*
X0132921Y0172791D02*
X0148669Y0172791D01*
X0148669Y0168854D02*
X0151228Y0166295D01*
X0151228Y0158618D01*
X0146228Y0158618D02*
X0146228Y0163421D01*
X0144732Y0164917D01*
X0148669Y0168854D02*
X0113236Y0168854D01*
X0109299Y0172791D01*
X0097488Y0172791D01*
X0089614Y0180665D01*
X0058118Y0180665D01*
X0050244Y0188539D01*
X0040244Y0188539D02*
X0006937Y0188539D01*
X0018748Y0172594D02*
X0040244Y0172594D01*
X0040244Y0168854D01*
X0048118Y0157043D02*
X0048118Y0149458D01*
X0043118Y0149458D02*
X0030559Y0149458D01*
X0019234Y0149458D01*
X0018748Y0148972D01*
X0022685Y0157043D02*
X0018748Y0160980D01*
X0018748Y0165114D01*
X0030559Y0157043D02*
X0030559Y0149458D01*
X0018748Y0141492D02*
X0007134Y0141492D01*
X0006937Y0141295D01*
X0006937Y0141492D01*
X0018748Y0131453D02*
X0022685Y0127516D01*
X0022685Y0125350D01*
X0014811Y0119642D01*
X0014811Y0107831D01*
X0022685Y0099957D01*
X0034496Y0101925D02*
X0034496Y0117870D01*
X0022685Y0117870D01*
X0022685Y0125350D02*
X0022685Y0125547D01*
X0030559Y0137358D02*
X0028591Y0139327D01*
X0030559Y0137358D02*
X0052213Y0137358D01*
X0058118Y0131453D01*
X0058118Y0125258D01*
X0053118Y0125258D02*
X0053118Y0120547D01*
X0050244Y0117673D01*
X0052213Y0124353D02*
X0053118Y0125258D01*
X0048118Y0125258D01*
X0048276Y0125101D01*
X0043118Y0125258D02*
X0043118Y0102803D01*
X0046307Y0099614D01*
X0046307Y0090114D02*
X0034496Y0101925D01*
X0046307Y0090114D02*
X0046307Y0080614D01*
X0030020Y0064327D01*
X0022685Y0064327D01*
X0022685Y0056846D02*
X0020520Y0056846D01*
X0014811Y0062555D01*
X0014811Y0072398D01*
X0022685Y0080272D01*
X0022685Y0056846D02*
X0022685Y0046807D01*
X0069929Y0080614D02*
X0069929Y0090114D01*
X0081740Y0101925D01*
X0081740Y0117870D01*
X0069732Y0117870D01*
X0067961Y0119642D01*
X0067961Y0125101D01*
X0068118Y0125258D01*
X0068118Y0149458D01*
X0073118Y0149458D02*
X0087935Y0149458D01*
X0089614Y0151138D01*
X0087646Y0160980D02*
X0085874Y0160980D01*
X0081740Y0165114D01*
X0081740Y0172594D02*
X0060244Y0172594D01*
X0060244Y0168854D01*
X0058118Y0157043D02*
X0048118Y0157043D01*
X0058118Y0157043D02*
X0058118Y0149458D01*
X0058118Y0157043D02*
X0121110Y0157043D01*
X0121110Y0120429D01*
X0118354Y0117673D01*
X0109299Y0117673D01*
X0101425Y0119642D02*
X0093551Y0125350D01*
X0093551Y0127516D01*
X0097488Y0131453D01*
X0093748Y0125547D02*
X0093551Y0125350D01*
X0093551Y0117870D02*
X0081740Y0117870D01*
X0081740Y0123579D02*
X0080061Y0125258D01*
X0073118Y0125258D01*
X0063118Y0125258D02*
X0063118Y0106425D01*
X0069929Y0099614D01*
X0093551Y0099957D02*
X0101425Y0107831D01*
X0101425Y0119642D01*
X0121110Y0120429D02*
X0154417Y0120429D01*
X0154417Y0095862D01*
X0158354Y0095862D01*
X0164614Y0095862D01*
X0164614Y0082240D01*
X0164417Y0082240D02*
X0164417Y0046807D01*
X0121110Y0046807D02*
X0121110Y0056650D01*
X0121110Y0068461D02*
X0121110Y0082437D01*
X0129181Y0082437D01*
X0132921Y0087358D01*
X0121110Y0089917D02*
X0121110Y0107043D01*
X0154417Y0120429D02*
X0154417Y0135390D01*
X0156543Y0135390D01*
X0156543Y0137555D01*
X0156543Y0135390D02*
X0176228Y0135390D01*
X0195913Y0135390D01*
X0195913Y0137555D01*
X0209693Y0127516D02*
X0160480Y0127516D01*
X0156543Y0145035D02*
X0161228Y0149720D01*
X0161228Y0158618D01*
X0166228Y0158618D02*
X0166228Y0147043D01*
X0164417Y0145232D01*
X0136858Y0143264D02*
X0136228Y0143894D01*
X0136228Y0158618D01*
X0131228Y0158618D02*
X0131228Y0143539D01*
X0130953Y0143264D01*
X0126228Y0144445D02*
X0126228Y0158618D01*
X0121228Y0158618D02*
X0121110Y0158618D01*
X0121110Y0157043D01*
X0126228Y0144445D02*
X0125047Y0143264D01*
X0160480Y0176728D02*
X0161228Y0177476D01*
X0161228Y0186965D01*
X0156228Y0186965D02*
X0156228Y0196098D01*
X0156543Y0196413D01*
X0160480Y0200350D02*
X0168354Y0200350D01*
X0171228Y0197476D01*
X0171228Y0186965D01*
X0176228Y0186965D02*
X0176228Y0184602D01*
X0180165Y0180665D01*
X0187843Y0180665D01*
X0191976Y0184799D01*
X0207724Y0184799D01*
X0211661Y0176728D02*
X0223472Y0176728D01*
X0231346Y0184602D01*
X0231346Y0204484D01*
X0231346Y0211965D02*
X0253354Y0211965D01*
X0254969Y0210350D01*
X0247094Y0223972D02*
X0327803Y0223972D01*
X0325913Y0215587D02*
X0359417Y0215587D01*
X0349693Y0205547D02*
X0339496Y0205547D01*
X0322488Y0188539D01*
X0333709Y0176728D02*
X0333709Y0141295D01*
X0337449Y0137555D01*
X0341583Y0137555D01*
X0361268Y0137555D01*
X0368945Y0137555D01*
X0369142Y0137358D01*
X0361268Y0145035D02*
X0361071Y0145232D01*
X0353394Y0145232D01*
X0361268Y0145035D02*
X0380953Y0145035D01*
X0380953Y0137555D02*
X0400638Y0137555D01*
X0404772Y0137555D01*
X0406543Y0139327D01*
X0406543Y0151138D01*
X0400638Y0145035D02*
X0392370Y0145035D01*
X0377016Y0160390D01*
X0390795Y0178500D02*
X0400638Y0168657D01*
X0400638Y0161177D02*
X0400835Y0160980D01*
X0406543Y0160980D01*
X0412449Y0172791D02*
X0404378Y0180862D01*
X0400638Y0180862D01*
X0400835Y0180665D01*
X0400638Y0188343D02*
X0406740Y0194445D01*
X0414417Y0194445D01*
X0418354Y0198382D01*
X0418354Y0220035D01*
X0412843Y0225547D01*
X0408787Y0225547D01*
X0408787Y0205547D02*
X0397370Y0205547D01*
X0377016Y0185193D01*
X0390795Y0190508D02*
X0390795Y0178500D01*
X0412449Y0172791D02*
X0412449Y0125547D01*
X0400638Y0113736D01*
X0400638Y0103736D02*
X0400638Y0092870D01*
X0403394Y0090114D01*
X0403394Y0071217D01*
X0402606Y0070429D01*
X0390795Y0070429D02*
X0380953Y0070429D01*
X0371898Y0071217D02*
X0371898Y0090114D01*
X0369142Y0092870D01*
X0369142Y0103736D01*
X0358512Y0090114D02*
X0349457Y0090114D01*
X0340402Y0090114D02*
X0340402Y0071217D01*
X0339614Y0070429D01*
X0349457Y0070429D02*
X0359299Y0070429D01*
X0371110Y0070429D02*
X0371898Y0071217D01*
X0381150Y0058618D02*
X0420323Y0058618D01*
X0424260Y0062555D01*
X0424260Y0255469D01*
X0353394Y0255469D01*
X0325913Y0215587D02*
X0322488Y0212161D01*
X0297685Y0212161D02*
X0294339Y0212161D01*
X0286465Y0204287D01*
X0286465Y0180469D01*
X0298276Y0168657D01*
X0298276Y0161177D02*
X0298079Y0160980D01*
X0294339Y0160980D01*
X0286661Y0168657D01*
X0286661Y0172791D01*
X0219535Y0172791D01*
X0207724Y0160980D01*
X0207724Y0153106D01*
X0231346Y0163106D02*
X0231346Y0164720D01*
X0231346Y0163106D02*
X0254969Y0163106D01*
X0290402Y0141295D02*
X0294142Y0145035D01*
X0298276Y0145035D01*
X0298276Y0137555D02*
X0294142Y0133421D01*
X0298276Y0137555D02*
X0315992Y0137555D01*
X0315992Y0135390D01*
X0319929Y0131453D01*
X0349457Y0131453D01*
X0341583Y0145035D02*
X0341583Y0152516D01*
X0349457Y0160390D01*
X0325835Y0145232D02*
X0325638Y0145035D01*
X0317961Y0145035D01*
X0317961Y0161177D01*
X0317961Y0168657D02*
X0317567Y0168657D01*
X0297685Y0188539D01*
X0349457Y0185193D02*
X0369772Y0205508D01*
X0379142Y0205508D01*
X0400638Y0137555D02*
X0400638Y0123736D01*
X0390008Y0090114D02*
X0384890Y0084996D01*
X0384890Y0082240D01*
X0381150Y0058618D02*
X0380953Y0058421D01*
X0380953Y0050941D02*
X0376819Y0046807D01*
X0373079Y0046807D01*
X0365205Y0054681D02*
X0321898Y0054681D01*
X0317961Y0070429D02*
X0327803Y0070429D01*
X0327016Y0090114D02*
X0325835Y0091295D01*
X0325835Y0097988D01*
X0321898Y0101925D01*
X0317961Y0101925D01*
X0302213Y0105862D02*
X0298276Y0101925D01*
X0298276Y0097791D01*
X0337646Y0092870D02*
X0337646Y0103736D01*
X0337646Y0092870D02*
X0340402Y0090114D01*
X0317961Y0137555D02*
X0315992Y0137555D01*
X0235283Y0087358D02*
X0219535Y0087358D01*
X0215598Y0078894D02*
X0215598Y0105862D01*
X0203787Y0105862D01*
X0203787Y0115862D02*
X0198354Y0115862D01*
X0178354Y0095862D01*
X0178354Y0088500D01*
X0172094Y0082240D01*
X0200047Y0082240D02*
X0200047Y0092122D01*
X0203787Y0095862D01*
X0207528Y0082240D02*
X0207724Y0082043D01*
X0207724Y0066492D01*
X0215598Y0062752D02*
X0215598Y0046807D01*
X0221504Y0066492D02*
X0239220Y0066492D01*
X0239220Y0078894D02*
X0215598Y0078894D01*
X0215598Y0070232D01*
X0101425Y0072398D02*
X0101425Y0060587D01*
X0097685Y0056846D01*
X0093551Y0056846D01*
X0093551Y0046807D01*
X0093551Y0064327D02*
X0086217Y0064327D01*
X0069929Y0080614D01*
X0093551Y0080272D02*
X0101425Y0072398D01*
X0168354Y0176728D02*
X0166228Y0178854D01*
X0166228Y0186965D01*
X0151228Y0186965D02*
X0151228Y0193854D01*
X0148669Y0196413D01*
X0054181Y0196413D01*
X0050244Y0200350D01*
X0050244Y0208224D01*
X0040244Y0208224D02*
X0036504Y0204484D01*
X0018748Y0204484D01*
X0018748Y0211965D02*
X0006937Y0211965D01*
X0060244Y0208224D02*
X0063984Y0204484D01*
X0081740Y0204484D01*
X0081740Y0211965D02*
X0113433Y0211965D01*
X0115205Y0210193D01*
X0132921Y0215902D02*
X0132921Y0200350D01*
X0121228Y0188421D02*
X0121228Y0186965D01*
X0121228Y0188421D02*
X0117173Y0192476D01*
X0132921Y0215902D02*
X0133118Y0216098D01*
X0132921Y0216295D01*
X0132921Y0227909D01*
X0136858Y0231846D01*
X0144732Y0231846D01*
X0152606Y0239720D01*
X0154575Y0239720D01*
X0148669Y0247594D02*
X0148472Y0247594D01*
X0140598Y0239720D01*
X0133118Y0239720D02*
X0125244Y0231846D01*
X0117764Y0231846D01*
X0133118Y0216098D02*
X0093551Y0216098D01*
X0087646Y0222004D02*
X0087646Y0226531D01*
X0092961Y0231846D01*
X0081740Y0240705D02*
X0081740Y0211965D01*
X0081740Y0240705D02*
X0063630Y0240705D01*
X0087646Y0249563D02*
X0087646Y0254091D01*
X0092961Y0259406D01*
X0117764Y0259406D02*
X0129181Y0259406D01*
X0133118Y0263343D01*
X0140598Y0263343D02*
X0152409Y0251531D01*
X0172291Y0251531D01*
X0180165Y0243657D01*
X0180165Y0216098D01*
X0182134Y0208224D02*
X0176228Y0208224D01*
X0182134Y0208224D02*
X0191976Y0218067D01*
X0191976Y0204287D02*
X0166386Y0204287D01*
X0166386Y0216098D01*
X0166386Y0227909D01*
X0140795Y0227909D01*
X0140795Y0216098D01*
X0154575Y0216098D02*
X0156543Y0214130D01*
X0156543Y0204287D01*
X0160480Y0200350D01*
X0191976Y0204287D02*
X0191976Y0192476D01*
X0219535Y0192476D01*
X0247094Y0223972D02*
X0239220Y0231846D01*
X0239220Y0245311D01*
X0217567Y0239406D02*
X0215598Y0239406D01*
X0191976Y0239406D01*
X0191976Y0237752D01*
X0203787Y0247594D02*
X0204378Y0248185D01*
X0204378Y0259406D01*
X0179575Y0259406D02*
X0168157Y0259406D01*
X0164220Y0263343D01*
X0156740Y0263343D02*
X0152803Y0267280D01*
X0148669Y0267280D01*
X0166386Y0239720D02*
X0166386Y0227909D01*
D32*
X0117173Y0275154D03*
X0270717Y0275154D03*
X0432134Y0160980D03*
X0286465Y0078303D03*
X0258906Y0078303D03*
X0227409Y0046807D03*
X0113236Y0046807D03*
X0006937Y0113736D03*
X0006937Y0160980D03*
X0398669Y0046807D03*
D33*
X0373079Y0046807D03*
X0365205Y0054681D03*
X0380953Y0070429D03*
X0384890Y0082240D03*
X0349457Y0090114D03*
X0349457Y0070429D03*
X0321898Y0054681D03*
X0317961Y0070429D03*
X0286465Y0087358D03*
X0302213Y0105862D03*
X0317961Y0101925D03*
X0306150Y0118854D03*
X0290402Y0125547D03*
X0290402Y0141295D03*
X0325835Y0145232D03*
X0349457Y0131453D03*
X0353394Y0145232D03*
X0369142Y0137358D03*
X0406543Y0151138D03*
X0406543Y0160980D03*
X0390795Y0190508D03*
X0333709Y0176728D03*
X0327803Y0223972D03*
X0353394Y0255469D03*
X0219535Y0192476D03*
X0211661Y0176728D03*
X0207724Y0153106D03*
X0209693Y0127516D03*
X0229378Y0127516D03*
X0237252Y0125547D03*
X0223472Y0109799D03*
X0219535Y0087358D03*
X0235283Y0087358D03*
X0239220Y0066492D03*
X0221504Y0066492D03*
X0207724Y0066492D03*
X0132921Y0087358D03*
X0109299Y0117673D03*
X0097488Y0131453D03*
X0081740Y0123579D03*
X0050244Y0117673D03*
X0034496Y0117870D03*
X0018748Y0131453D03*
X0028591Y0139327D03*
X0030559Y0157043D03*
X0022685Y0157043D03*
X0087646Y0160980D03*
X0089614Y0151138D03*
X0125047Y0143264D03*
X0130953Y0143264D03*
X0136858Y0143264D03*
X0160480Y0127516D03*
X0164417Y0145232D03*
X0144732Y0164917D03*
X0140795Y0176728D03*
X0132921Y0172791D03*
X0160480Y0176728D03*
X0168354Y0176728D03*
X0156543Y0196413D03*
X0176228Y0208224D03*
X0180165Y0216098D03*
X0203787Y0247594D03*
X0148669Y0247594D03*
X0148669Y0267280D03*
X0087646Y0249563D03*
X0087646Y0222004D03*
X0093551Y0216098D03*
X0115205Y0210193D03*
X0132921Y0200350D03*
X0117173Y0192476D03*
D34*
X0191976Y0192476D02*
X0191976Y0192280D01*
X0207724Y0192280D02*
X0207724Y0192476D01*
X0219535Y0192476D01*
X0215598Y0239406D02*
X0215598Y0239720D01*
X0237252Y0125547D02*
X0290402Y0125547D01*
X0276622Y0078894D02*
X0274654Y0078894D01*
X0276622Y0078894D02*
X0276622Y0078303D01*
M02*
