G75*
%MOIN*%
%OFA0B0*%
%FSLAX25Y25*%
%IPPOS*%
%LPD*%
%AMOC8*
5,1,8,0,0,1.08239X$1,22.5*
%
%ADD10C,0.01000*%
%ADD11C,0.00000*%
D10*
X0001500Y0040870D02*
X0255437Y0040870D01*
X0255437Y0001500D01*
X0401106Y0001500D01*
X0401106Y0040870D01*
X0434571Y0040870D01*
X0434571Y0277091D01*
X0001500Y0277091D01*
X0001500Y0040870D01*
D11*
X0117610Y0054650D02*
X0117612Y0054739D01*
X0117618Y0054828D01*
X0117628Y0054917D01*
X0117642Y0055005D01*
X0117659Y0055092D01*
X0117681Y0055178D01*
X0117707Y0055264D01*
X0117736Y0055348D01*
X0117769Y0055431D01*
X0117805Y0055512D01*
X0117846Y0055592D01*
X0117889Y0055669D01*
X0117936Y0055745D01*
X0117987Y0055818D01*
X0118040Y0055889D01*
X0118097Y0055958D01*
X0118157Y0056024D01*
X0118220Y0056088D01*
X0118285Y0056148D01*
X0118353Y0056206D01*
X0118424Y0056260D01*
X0118497Y0056311D01*
X0118572Y0056359D01*
X0118649Y0056404D01*
X0118728Y0056445D01*
X0118809Y0056482D01*
X0118891Y0056516D01*
X0118975Y0056547D01*
X0119060Y0056573D01*
X0119146Y0056596D01*
X0119233Y0056614D01*
X0119321Y0056629D01*
X0119410Y0056640D01*
X0119499Y0056647D01*
X0119588Y0056650D01*
X0119677Y0056649D01*
X0119766Y0056644D01*
X0119854Y0056635D01*
X0119943Y0056622D01*
X0120030Y0056605D01*
X0120117Y0056585D01*
X0120203Y0056560D01*
X0120287Y0056532D01*
X0120370Y0056500D01*
X0120452Y0056464D01*
X0120532Y0056425D01*
X0120610Y0056382D01*
X0120686Y0056336D01*
X0120760Y0056286D01*
X0120832Y0056233D01*
X0120901Y0056177D01*
X0120968Y0056118D01*
X0121032Y0056056D01*
X0121093Y0055992D01*
X0121152Y0055924D01*
X0121207Y0055854D01*
X0121259Y0055782D01*
X0121308Y0055707D01*
X0121353Y0055631D01*
X0121395Y0055552D01*
X0121433Y0055472D01*
X0121468Y0055390D01*
X0121499Y0055306D01*
X0121527Y0055221D01*
X0121550Y0055135D01*
X0121570Y0055048D01*
X0121586Y0054961D01*
X0121598Y0054872D01*
X0121606Y0054784D01*
X0121610Y0054695D01*
X0121610Y0054605D01*
X0121606Y0054516D01*
X0121598Y0054428D01*
X0121586Y0054339D01*
X0121570Y0054252D01*
X0121550Y0054165D01*
X0121527Y0054079D01*
X0121499Y0053994D01*
X0121468Y0053910D01*
X0121433Y0053828D01*
X0121395Y0053748D01*
X0121353Y0053669D01*
X0121308Y0053593D01*
X0121259Y0053518D01*
X0121207Y0053446D01*
X0121152Y0053376D01*
X0121093Y0053308D01*
X0121032Y0053244D01*
X0120968Y0053182D01*
X0120901Y0053123D01*
X0120832Y0053067D01*
X0120760Y0053014D01*
X0120686Y0052964D01*
X0120610Y0052918D01*
X0120532Y0052875D01*
X0120452Y0052836D01*
X0120370Y0052800D01*
X0120287Y0052768D01*
X0120203Y0052740D01*
X0120117Y0052715D01*
X0120030Y0052695D01*
X0119943Y0052678D01*
X0119854Y0052665D01*
X0119766Y0052656D01*
X0119677Y0052651D01*
X0119588Y0052650D01*
X0119499Y0052653D01*
X0119410Y0052660D01*
X0119321Y0052671D01*
X0119233Y0052686D01*
X0119146Y0052704D01*
X0119060Y0052727D01*
X0118975Y0052753D01*
X0118891Y0052784D01*
X0118809Y0052818D01*
X0118728Y0052855D01*
X0118649Y0052896D01*
X0118572Y0052941D01*
X0118497Y0052989D01*
X0118424Y0053040D01*
X0118353Y0053094D01*
X0118285Y0053152D01*
X0118220Y0053212D01*
X0118157Y0053276D01*
X0118097Y0053342D01*
X0118040Y0053411D01*
X0117987Y0053482D01*
X0117936Y0053555D01*
X0117889Y0053631D01*
X0117846Y0053708D01*
X0117805Y0053788D01*
X0117769Y0053869D01*
X0117736Y0053952D01*
X0117707Y0054036D01*
X0117681Y0054122D01*
X0117659Y0054208D01*
X0117642Y0054295D01*
X0117628Y0054383D01*
X0117618Y0054472D01*
X0117612Y0054561D01*
X0117610Y0054650D01*
X0117610Y0066461D02*
X0117612Y0066550D01*
X0117618Y0066639D01*
X0117628Y0066728D01*
X0117642Y0066816D01*
X0117659Y0066903D01*
X0117681Y0066989D01*
X0117707Y0067075D01*
X0117736Y0067159D01*
X0117769Y0067242D01*
X0117805Y0067323D01*
X0117846Y0067403D01*
X0117889Y0067480D01*
X0117936Y0067556D01*
X0117987Y0067629D01*
X0118040Y0067700D01*
X0118097Y0067769D01*
X0118157Y0067835D01*
X0118220Y0067899D01*
X0118285Y0067959D01*
X0118353Y0068017D01*
X0118424Y0068071D01*
X0118497Y0068122D01*
X0118572Y0068170D01*
X0118649Y0068215D01*
X0118728Y0068256D01*
X0118809Y0068293D01*
X0118891Y0068327D01*
X0118975Y0068358D01*
X0119060Y0068384D01*
X0119146Y0068407D01*
X0119233Y0068425D01*
X0119321Y0068440D01*
X0119410Y0068451D01*
X0119499Y0068458D01*
X0119588Y0068461D01*
X0119677Y0068460D01*
X0119766Y0068455D01*
X0119854Y0068446D01*
X0119943Y0068433D01*
X0120030Y0068416D01*
X0120117Y0068396D01*
X0120203Y0068371D01*
X0120287Y0068343D01*
X0120370Y0068311D01*
X0120452Y0068275D01*
X0120532Y0068236D01*
X0120610Y0068193D01*
X0120686Y0068147D01*
X0120760Y0068097D01*
X0120832Y0068044D01*
X0120901Y0067988D01*
X0120968Y0067929D01*
X0121032Y0067867D01*
X0121093Y0067803D01*
X0121152Y0067735D01*
X0121207Y0067665D01*
X0121259Y0067593D01*
X0121308Y0067518D01*
X0121353Y0067442D01*
X0121395Y0067363D01*
X0121433Y0067283D01*
X0121468Y0067201D01*
X0121499Y0067117D01*
X0121527Y0067032D01*
X0121550Y0066946D01*
X0121570Y0066859D01*
X0121586Y0066772D01*
X0121598Y0066683D01*
X0121606Y0066595D01*
X0121610Y0066506D01*
X0121610Y0066416D01*
X0121606Y0066327D01*
X0121598Y0066239D01*
X0121586Y0066150D01*
X0121570Y0066063D01*
X0121550Y0065976D01*
X0121527Y0065890D01*
X0121499Y0065805D01*
X0121468Y0065721D01*
X0121433Y0065639D01*
X0121395Y0065559D01*
X0121353Y0065480D01*
X0121308Y0065404D01*
X0121259Y0065329D01*
X0121207Y0065257D01*
X0121152Y0065187D01*
X0121093Y0065119D01*
X0121032Y0065055D01*
X0120968Y0064993D01*
X0120901Y0064934D01*
X0120832Y0064878D01*
X0120760Y0064825D01*
X0120686Y0064775D01*
X0120610Y0064729D01*
X0120532Y0064686D01*
X0120452Y0064647D01*
X0120370Y0064611D01*
X0120287Y0064579D01*
X0120203Y0064551D01*
X0120117Y0064526D01*
X0120030Y0064506D01*
X0119943Y0064489D01*
X0119854Y0064476D01*
X0119766Y0064467D01*
X0119677Y0064462D01*
X0119588Y0064461D01*
X0119499Y0064464D01*
X0119410Y0064471D01*
X0119321Y0064482D01*
X0119233Y0064497D01*
X0119146Y0064515D01*
X0119060Y0064538D01*
X0118975Y0064564D01*
X0118891Y0064595D01*
X0118809Y0064629D01*
X0118728Y0064666D01*
X0118649Y0064707D01*
X0118572Y0064752D01*
X0118497Y0064800D01*
X0118424Y0064851D01*
X0118353Y0064905D01*
X0118285Y0064963D01*
X0118220Y0065023D01*
X0118157Y0065087D01*
X0118097Y0065153D01*
X0118040Y0065222D01*
X0117987Y0065293D01*
X0117936Y0065366D01*
X0117889Y0065442D01*
X0117846Y0065519D01*
X0117805Y0065599D01*
X0117769Y0065680D01*
X0117736Y0065763D01*
X0117707Y0065847D01*
X0117681Y0065933D01*
X0117659Y0066019D01*
X0117642Y0066106D01*
X0117628Y0066194D01*
X0117618Y0066283D01*
X0117612Y0066372D01*
X0117610Y0066461D01*
X0172728Y0133390D02*
X0172730Y0133479D01*
X0172736Y0133568D01*
X0172746Y0133657D01*
X0172760Y0133745D01*
X0172777Y0133832D01*
X0172799Y0133918D01*
X0172825Y0134004D01*
X0172854Y0134088D01*
X0172887Y0134171D01*
X0172923Y0134252D01*
X0172964Y0134332D01*
X0173007Y0134409D01*
X0173054Y0134485D01*
X0173105Y0134558D01*
X0173158Y0134629D01*
X0173215Y0134698D01*
X0173275Y0134764D01*
X0173338Y0134828D01*
X0173403Y0134888D01*
X0173471Y0134946D01*
X0173542Y0135000D01*
X0173615Y0135051D01*
X0173690Y0135099D01*
X0173767Y0135144D01*
X0173846Y0135185D01*
X0173927Y0135222D01*
X0174009Y0135256D01*
X0174093Y0135287D01*
X0174178Y0135313D01*
X0174264Y0135336D01*
X0174351Y0135354D01*
X0174439Y0135369D01*
X0174528Y0135380D01*
X0174617Y0135387D01*
X0174706Y0135390D01*
X0174795Y0135389D01*
X0174884Y0135384D01*
X0174972Y0135375D01*
X0175061Y0135362D01*
X0175148Y0135345D01*
X0175235Y0135325D01*
X0175321Y0135300D01*
X0175405Y0135272D01*
X0175488Y0135240D01*
X0175570Y0135204D01*
X0175650Y0135165D01*
X0175728Y0135122D01*
X0175804Y0135076D01*
X0175878Y0135026D01*
X0175950Y0134973D01*
X0176019Y0134917D01*
X0176086Y0134858D01*
X0176150Y0134796D01*
X0176211Y0134732D01*
X0176270Y0134664D01*
X0176325Y0134594D01*
X0176377Y0134522D01*
X0176426Y0134447D01*
X0176471Y0134371D01*
X0176513Y0134292D01*
X0176551Y0134212D01*
X0176586Y0134130D01*
X0176617Y0134046D01*
X0176645Y0133961D01*
X0176668Y0133875D01*
X0176688Y0133788D01*
X0176704Y0133701D01*
X0176716Y0133612D01*
X0176724Y0133524D01*
X0176728Y0133435D01*
X0176728Y0133345D01*
X0176724Y0133256D01*
X0176716Y0133168D01*
X0176704Y0133079D01*
X0176688Y0132992D01*
X0176668Y0132905D01*
X0176645Y0132819D01*
X0176617Y0132734D01*
X0176586Y0132650D01*
X0176551Y0132568D01*
X0176513Y0132488D01*
X0176471Y0132409D01*
X0176426Y0132333D01*
X0176377Y0132258D01*
X0176325Y0132186D01*
X0176270Y0132116D01*
X0176211Y0132048D01*
X0176150Y0131984D01*
X0176086Y0131922D01*
X0176019Y0131863D01*
X0175950Y0131807D01*
X0175878Y0131754D01*
X0175804Y0131704D01*
X0175728Y0131658D01*
X0175650Y0131615D01*
X0175570Y0131576D01*
X0175488Y0131540D01*
X0175405Y0131508D01*
X0175321Y0131480D01*
X0175235Y0131455D01*
X0175148Y0131435D01*
X0175061Y0131418D01*
X0174972Y0131405D01*
X0174884Y0131396D01*
X0174795Y0131391D01*
X0174706Y0131390D01*
X0174617Y0131393D01*
X0174528Y0131400D01*
X0174439Y0131411D01*
X0174351Y0131426D01*
X0174264Y0131444D01*
X0174178Y0131467D01*
X0174093Y0131493D01*
X0174009Y0131524D01*
X0173927Y0131558D01*
X0173846Y0131595D01*
X0173767Y0131636D01*
X0173690Y0131681D01*
X0173615Y0131729D01*
X0173542Y0131780D01*
X0173471Y0131834D01*
X0173403Y0131892D01*
X0173338Y0131952D01*
X0173275Y0132016D01*
X0173215Y0132082D01*
X0173158Y0132151D01*
X0173105Y0132222D01*
X0173054Y0132295D01*
X0173007Y0132371D01*
X0172964Y0132448D01*
X0172923Y0132528D01*
X0172887Y0132609D01*
X0172854Y0132692D01*
X0172825Y0132776D01*
X0172799Y0132862D01*
X0172777Y0132948D01*
X0172760Y0133035D01*
X0172746Y0133123D01*
X0172736Y0133212D01*
X0172730Y0133301D01*
X0172728Y0133390D01*
X0172728Y0145201D02*
X0172730Y0145290D01*
X0172736Y0145379D01*
X0172746Y0145468D01*
X0172760Y0145556D01*
X0172777Y0145643D01*
X0172799Y0145729D01*
X0172825Y0145815D01*
X0172854Y0145899D01*
X0172887Y0145982D01*
X0172923Y0146063D01*
X0172964Y0146143D01*
X0173007Y0146220D01*
X0173054Y0146296D01*
X0173105Y0146369D01*
X0173158Y0146440D01*
X0173215Y0146509D01*
X0173275Y0146575D01*
X0173338Y0146639D01*
X0173403Y0146699D01*
X0173471Y0146757D01*
X0173542Y0146811D01*
X0173615Y0146862D01*
X0173690Y0146910D01*
X0173767Y0146955D01*
X0173846Y0146996D01*
X0173927Y0147033D01*
X0174009Y0147067D01*
X0174093Y0147098D01*
X0174178Y0147124D01*
X0174264Y0147147D01*
X0174351Y0147165D01*
X0174439Y0147180D01*
X0174528Y0147191D01*
X0174617Y0147198D01*
X0174706Y0147201D01*
X0174795Y0147200D01*
X0174884Y0147195D01*
X0174972Y0147186D01*
X0175061Y0147173D01*
X0175148Y0147156D01*
X0175235Y0147136D01*
X0175321Y0147111D01*
X0175405Y0147083D01*
X0175488Y0147051D01*
X0175570Y0147015D01*
X0175650Y0146976D01*
X0175728Y0146933D01*
X0175804Y0146887D01*
X0175878Y0146837D01*
X0175950Y0146784D01*
X0176019Y0146728D01*
X0176086Y0146669D01*
X0176150Y0146607D01*
X0176211Y0146543D01*
X0176270Y0146475D01*
X0176325Y0146405D01*
X0176377Y0146333D01*
X0176426Y0146258D01*
X0176471Y0146182D01*
X0176513Y0146103D01*
X0176551Y0146023D01*
X0176586Y0145941D01*
X0176617Y0145857D01*
X0176645Y0145772D01*
X0176668Y0145686D01*
X0176688Y0145599D01*
X0176704Y0145512D01*
X0176716Y0145423D01*
X0176724Y0145335D01*
X0176728Y0145246D01*
X0176728Y0145156D01*
X0176724Y0145067D01*
X0176716Y0144979D01*
X0176704Y0144890D01*
X0176688Y0144803D01*
X0176668Y0144716D01*
X0176645Y0144630D01*
X0176617Y0144545D01*
X0176586Y0144461D01*
X0176551Y0144379D01*
X0176513Y0144299D01*
X0176471Y0144220D01*
X0176426Y0144144D01*
X0176377Y0144069D01*
X0176325Y0143997D01*
X0176270Y0143927D01*
X0176211Y0143859D01*
X0176150Y0143795D01*
X0176086Y0143733D01*
X0176019Y0143674D01*
X0175950Y0143618D01*
X0175878Y0143565D01*
X0175804Y0143515D01*
X0175728Y0143469D01*
X0175650Y0143426D01*
X0175570Y0143387D01*
X0175488Y0143351D01*
X0175405Y0143319D01*
X0175321Y0143291D01*
X0175235Y0143266D01*
X0175148Y0143246D01*
X0175061Y0143229D01*
X0174972Y0143216D01*
X0174884Y0143207D01*
X0174795Y0143202D01*
X0174706Y0143201D01*
X0174617Y0143204D01*
X0174528Y0143211D01*
X0174439Y0143222D01*
X0174351Y0143237D01*
X0174264Y0143255D01*
X0174178Y0143278D01*
X0174093Y0143304D01*
X0174009Y0143335D01*
X0173927Y0143369D01*
X0173846Y0143406D01*
X0173767Y0143447D01*
X0173690Y0143492D01*
X0173615Y0143540D01*
X0173542Y0143591D01*
X0173471Y0143645D01*
X0173403Y0143703D01*
X0173338Y0143763D01*
X0173275Y0143827D01*
X0173215Y0143893D01*
X0173158Y0143962D01*
X0173105Y0144033D01*
X0173054Y0144106D01*
X0173007Y0144182D01*
X0172964Y0144259D01*
X0172923Y0144339D01*
X0172887Y0144420D01*
X0172854Y0144503D01*
X0172825Y0144587D01*
X0172799Y0144673D01*
X0172777Y0144759D01*
X0172760Y0144846D01*
X0172746Y0144934D01*
X0172736Y0145023D01*
X0172730Y0145112D01*
X0172728Y0145201D01*
X0162886Y0214098D02*
X0162888Y0214187D01*
X0162894Y0214276D01*
X0162904Y0214365D01*
X0162918Y0214453D01*
X0162935Y0214540D01*
X0162957Y0214626D01*
X0162983Y0214712D01*
X0163012Y0214796D01*
X0163045Y0214879D01*
X0163081Y0214960D01*
X0163122Y0215040D01*
X0163165Y0215117D01*
X0163212Y0215193D01*
X0163263Y0215266D01*
X0163316Y0215337D01*
X0163373Y0215406D01*
X0163433Y0215472D01*
X0163496Y0215536D01*
X0163561Y0215596D01*
X0163629Y0215654D01*
X0163700Y0215708D01*
X0163773Y0215759D01*
X0163848Y0215807D01*
X0163925Y0215852D01*
X0164004Y0215893D01*
X0164085Y0215930D01*
X0164167Y0215964D01*
X0164251Y0215995D01*
X0164336Y0216021D01*
X0164422Y0216044D01*
X0164509Y0216062D01*
X0164597Y0216077D01*
X0164686Y0216088D01*
X0164775Y0216095D01*
X0164864Y0216098D01*
X0164953Y0216097D01*
X0165042Y0216092D01*
X0165130Y0216083D01*
X0165219Y0216070D01*
X0165306Y0216053D01*
X0165393Y0216033D01*
X0165479Y0216008D01*
X0165563Y0215980D01*
X0165646Y0215948D01*
X0165728Y0215912D01*
X0165808Y0215873D01*
X0165886Y0215830D01*
X0165962Y0215784D01*
X0166036Y0215734D01*
X0166108Y0215681D01*
X0166177Y0215625D01*
X0166244Y0215566D01*
X0166308Y0215504D01*
X0166369Y0215440D01*
X0166428Y0215372D01*
X0166483Y0215302D01*
X0166535Y0215230D01*
X0166584Y0215155D01*
X0166629Y0215079D01*
X0166671Y0215000D01*
X0166709Y0214920D01*
X0166744Y0214838D01*
X0166775Y0214754D01*
X0166803Y0214669D01*
X0166826Y0214583D01*
X0166846Y0214496D01*
X0166862Y0214409D01*
X0166874Y0214320D01*
X0166882Y0214232D01*
X0166886Y0214143D01*
X0166886Y0214053D01*
X0166882Y0213964D01*
X0166874Y0213876D01*
X0166862Y0213787D01*
X0166846Y0213700D01*
X0166826Y0213613D01*
X0166803Y0213527D01*
X0166775Y0213442D01*
X0166744Y0213358D01*
X0166709Y0213276D01*
X0166671Y0213196D01*
X0166629Y0213117D01*
X0166584Y0213041D01*
X0166535Y0212966D01*
X0166483Y0212894D01*
X0166428Y0212824D01*
X0166369Y0212756D01*
X0166308Y0212692D01*
X0166244Y0212630D01*
X0166177Y0212571D01*
X0166108Y0212515D01*
X0166036Y0212462D01*
X0165962Y0212412D01*
X0165886Y0212366D01*
X0165808Y0212323D01*
X0165728Y0212284D01*
X0165646Y0212248D01*
X0165563Y0212216D01*
X0165479Y0212188D01*
X0165393Y0212163D01*
X0165306Y0212143D01*
X0165219Y0212126D01*
X0165130Y0212113D01*
X0165042Y0212104D01*
X0164953Y0212099D01*
X0164864Y0212098D01*
X0164775Y0212101D01*
X0164686Y0212108D01*
X0164597Y0212119D01*
X0164509Y0212134D01*
X0164422Y0212152D01*
X0164336Y0212175D01*
X0164251Y0212201D01*
X0164167Y0212232D01*
X0164085Y0212266D01*
X0164004Y0212303D01*
X0163925Y0212344D01*
X0163848Y0212389D01*
X0163773Y0212437D01*
X0163700Y0212488D01*
X0163629Y0212542D01*
X0163561Y0212600D01*
X0163496Y0212660D01*
X0163433Y0212724D01*
X0163373Y0212790D01*
X0163316Y0212859D01*
X0163263Y0212930D01*
X0163212Y0213003D01*
X0163165Y0213079D01*
X0163122Y0213156D01*
X0163081Y0213236D01*
X0163045Y0213317D01*
X0163012Y0213400D01*
X0162983Y0213484D01*
X0162957Y0213570D01*
X0162935Y0213656D01*
X0162918Y0213743D01*
X0162904Y0213831D01*
X0162894Y0213920D01*
X0162888Y0214009D01*
X0162886Y0214098D01*
X0151075Y0214098D02*
X0151077Y0214187D01*
X0151083Y0214276D01*
X0151093Y0214365D01*
X0151107Y0214453D01*
X0151124Y0214540D01*
X0151146Y0214626D01*
X0151172Y0214712D01*
X0151201Y0214796D01*
X0151234Y0214879D01*
X0151270Y0214960D01*
X0151311Y0215040D01*
X0151354Y0215117D01*
X0151401Y0215193D01*
X0151452Y0215266D01*
X0151505Y0215337D01*
X0151562Y0215406D01*
X0151622Y0215472D01*
X0151685Y0215536D01*
X0151750Y0215596D01*
X0151818Y0215654D01*
X0151889Y0215708D01*
X0151962Y0215759D01*
X0152037Y0215807D01*
X0152114Y0215852D01*
X0152193Y0215893D01*
X0152274Y0215930D01*
X0152356Y0215964D01*
X0152440Y0215995D01*
X0152525Y0216021D01*
X0152611Y0216044D01*
X0152698Y0216062D01*
X0152786Y0216077D01*
X0152875Y0216088D01*
X0152964Y0216095D01*
X0153053Y0216098D01*
X0153142Y0216097D01*
X0153231Y0216092D01*
X0153319Y0216083D01*
X0153408Y0216070D01*
X0153495Y0216053D01*
X0153582Y0216033D01*
X0153668Y0216008D01*
X0153752Y0215980D01*
X0153835Y0215948D01*
X0153917Y0215912D01*
X0153997Y0215873D01*
X0154075Y0215830D01*
X0154151Y0215784D01*
X0154225Y0215734D01*
X0154297Y0215681D01*
X0154366Y0215625D01*
X0154433Y0215566D01*
X0154497Y0215504D01*
X0154558Y0215440D01*
X0154617Y0215372D01*
X0154672Y0215302D01*
X0154724Y0215230D01*
X0154773Y0215155D01*
X0154818Y0215079D01*
X0154860Y0215000D01*
X0154898Y0214920D01*
X0154933Y0214838D01*
X0154964Y0214754D01*
X0154992Y0214669D01*
X0155015Y0214583D01*
X0155035Y0214496D01*
X0155051Y0214409D01*
X0155063Y0214320D01*
X0155071Y0214232D01*
X0155075Y0214143D01*
X0155075Y0214053D01*
X0155071Y0213964D01*
X0155063Y0213876D01*
X0155051Y0213787D01*
X0155035Y0213700D01*
X0155015Y0213613D01*
X0154992Y0213527D01*
X0154964Y0213442D01*
X0154933Y0213358D01*
X0154898Y0213276D01*
X0154860Y0213196D01*
X0154818Y0213117D01*
X0154773Y0213041D01*
X0154724Y0212966D01*
X0154672Y0212894D01*
X0154617Y0212824D01*
X0154558Y0212756D01*
X0154497Y0212692D01*
X0154433Y0212630D01*
X0154366Y0212571D01*
X0154297Y0212515D01*
X0154225Y0212462D01*
X0154151Y0212412D01*
X0154075Y0212366D01*
X0153997Y0212323D01*
X0153917Y0212284D01*
X0153835Y0212248D01*
X0153752Y0212216D01*
X0153668Y0212188D01*
X0153582Y0212163D01*
X0153495Y0212143D01*
X0153408Y0212126D01*
X0153319Y0212113D01*
X0153231Y0212104D01*
X0153142Y0212099D01*
X0153053Y0212098D01*
X0152964Y0212101D01*
X0152875Y0212108D01*
X0152786Y0212119D01*
X0152698Y0212134D01*
X0152611Y0212152D01*
X0152525Y0212175D01*
X0152440Y0212201D01*
X0152356Y0212232D01*
X0152274Y0212266D01*
X0152193Y0212303D01*
X0152114Y0212344D01*
X0152037Y0212389D01*
X0151962Y0212437D01*
X0151889Y0212488D01*
X0151818Y0212542D01*
X0151750Y0212600D01*
X0151685Y0212660D01*
X0151622Y0212724D01*
X0151562Y0212790D01*
X0151505Y0212859D01*
X0151452Y0212930D01*
X0151401Y0213003D01*
X0151354Y0213079D01*
X0151311Y0213156D01*
X0151270Y0213236D01*
X0151234Y0213317D01*
X0151201Y0213400D01*
X0151172Y0213484D01*
X0151146Y0213570D01*
X0151124Y0213656D01*
X0151107Y0213743D01*
X0151093Y0213831D01*
X0151083Y0213920D01*
X0151077Y0214009D01*
X0151075Y0214098D01*
X0151075Y0237720D02*
X0151077Y0237809D01*
X0151083Y0237898D01*
X0151093Y0237987D01*
X0151107Y0238075D01*
X0151124Y0238162D01*
X0151146Y0238248D01*
X0151172Y0238334D01*
X0151201Y0238418D01*
X0151234Y0238501D01*
X0151270Y0238582D01*
X0151311Y0238662D01*
X0151354Y0238739D01*
X0151401Y0238815D01*
X0151452Y0238888D01*
X0151505Y0238959D01*
X0151562Y0239028D01*
X0151622Y0239094D01*
X0151685Y0239158D01*
X0151750Y0239218D01*
X0151818Y0239276D01*
X0151889Y0239330D01*
X0151962Y0239381D01*
X0152037Y0239429D01*
X0152114Y0239474D01*
X0152193Y0239515D01*
X0152274Y0239552D01*
X0152356Y0239586D01*
X0152440Y0239617D01*
X0152525Y0239643D01*
X0152611Y0239666D01*
X0152698Y0239684D01*
X0152786Y0239699D01*
X0152875Y0239710D01*
X0152964Y0239717D01*
X0153053Y0239720D01*
X0153142Y0239719D01*
X0153231Y0239714D01*
X0153319Y0239705D01*
X0153408Y0239692D01*
X0153495Y0239675D01*
X0153582Y0239655D01*
X0153668Y0239630D01*
X0153752Y0239602D01*
X0153835Y0239570D01*
X0153917Y0239534D01*
X0153997Y0239495D01*
X0154075Y0239452D01*
X0154151Y0239406D01*
X0154225Y0239356D01*
X0154297Y0239303D01*
X0154366Y0239247D01*
X0154433Y0239188D01*
X0154497Y0239126D01*
X0154558Y0239062D01*
X0154617Y0238994D01*
X0154672Y0238924D01*
X0154724Y0238852D01*
X0154773Y0238777D01*
X0154818Y0238701D01*
X0154860Y0238622D01*
X0154898Y0238542D01*
X0154933Y0238460D01*
X0154964Y0238376D01*
X0154992Y0238291D01*
X0155015Y0238205D01*
X0155035Y0238118D01*
X0155051Y0238031D01*
X0155063Y0237942D01*
X0155071Y0237854D01*
X0155075Y0237765D01*
X0155075Y0237675D01*
X0155071Y0237586D01*
X0155063Y0237498D01*
X0155051Y0237409D01*
X0155035Y0237322D01*
X0155015Y0237235D01*
X0154992Y0237149D01*
X0154964Y0237064D01*
X0154933Y0236980D01*
X0154898Y0236898D01*
X0154860Y0236818D01*
X0154818Y0236739D01*
X0154773Y0236663D01*
X0154724Y0236588D01*
X0154672Y0236516D01*
X0154617Y0236446D01*
X0154558Y0236378D01*
X0154497Y0236314D01*
X0154433Y0236252D01*
X0154366Y0236193D01*
X0154297Y0236137D01*
X0154225Y0236084D01*
X0154151Y0236034D01*
X0154075Y0235988D01*
X0153997Y0235945D01*
X0153917Y0235906D01*
X0153835Y0235870D01*
X0153752Y0235838D01*
X0153668Y0235810D01*
X0153582Y0235785D01*
X0153495Y0235765D01*
X0153408Y0235748D01*
X0153319Y0235735D01*
X0153231Y0235726D01*
X0153142Y0235721D01*
X0153053Y0235720D01*
X0152964Y0235723D01*
X0152875Y0235730D01*
X0152786Y0235741D01*
X0152698Y0235756D01*
X0152611Y0235774D01*
X0152525Y0235797D01*
X0152440Y0235823D01*
X0152356Y0235854D01*
X0152274Y0235888D01*
X0152193Y0235925D01*
X0152114Y0235966D01*
X0152037Y0236011D01*
X0151962Y0236059D01*
X0151889Y0236110D01*
X0151818Y0236164D01*
X0151750Y0236222D01*
X0151685Y0236282D01*
X0151622Y0236346D01*
X0151562Y0236412D01*
X0151505Y0236481D01*
X0151452Y0236552D01*
X0151401Y0236625D01*
X0151354Y0236701D01*
X0151311Y0236778D01*
X0151270Y0236858D01*
X0151234Y0236939D01*
X0151201Y0237022D01*
X0151172Y0237106D01*
X0151146Y0237192D01*
X0151124Y0237278D01*
X0151107Y0237365D01*
X0151093Y0237453D01*
X0151083Y0237542D01*
X0151077Y0237631D01*
X0151075Y0237720D01*
X0162886Y0237720D02*
X0162888Y0237809D01*
X0162894Y0237898D01*
X0162904Y0237987D01*
X0162918Y0238075D01*
X0162935Y0238162D01*
X0162957Y0238248D01*
X0162983Y0238334D01*
X0163012Y0238418D01*
X0163045Y0238501D01*
X0163081Y0238582D01*
X0163122Y0238662D01*
X0163165Y0238739D01*
X0163212Y0238815D01*
X0163263Y0238888D01*
X0163316Y0238959D01*
X0163373Y0239028D01*
X0163433Y0239094D01*
X0163496Y0239158D01*
X0163561Y0239218D01*
X0163629Y0239276D01*
X0163700Y0239330D01*
X0163773Y0239381D01*
X0163848Y0239429D01*
X0163925Y0239474D01*
X0164004Y0239515D01*
X0164085Y0239552D01*
X0164167Y0239586D01*
X0164251Y0239617D01*
X0164336Y0239643D01*
X0164422Y0239666D01*
X0164509Y0239684D01*
X0164597Y0239699D01*
X0164686Y0239710D01*
X0164775Y0239717D01*
X0164864Y0239720D01*
X0164953Y0239719D01*
X0165042Y0239714D01*
X0165130Y0239705D01*
X0165219Y0239692D01*
X0165306Y0239675D01*
X0165393Y0239655D01*
X0165479Y0239630D01*
X0165563Y0239602D01*
X0165646Y0239570D01*
X0165728Y0239534D01*
X0165808Y0239495D01*
X0165886Y0239452D01*
X0165962Y0239406D01*
X0166036Y0239356D01*
X0166108Y0239303D01*
X0166177Y0239247D01*
X0166244Y0239188D01*
X0166308Y0239126D01*
X0166369Y0239062D01*
X0166428Y0238994D01*
X0166483Y0238924D01*
X0166535Y0238852D01*
X0166584Y0238777D01*
X0166629Y0238701D01*
X0166671Y0238622D01*
X0166709Y0238542D01*
X0166744Y0238460D01*
X0166775Y0238376D01*
X0166803Y0238291D01*
X0166826Y0238205D01*
X0166846Y0238118D01*
X0166862Y0238031D01*
X0166874Y0237942D01*
X0166882Y0237854D01*
X0166886Y0237765D01*
X0166886Y0237675D01*
X0166882Y0237586D01*
X0166874Y0237498D01*
X0166862Y0237409D01*
X0166846Y0237322D01*
X0166826Y0237235D01*
X0166803Y0237149D01*
X0166775Y0237064D01*
X0166744Y0236980D01*
X0166709Y0236898D01*
X0166671Y0236818D01*
X0166629Y0236739D01*
X0166584Y0236663D01*
X0166535Y0236588D01*
X0166483Y0236516D01*
X0166428Y0236446D01*
X0166369Y0236378D01*
X0166308Y0236314D01*
X0166244Y0236252D01*
X0166177Y0236193D01*
X0166108Y0236137D01*
X0166036Y0236084D01*
X0165962Y0236034D01*
X0165886Y0235988D01*
X0165808Y0235945D01*
X0165728Y0235906D01*
X0165646Y0235870D01*
X0165563Y0235838D01*
X0165479Y0235810D01*
X0165393Y0235785D01*
X0165306Y0235765D01*
X0165219Y0235748D01*
X0165130Y0235735D01*
X0165042Y0235726D01*
X0164953Y0235721D01*
X0164864Y0235720D01*
X0164775Y0235723D01*
X0164686Y0235730D01*
X0164597Y0235741D01*
X0164509Y0235756D01*
X0164422Y0235774D01*
X0164336Y0235797D01*
X0164251Y0235823D01*
X0164167Y0235854D01*
X0164085Y0235888D01*
X0164004Y0235925D01*
X0163925Y0235966D01*
X0163848Y0236011D01*
X0163773Y0236059D01*
X0163700Y0236110D01*
X0163629Y0236164D01*
X0163561Y0236222D01*
X0163496Y0236282D01*
X0163433Y0236346D01*
X0163373Y0236412D01*
X0163316Y0236481D01*
X0163263Y0236552D01*
X0163212Y0236625D01*
X0163165Y0236701D01*
X0163122Y0236778D01*
X0163081Y0236858D01*
X0163045Y0236939D01*
X0163012Y0237022D01*
X0162983Y0237106D01*
X0162957Y0237192D01*
X0162935Y0237278D01*
X0162918Y0237365D01*
X0162904Y0237453D01*
X0162894Y0237542D01*
X0162888Y0237631D01*
X0162886Y0237720D01*
X0178634Y0257406D02*
X0178636Y0257495D01*
X0178642Y0257584D01*
X0178652Y0257673D01*
X0178666Y0257761D01*
X0178683Y0257848D01*
X0178705Y0257934D01*
X0178731Y0258020D01*
X0178760Y0258104D01*
X0178793Y0258187D01*
X0178829Y0258268D01*
X0178870Y0258348D01*
X0178913Y0258425D01*
X0178960Y0258501D01*
X0179011Y0258574D01*
X0179064Y0258645D01*
X0179121Y0258714D01*
X0179181Y0258780D01*
X0179244Y0258844D01*
X0179309Y0258904D01*
X0179377Y0258962D01*
X0179448Y0259016D01*
X0179521Y0259067D01*
X0179596Y0259115D01*
X0179673Y0259160D01*
X0179752Y0259201D01*
X0179833Y0259238D01*
X0179915Y0259272D01*
X0179999Y0259303D01*
X0180084Y0259329D01*
X0180170Y0259352D01*
X0180257Y0259370D01*
X0180345Y0259385D01*
X0180434Y0259396D01*
X0180523Y0259403D01*
X0180612Y0259406D01*
X0180701Y0259405D01*
X0180790Y0259400D01*
X0180878Y0259391D01*
X0180967Y0259378D01*
X0181054Y0259361D01*
X0181141Y0259341D01*
X0181227Y0259316D01*
X0181311Y0259288D01*
X0181394Y0259256D01*
X0181476Y0259220D01*
X0181556Y0259181D01*
X0181634Y0259138D01*
X0181710Y0259092D01*
X0181784Y0259042D01*
X0181856Y0258989D01*
X0181925Y0258933D01*
X0181992Y0258874D01*
X0182056Y0258812D01*
X0182117Y0258748D01*
X0182176Y0258680D01*
X0182231Y0258610D01*
X0182283Y0258538D01*
X0182332Y0258463D01*
X0182377Y0258387D01*
X0182419Y0258308D01*
X0182457Y0258228D01*
X0182492Y0258146D01*
X0182523Y0258062D01*
X0182551Y0257977D01*
X0182574Y0257891D01*
X0182594Y0257804D01*
X0182610Y0257717D01*
X0182622Y0257628D01*
X0182630Y0257540D01*
X0182634Y0257451D01*
X0182634Y0257361D01*
X0182630Y0257272D01*
X0182622Y0257184D01*
X0182610Y0257095D01*
X0182594Y0257008D01*
X0182574Y0256921D01*
X0182551Y0256835D01*
X0182523Y0256750D01*
X0182492Y0256666D01*
X0182457Y0256584D01*
X0182419Y0256504D01*
X0182377Y0256425D01*
X0182332Y0256349D01*
X0182283Y0256274D01*
X0182231Y0256202D01*
X0182176Y0256132D01*
X0182117Y0256064D01*
X0182056Y0256000D01*
X0181992Y0255938D01*
X0181925Y0255879D01*
X0181856Y0255823D01*
X0181784Y0255770D01*
X0181710Y0255720D01*
X0181634Y0255674D01*
X0181556Y0255631D01*
X0181476Y0255592D01*
X0181394Y0255556D01*
X0181311Y0255524D01*
X0181227Y0255496D01*
X0181141Y0255471D01*
X0181054Y0255451D01*
X0180967Y0255434D01*
X0180878Y0255421D01*
X0180790Y0255412D01*
X0180701Y0255407D01*
X0180612Y0255406D01*
X0180523Y0255409D01*
X0180434Y0255416D01*
X0180345Y0255427D01*
X0180257Y0255442D01*
X0180170Y0255460D01*
X0180084Y0255483D01*
X0179999Y0255509D01*
X0179915Y0255540D01*
X0179833Y0255574D01*
X0179752Y0255611D01*
X0179673Y0255652D01*
X0179596Y0255697D01*
X0179521Y0255745D01*
X0179448Y0255796D01*
X0179377Y0255850D01*
X0179309Y0255908D01*
X0179244Y0255968D01*
X0179181Y0256032D01*
X0179121Y0256098D01*
X0179064Y0256167D01*
X0179011Y0256238D01*
X0178960Y0256311D01*
X0178913Y0256387D01*
X0178870Y0256464D01*
X0178829Y0256544D01*
X0178793Y0256625D01*
X0178760Y0256708D01*
X0178731Y0256792D01*
X0178705Y0256878D01*
X0178683Y0256964D01*
X0178666Y0257051D01*
X0178652Y0257139D01*
X0178642Y0257228D01*
X0178636Y0257317D01*
X0178634Y0257406D01*
X0198319Y0257406D02*
X0198321Y0257495D01*
X0198327Y0257584D01*
X0198337Y0257673D01*
X0198351Y0257761D01*
X0198368Y0257848D01*
X0198390Y0257934D01*
X0198416Y0258020D01*
X0198445Y0258104D01*
X0198478Y0258187D01*
X0198514Y0258268D01*
X0198555Y0258348D01*
X0198598Y0258425D01*
X0198645Y0258501D01*
X0198696Y0258574D01*
X0198749Y0258645D01*
X0198806Y0258714D01*
X0198866Y0258780D01*
X0198929Y0258844D01*
X0198994Y0258904D01*
X0199062Y0258962D01*
X0199133Y0259016D01*
X0199206Y0259067D01*
X0199281Y0259115D01*
X0199358Y0259160D01*
X0199437Y0259201D01*
X0199518Y0259238D01*
X0199600Y0259272D01*
X0199684Y0259303D01*
X0199769Y0259329D01*
X0199855Y0259352D01*
X0199942Y0259370D01*
X0200030Y0259385D01*
X0200119Y0259396D01*
X0200208Y0259403D01*
X0200297Y0259406D01*
X0200386Y0259405D01*
X0200475Y0259400D01*
X0200563Y0259391D01*
X0200652Y0259378D01*
X0200739Y0259361D01*
X0200826Y0259341D01*
X0200912Y0259316D01*
X0200996Y0259288D01*
X0201079Y0259256D01*
X0201161Y0259220D01*
X0201241Y0259181D01*
X0201319Y0259138D01*
X0201395Y0259092D01*
X0201469Y0259042D01*
X0201541Y0258989D01*
X0201610Y0258933D01*
X0201677Y0258874D01*
X0201741Y0258812D01*
X0201802Y0258748D01*
X0201861Y0258680D01*
X0201916Y0258610D01*
X0201968Y0258538D01*
X0202017Y0258463D01*
X0202062Y0258387D01*
X0202104Y0258308D01*
X0202142Y0258228D01*
X0202177Y0258146D01*
X0202208Y0258062D01*
X0202236Y0257977D01*
X0202259Y0257891D01*
X0202279Y0257804D01*
X0202295Y0257717D01*
X0202307Y0257628D01*
X0202315Y0257540D01*
X0202319Y0257451D01*
X0202319Y0257361D01*
X0202315Y0257272D01*
X0202307Y0257184D01*
X0202295Y0257095D01*
X0202279Y0257008D01*
X0202259Y0256921D01*
X0202236Y0256835D01*
X0202208Y0256750D01*
X0202177Y0256666D01*
X0202142Y0256584D01*
X0202104Y0256504D01*
X0202062Y0256425D01*
X0202017Y0256349D01*
X0201968Y0256274D01*
X0201916Y0256202D01*
X0201861Y0256132D01*
X0201802Y0256064D01*
X0201741Y0256000D01*
X0201677Y0255938D01*
X0201610Y0255879D01*
X0201541Y0255823D01*
X0201469Y0255770D01*
X0201395Y0255720D01*
X0201319Y0255674D01*
X0201241Y0255631D01*
X0201161Y0255592D01*
X0201079Y0255556D01*
X0200996Y0255524D01*
X0200912Y0255496D01*
X0200826Y0255471D01*
X0200739Y0255451D01*
X0200652Y0255434D01*
X0200563Y0255421D01*
X0200475Y0255412D01*
X0200386Y0255407D01*
X0200297Y0255406D01*
X0200208Y0255409D01*
X0200119Y0255416D01*
X0200030Y0255427D01*
X0199942Y0255442D01*
X0199855Y0255460D01*
X0199769Y0255483D01*
X0199684Y0255509D01*
X0199600Y0255540D01*
X0199518Y0255574D01*
X0199437Y0255611D01*
X0199358Y0255652D01*
X0199281Y0255697D01*
X0199206Y0255745D01*
X0199133Y0255796D01*
X0199062Y0255850D01*
X0198994Y0255908D01*
X0198929Y0255968D01*
X0198866Y0256032D01*
X0198806Y0256098D01*
X0198749Y0256167D01*
X0198696Y0256238D01*
X0198645Y0256311D01*
X0198598Y0256387D01*
X0198555Y0256464D01*
X0198514Y0256544D01*
X0198478Y0256625D01*
X0198445Y0256708D01*
X0198416Y0256792D01*
X0198390Y0256878D01*
X0198368Y0256964D01*
X0198351Y0257051D01*
X0198337Y0257139D01*
X0198327Y0257228D01*
X0198321Y0257317D01*
X0198319Y0257406D01*
X0214098Y0241756D02*
X0218035Y0241756D01*
X0218035Y0232701D01*
X0214098Y0232701D01*
X0214098Y0241756D01*
X0235752Y0268134D02*
X0235752Y0277189D01*
X0239689Y0277189D01*
X0239689Y0268134D01*
X0235752Y0268134D01*
X0257406Y0241756D02*
X0261343Y0241756D01*
X0261343Y0232701D01*
X0257406Y0232701D01*
X0257406Y0241756D01*
X0277091Y0241756D02*
X0277091Y0232701D01*
X0281028Y0232701D01*
X0281028Y0241756D01*
X0277091Y0241756D01*
X0298744Y0268134D02*
X0298744Y0277189D01*
X0302681Y0277189D01*
X0302681Y0268134D01*
X0298744Y0268134D01*
X0320398Y0241756D02*
X0324335Y0241756D01*
X0324335Y0232701D01*
X0320398Y0232701D01*
X0320398Y0241756D01*
X0316429Y0210161D02*
X0316431Y0210250D01*
X0316437Y0210339D01*
X0316447Y0210428D01*
X0316461Y0210516D01*
X0316478Y0210603D01*
X0316500Y0210689D01*
X0316526Y0210775D01*
X0316555Y0210859D01*
X0316588Y0210942D01*
X0316624Y0211023D01*
X0316665Y0211103D01*
X0316708Y0211180D01*
X0316755Y0211256D01*
X0316806Y0211329D01*
X0316859Y0211400D01*
X0316916Y0211469D01*
X0316976Y0211535D01*
X0317039Y0211599D01*
X0317104Y0211659D01*
X0317172Y0211717D01*
X0317243Y0211771D01*
X0317316Y0211822D01*
X0317391Y0211870D01*
X0317468Y0211915D01*
X0317547Y0211956D01*
X0317628Y0211993D01*
X0317710Y0212027D01*
X0317794Y0212058D01*
X0317879Y0212084D01*
X0317965Y0212107D01*
X0318052Y0212125D01*
X0318140Y0212140D01*
X0318229Y0212151D01*
X0318318Y0212158D01*
X0318407Y0212161D01*
X0318496Y0212160D01*
X0318585Y0212155D01*
X0318673Y0212146D01*
X0318762Y0212133D01*
X0318849Y0212116D01*
X0318936Y0212096D01*
X0319022Y0212071D01*
X0319106Y0212043D01*
X0319189Y0212011D01*
X0319271Y0211975D01*
X0319351Y0211936D01*
X0319429Y0211893D01*
X0319505Y0211847D01*
X0319579Y0211797D01*
X0319651Y0211744D01*
X0319720Y0211688D01*
X0319787Y0211629D01*
X0319851Y0211567D01*
X0319912Y0211503D01*
X0319971Y0211435D01*
X0320026Y0211365D01*
X0320078Y0211293D01*
X0320127Y0211218D01*
X0320172Y0211142D01*
X0320214Y0211063D01*
X0320252Y0210983D01*
X0320287Y0210901D01*
X0320318Y0210817D01*
X0320346Y0210732D01*
X0320369Y0210646D01*
X0320389Y0210559D01*
X0320405Y0210472D01*
X0320417Y0210383D01*
X0320425Y0210295D01*
X0320429Y0210206D01*
X0320429Y0210116D01*
X0320425Y0210027D01*
X0320417Y0209939D01*
X0320405Y0209850D01*
X0320389Y0209763D01*
X0320369Y0209676D01*
X0320346Y0209590D01*
X0320318Y0209505D01*
X0320287Y0209421D01*
X0320252Y0209339D01*
X0320214Y0209259D01*
X0320172Y0209180D01*
X0320127Y0209104D01*
X0320078Y0209029D01*
X0320026Y0208957D01*
X0319971Y0208887D01*
X0319912Y0208819D01*
X0319851Y0208755D01*
X0319787Y0208693D01*
X0319720Y0208634D01*
X0319651Y0208578D01*
X0319579Y0208525D01*
X0319505Y0208475D01*
X0319429Y0208429D01*
X0319351Y0208386D01*
X0319271Y0208347D01*
X0319189Y0208311D01*
X0319106Y0208279D01*
X0319022Y0208251D01*
X0318936Y0208226D01*
X0318849Y0208206D01*
X0318762Y0208189D01*
X0318673Y0208176D01*
X0318585Y0208167D01*
X0318496Y0208162D01*
X0318407Y0208161D01*
X0318318Y0208164D01*
X0318229Y0208171D01*
X0318140Y0208182D01*
X0318052Y0208197D01*
X0317965Y0208215D01*
X0317879Y0208238D01*
X0317794Y0208264D01*
X0317710Y0208295D01*
X0317628Y0208329D01*
X0317547Y0208366D01*
X0317468Y0208407D01*
X0317391Y0208452D01*
X0317316Y0208500D01*
X0317243Y0208551D01*
X0317172Y0208605D01*
X0317104Y0208663D01*
X0317039Y0208723D01*
X0316976Y0208787D01*
X0316916Y0208853D01*
X0316859Y0208922D01*
X0316806Y0208993D01*
X0316755Y0209066D01*
X0316708Y0209142D01*
X0316665Y0209219D01*
X0316624Y0209299D01*
X0316588Y0209380D01*
X0316555Y0209463D01*
X0316526Y0209547D01*
X0316500Y0209633D01*
X0316478Y0209719D01*
X0316461Y0209806D01*
X0316447Y0209894D01*
X0316437Y0209983D01*
X0316431Y0210072D01*
X0316429Y0210161D01*
X0296744Y0210161D02*
X0296746Y0210250D01*
X0296752Y0210339D01*
X0296762Y0210428D01*
X0296776Y0210516D01*
X0296793Y0210603D01*
X0296815Y0210689D01*
X0296841Y0210775D01*
X0296870Y0210859D01*
X0296903Y0210942D01*
X0296939Y0211023D01*
X0296980Y0211103D01*
X0297023Y0211180D01*
X0297070Y0211256D01*
X0297121Y0211329D01*
X0297174Y0211400D01*
X0297231Y0211469D01*
X0297291Y0211535D01*
X0297354Y0211599D01*
X0297419Y0211659D01*
X0297487Y0211717D01*
X0297558Y0211771D01*
X0297631Y0211822D01*
X0297706Y0211870D01*
X0297783Y0211915D01*
X0297862Y0211956D01*
X0297943Y0211993D01*
X0298025Y0212027D01*
X0298109Y0212058D01*
X0298194Y0212084D01*
X0298280Y0212107D01*
X0298367Y0212125D01*
X0298455Y0212140D01*
X0298544Y0212151D01*
X0298633Y0212158D01*
X0298722Y0212161D01*
X0298811Y0212160D01*
X0298900Y0212155D01*
X0298988Y0212146D01*
X0299077Y0212133D01*
X0299164Y0212116D01*
X0299251Y0212096D01*
X0299337Y0212071D01*
X0299421Y0212043D01*
X0299504Y0212011D01*
X0299586Y0211975D01*
X0299666Y0211936D01*
X0299744Y0211893D01*
X0299820Y0211847D01*
X0299894Y0211797D01*
X0299966Y0211744D01*
X0300035Y0211688D01*
X0300102Y0211629D01*
X0300166Y0211567D01*
X0300227Y0211503D01*
X0300286Y0211435D01*
X0300341Y0211365D01*
X0300393Y0211293D01*
X0300442Y0211218D01*
X0300487Y0211142D01*
X0300529Y0211063D01*
X0300567Y0210983D01*
X0300602Y0210901D01*
X0300633Y0210817D01*
X0300661Y0210732D01*
X0300684Y0210646D01*
X0300704Y0210559D01*
X0300720Y0210472D01*
X0300732Y0210383D01*
X0300740Y0210295D01*
X0300744Y0210206D01*
X0300744Y0210116D01*
X0300740Y0210027D01*
X0300732Y0209939D01*
X0300720Y0209850D01*
X0300704Y0209763D01*
X0300684Y0209676D01*
X0300661Y0209590D01*
X0300633Y0209505D01*
X0300602Y0209421D01*
X0300567Y0209339D01*
X0300529Y0209259D01*
X0300487Y0209180D01*
X0300442Y0209104D01*
X0300393Y0209029D01*
X0300341Y0208957D01*
X0300286Y0208887D01*
X0300227Y0208819D01*
X0300166Y0208755D01*
X0300102Y0208693D01*
X0300035Y0208634D01*
X0299966Y0208578D01*
X0299894Y0208525D01*
X0299820Y0208475D01*
X0299744Y0208429D01*
X0299666Y0208386D01*
X0299586Y0208347D01*
X0299504Y0208311D01*
X0299421Y0208279D01*
X0299337Y0208251D01*
X0299251Y0208226D01*
X0299164Y0208206D01*
X0299077Y0208189D01*
X0298988Y0208176D01*
X0298900Y0208167D01*
X0298811Y0208162D01*
X0298722Y0208161D01*
X0298633Y0208164D01*
X0298544Y0208171D01*
X0298455Y0208182D01*
X0298367Y0208197D01*
X0298280Y0208215D01*
X0298194Y0208238D01*
X0298109Y0208264D01*
X0298025Y0208295D01*
X0297943Y0208329D01*
X0297862Y0208366D01*
X0297783Y0208407D01*
X0297706Y0208452D01*
X0297631Y0208500D01*
X0297558Y0208551D01*
X0297487Y0208605D01*
X0297419Y0208663D01*
X0297354Y0208723D01*
X0297291Y0208787D01*
X0297231Y0208853D01*
X0297174Y0208922D01*
X0297121Y0208993D01*
X0297070Y0209066D01*
X0297023Y0209142D01*
X0296980Y0209219D01*
X0296939Y0209299D01*
X0296903Y0209380D01*
X0296870Y0209463D01*
X0296841Y0209547D01*
X0296815Y0209633D01*
X0296793Y0209719D01*
X0296776Y0209806D01*
X0296762Y0209894D01*
X0296752Y0209983D01*
X0296746Y0210072D01*
X0296744Y0210161D01*
X0296744Y0186539D02*
X0296746Y0186628D01*
X0296752Y0186717D01*
X0296762Y0186806D01*
X0296776Y0186894D01*
X0296793Y0186981D01*
X0296815Y0187067D01*
X0296841Y0187153D01*
X0296870Y0187237D01*
X0296903Y0187320D01*
X0296939Y0187401D01*
X0296980Y0187481D01*
X0297023Y0187558D01*
X0297070Y0187634D01*
X0297121Y0187707D01*
X0297174Y0187778D01*
X0297231Y0187847D01*
X0297291Y0187913D01*
X0297354Y0187977D01*
X0297419Y0188037D01*
X0297487Y0188095D01*
X0297558Y0188149D01*
X0297631Y0188200D01*
X0297706Y0188248D01*
X0297783Y0188293D01*
X0297862Y0188334D01*
X0297943Y0188371D01*
X0298025Y0188405D01*
X0298109Y0188436D01*
X0298194Y0188462D01*
X0298280Y0188485D01*
X0298367Y0188503D01*
X0298455Y0188518D01*
X0298544Y0188529D01*
X0298633Y0188536D01*
X0298722Y0188539D01*
X0298811Y0188538D01*
X0298900Y0188533D01*
X0298988Y0188524D01*
X0299077Y0188511D01*
X0299164Y0188494D01*
X0299251Y0188474D01*
X0299337Y0188449D01*
X0299421Y0188421D01*
X0299504Y0188389D01*
X0299586Y0188353D01*
X0299666Y0188314D01*
X0299744Y0188271D01*
X0299820Y0188225D01*
X0299894Y0188175D01*
X0299966Y0188122D01*
X0300035Y0188066D01*
X0300102Y0188007D01*
X0300166Y0187945D01*
X0300227Y0187881D01*
X0300286Y0187813D01*
X0300341Y0187743D01*
X0300393Y0187671D01*
X0300442Y0187596D01*
X0300487Y0187520D01*
X0300529Y0187441D01*
X0300567Y0187361D01*
X0300602Y0187279D01*
X0300633Y0187195D01*
X0300661Y0187110D01*
X0300684Y0187024D01*
X0300704Y0186937D01*
X0300720Y0186850D01*
X0300732Y0186761D01*
X0300740Y0186673D01*
X0300744Y0186584D01*
X0300744Y0186494D01*
X0300740Y0186405D01*
X0300732Y0186317D01*
X0300720Y0186228D01*
X0300704Y0186141D01*
X0300684Y0186054D01*
X0300661Y0185968D01*
X0300633Y0185883D01*
X0300602Y0185799D01*
X0300567Y0185717D01*
X0300529Y0185637D01*
X0300487Y0185558D01*
X0300442Y0185482D01*
X0300393Y0185407D01*
X0300341Y0185335D01*
X0300286Y0185265D01*
X0300227Y0185197D01*
X0300166Y0185133D01*
X0300102Y0185071D01*
X0300035Y0185012D01*
X0299966Y0184956D01*
X0299894Y0184903D01*
X0299820Y0184853D01*
X0299744Y0184807D01*
X0299666Y0184764D01*
X0299586Y0184725D01*
X0299504Y0184689D01*
X0299421Y0184657D01*
X0299337Y0184629D01*
X0299251Y0184604D01*
X0299164Y0184584D01*
X0299077Y0184567D01*
X0298988Y0184554D01*
X0298900Y0184545D01*
X0298811Y0184540D01*
X0298722Y0184539D01*
X0298633Y0184542D01*
X0298544Y0184549D01*
X0298455Y0184560D01*
X0298367Y0184575D01*
X0298280Y0184593D01*
X0298194Y0184616D01*
X0298109Y0184642D01*
X0298025Y0184673D01*
X0297943Y0184707D01*
X0297862Y0184744D01*
X0297783Y0184785D01*
X0297706Y0184830D01*
X0297631Y0184878D01*
X0297558Y0184929D01*
X0297487Y0184983D01*
X0297419Y0185041D01*
X0297354Y0185101D01*
X0297291Y0185165D01*
X0297231Y0185231D01*
X0297174Y0185300D01*
X0297121Y0185371D01*
X0297070Y0185444D01*
X0297023Y0185520D01*
X0296980Y0185597D01*
X0296939Y0185677D01*
X0296903Y0185758D01*
X0296870Y0185841D01*
X0296841Y0185925D01*
X0296815Y0186011D01*
X0296793Y0186097D01*
X0296776Y0186184D01*
X0296762Y0186272D01*
X0296752Y0186361D01*
X0296746Y0186450D01*
X0296744Y0186539D01*
X0316429Y0186539D02*
X0316431Y0186628D01*
X0316437Y0186717D01*
X0316447Y0186806D01*
X0316461Y0186894D01*
X0316478Y0186981D01*
X0316500Y0187067D01*
X0316526Y0187153D01*
X0316555Y0187237D01*
X0316588Y0187320D01*
X0316624Y0187401D01*
X0316665Y0187481D01*
X0316708Y0187558D01*
X0316755Y0187634D01*
X0316806Y0187707D01*
X0316859Y0187778D01*
X0316916Y0187847D01*
X0316976Y0187913D01*
X0317039Y0187977D01*
X0317104Y0188037D01*
X0317172Y0188095D01*
X0317243Y0188149D01*
X0317316Y0188200D01*
X0317391Y0188248D01*
X0317468Y0188293D01*
X0317547Y0188334D01*
X0317628Y0188371D01*
X0317710Y0188405D01*
X0317794Y0188436D01*
X0317879Y0188462D01*
X0317965Y0188485D01*
X0318052Y0188503D01*
X0318140Y0188518D01*
X0318229Y0188529D01*
X0318318Y0188536D01*
X0318407Y0188539D01*
X0318496Y0188538D01*
X0318585Y0188533D01*
X0318673Y0188524D01*
X0318762Y0188511D01*
X0318849Y0188494D01*
X0318936Y0188474D01*
X0319022Y0188449D01*
X0319106Y0188421D01*
X0319189Y0188389D01*
X0319271Y0188353D01*
X0319351Y0188314D01*
X0319429Y0188271D01*
X0319505Y0188225D01*
X0319579Y0188175D01*
X0319651Y0188122D01*
X0319720Y0188066D01*
X0319787Y0188007D01*
X0319851Y0187945D01*
X0319912Y0187881D01*
X0319971Y0187813D01*
X0320026Y0187743D01*
X0320078Y0187671D01*
X0320127Y0187596D01*
X0320172Y0187520D01*
X0320214Y0187441D01*
X0320252Y0187361D01*
X0320287Y0187279D01*
X0320318Y0187195D01*
X0320346Y0187110D01*
X0320369Y0187024D01*
X0320389Y0186937D01*
X0320405Y0186850D01*
X0320417Y0186761D01*
X0320425Y0186673D01*
X0320429Y0186584D01*
X0320429Y0186494D01*
X0320425Y0186405D01*
X0320417Y0186317D01*
X0320405Y0186228D01*
X0320389Y0186141D01*
X0320369Y0186054D01*
X0320346Y0185968D01*
X0320318Y0185883D01*
X0320287Y0185799D01*
X0320252Y0185717D01*
X0320214Y0185637D01*
X0320172Y0185558D01*
X0320127Y0185482D01*
X0320078Y0185407D01*
X0320026Y0185335D01*
X0319971Y0185265D01*
X0319912Y0185197D01*
X0319851Y0185133D01*
X0319787Y0185071D01*
X0319720Y0185012D01*
X0319651Y0184956D01*
X0319579Y0184903D01*
X0319505Y0184853D01*
X0319429Y0184807D01*
X0319351Y0184764D01*
X0319271Y0184725D01*
X0319189Y0184689D01*
X0319106Y0184657D01*
X0319022Y0184629D01*
X0318936Y0184604D01*
X0318849Y0184584D01*
X0318762Y0184567D01*
X0318673Y0184554D01*
X0318585Y0184545D01*
X0318496Y0184540D01*
X0318407Y0184539D01*
X0318318Y0184542D01*
X0318229Y0184549D01*
X0318140Y0184560D01*
X0318052Y0184575D01*
X0317965Y0184593D01*
X0317879Y0184616D01*
X0317794Y0184642D01*
X0317710Y0184673D01*
X0317628Y0184707D01*
X0317547Y0184744D01*
X0317468Y0184785D01*
X0317391Y0184830D01*
X0317316Y0184878D01*
X0317243Y0184929D01*
X0317172Y0184983D01*
X0317104Y0185041D01*
X0317039Y0185101D01*
X0316976Y0185165D01*
X0316916Y0185231D01*
X0316859Y0185300D01*
X0316806Y0185371D01*
X0316755Y0185444D01*
X0316708Y0185520D01*
X0316665Y0185597D01*
X0316624Y0185677D01*
X0316588Y0185758D01*
X0316555Y0185841D01*
X0316526Y0185925D01*
X0316500Y0186011D01*
X0316478Y0186097D01*
X0316461Y0186184D01*
X0316447Y0186272D01*
X0316437Y0186361D01*
X0316431Y0186450D01*
X0316429Y0186539D01*
X0345957Y0180634D02*
X0345959Y0180723D01*
X0345965Y0180812D01*
X0345975Y0180901D01*
X0345989Y0180989D01*
X0346006Y0181076D01*
X0346028Y0181162D01*
X0346054Y0181248D01*
X0346083Y0181332D01*
X0346116Y0181415D01*
X0346152Y0181496D01*
X0346193Y0181576D01*
X0346236Y0181653D01*
X0346283Y0181729D01*
X0346334Y0181802D01*
X0346387Y0181873D01*
X0346444Y0181942D01*
X0346504Y0182008D01*
X0346567Y0182072D01*
X0346632Y0182132D01*
X0346700Y0182190D01*
X0346771Y0182244D01*
X0346844Y0182295D01*
X0346919Y0182343D01*
X0346996Y0182388D01*
X0347075Y0182429D01*
X0347156Y0182466D01*
X0347238Y0182500D01*
X0347322Y0182531D01*
X0347407Y0182557D01*
X0347493Y0182580D01*
X0347580Y0182598D01*
X0347668Y0182613D01*
X0347757Y0182624D01*
X0347846Y0182631D01*
X0347935Y0182634D01*
X0348024Y0182633D01*
X0348113Y0182628D01*
X0348201Y0182619D01*
X0348290Y0182606D01*
X0348377Y0182589D01*
X0348464Y0182569D01*
X0348550Y0182544D01*
X0348634Y0182516D01*
X0348717Y0182484D01*
X0348799Y0182448D01*
X0348879Y0182409D01*
X0348957Y0182366D01*
X0349033Y0182320D01*
X0349107Y0182270D01*
X0349179Y0182217D01*
X0349248Y0182161D01*
X0349315Y0182102D01*
X0349379Y0182040D01*
X0349440Y0181976D01*
X0349499Y0181908D01*
X0349554Y0181838D01*
X0349606Y0181766D01*
X0349655Y0181691D01*
X0349700Y0181615D01*
X0349742Y0181536D01*
X0349780Y0181456D01*
X0349815Y0181374D01*
X0349846Y0181290D01*
X0349874Y0181205D01*
X0349897Y0181119D01*
X0349917Y0181032D01*
X0349933Y0180945D01*
X0349945Y0180856D01*
X0349953Y0180768D01*
X0349957Y0180679D01*
X0349957Y0180589D01*
X0349953Y0180500D01*
X0349945Y0180412D01*
X0349933Y0180323D01*
X0349917Y0180236D01*
X0349897Y0180149D01*
X0349874Y0180063D01*
X0349846Y0179978D01*
X0349815Y0179894D01*
X0349780Y0179812D01*
X0349742Y0179732D01*
X0349700Y0179653D01*
X0349655Y0179577D01*
X0349606Y0179502D01*
X0349554Y0179430D01*
X0349499Y0179360D01*
X0349440Y0179292D01*
X0349379Y0179228D01*
X0349315Y0179166D01*
X0349248Y0179107D01*
X0349179Y0179051D01*
X0349107Y0178998D01*
X0349033Y0178948D01*
X0348957Y0178902D01*
X0348879Y0178859D01*
X0348799Y0178820D01*
X0348717Y0178784D01*
X0348634Y0178752D01*
X0348550Y0178724D01*
X0348464Y0178699D01*
X0348377Y0178679D01*
X0348290Y0178662D01*
X0348201Y0178649D01*
X0348113Y0178640D01*
X0348024Y0178635D01*
X0347935Y0178634D01*
X0347846Y0178637D01*
X0347757Y0178644D01*
X0347668Y0178655D01*
X0347580Y0178670D01*
X0347493Y0178688D01*
X0347407Y0178711D01*
X0347322Y0178737D01*
X0347238Y0178768D01*
X0347156Y0178802D01*
X0347075Y0178839D01*
X0346996Y0178880D01*
X0346919Y0178925D01*
X0346844Y0178973D01*
X0346771Y0179024D01*
X0346700Y0179078D01*
X0346632Y0179136D01*
X0346567Y0179196D01*
X0346504Y0179260D01*
X0346444Y0179326D01*
X0346387Y0179395D01*
X0346334Y0179466D01*
X0346283Y0179539D01*
X0346236Y0179615D01*
X0346193Y0179692D01*
X0346152Y0179772D01*
X0346116Y0179853D01*
X0346083Y0179936D01*
X0346054Y0180020D01*
X0346028Y0180106D01*
X0346006Y0180192D01*
X0345989Y0180279D01*
X0345975Y0180367D01*
X0345965Y0180456D01*
X0345959Y0180545D01*
X0345957Y0180634D01*
X0345957Y0160949D02*
X0345959Y0161038D01*
X0345965Y0161127D01*
X0345975Y0161216D01*
X0345989Y0161304D01*
X0346006Y0161391D01*
X0346028Y0161477D01*
X0346054Y0161563D01*
X0346083Y0161647D01*
X0346116Y0161730D01*
X0346152Y0161811D01*
X0346193Y0161891D01*
X0346236Y0161968D01*
X0346283Y0162044D01*
X0346334Y0162117D01*
X0346387Y0162188D01*
X0346444Y0162257D01*
X0346504Y0162323D01*
X0346567Y0162387D01*
X0346632Y0162447D01*
X0346700Y0162505D01*
X0346771Y0162559D01*
X0346844Y0162610D01*
X0346919Y0162658D01*
X0346996Y0162703D01*
X0347075Y0162744D01*
X0347156Y0162781D01*
X0347238Y0162815D01*
X0347322Y0162846D01*
X0347407Y0162872D01*
X0347493Y0162895D01*
X0347580Y0162913D01*
X0347668Y0162928D01*
X0347757Y0162939D01*
X0347846Y0162946D01*
X0347935Y0162949D01*
X0348024Y0162948D01*
X0348113Y0162943D01*
X0348201Y0162934D01*
X0348290Y0162921D01*
X0348377Y0162904D01*
X0348464Y0162884D01*
X0348550Y0162859D01*
X0348634Y0162831D01*
X0348717Y0162799D01*
X0348799Y0162763D01*
X0348879Y0162724D01*
X0348957Y0162681D01*
X0349033Y0162635D01*
X0349107Y0162585D01*
X0349179Y0162532D01*
X0349248Y0162476D01*
X0349315Y0162417D01*
X0349379Y0162355D01*
X0349440Y0162291D01*
X0349499Y0162223D01*
X0349554Y0162153D01*
X0349606Y0162081D01*
X0349655Y0162006D01*
X0349700Y0161930D01*
X0349742Y0161851D01*
X0349780Y0161771D01*
X0349815Y0161689D01*
X0349846Y0161605D01*
X0349874Y0161520D01*
X0349897Y0161434D01*
X0349917Y0161347D01*
X0349933Y0161260D01*
X0349945Y0161171D01*
X0349953Y0161083D01*
X0349957Y0160994D01*
X0349957Y0160904D01*
X0349953Y0160815D01*
X0349945Y0160727D01*
X0349933Y0160638D01*
X0349917Y0160551D01*
X0349897Y0160464D01*
X0349874Y0160378D01*
X0349846Y0160293D01*
X0349815Y0160209D01*
X0349780Y0160127D01*
X0349742Y0160047D01*
X0349700Y0159968D01*
X0349655Y0159892D01*
X0349606Y0159817D01*
X0349554Y0159745D01*
X0349499Y0159675D01*
X0349440Y0159607D01*
X0349379Y0159543D01*
X0349315Y0159481D01*
X0349248Y0159422D01*
X0349179Y0159366D01*
X0349107Y0159313D01*
X0349033Y0159263D01*
X0348957Y0159217D01*
X0348879Y0159174D01*
X0348799Y0159135D01*
X0348717Y0159099D01*
X0348634Y0159067D01*
X0348550Y0159039D01*
X0348464Y0159014D01*
X0348377Y0158994D01*
X0348290Y0158977D01*
X0348201Y0158964D01*
X0348113Y0158955D01*
X0348024Y0158950D01*
X0347935Y0158949D01*
X0347846Y0158952D01*
X0347757Y0158959D01*
X0347668Y0158970D01*
X0347580Y0158985D01*
X0347493Y0159003D01*
X0347407Y0159026D01*
X0347322Y0159052D01*
X0347238Y0159083D01*
X0347156Y0159117D01*
X0347075Y0159154D01*
X0346996Y0159195D01*
X0346919Y0159240D01*
X0346844Y0159288D01*
X0346771Y0159339D01*
X0346700Y0159393D01*
X0346632Y0159451D01*
X0346567Y0159511D01*
X0346504Y0159575D01*
X0346444Y0159641D01*
X0346387Y0159710D01*
X0346334Y0159781D01*
X0346283Y0159854D01*
X0346236Y0159930D01*
X0346193Y0160007D01*
X0346152Y0160087D01*
X0346116Y0160168D01*
X0346083Y0160251D01*
X0346054Y0160335D01*
X0346028Y0160421D01*
X0346006Y0160507D01*
X0345989Y0160594D01*
X0345975Y0160682D01*
X0345965Y0160771D01*
X0345959Y0160860D01*
X0345957Y0160949D01*
X0373516Y0160949D02*
X0373518Y0161038D01*
X0373524Y0161127D01*
X0373534Y0161216D01*
X0373548Y0161304D01*
X0373565Y0161391D01*
X0373587Y0161477D01*
X0373613Y0161563D01*
X0373642Y0161647D01*
X0373675Y0161730D01*
X0373711Y0161811D01*
X0373752Y0161891D01*
X0373795Y0161968D01*
X0373842Y0162044D01*
X0373893Y0162117D01*
X0373946Y0162188D01*
X0374003Y0162257D01*
X0374063Y0162323D01*
X0374126Y0162387D01*
X0374191Y0162447D01*
X0374259Y0162505D01*
X0374330Y0162559D01*
X0374403Y0162610D01*
X0374478Y0162658D01*
X0374555Y0162703D01*
X0374634Y0162744D01*
X0374715Y0162781D01*
X0374797Y0162815D01*
X0374881Y0162846D01*
X0374966Y0162872D01*
X0375052Y0162895D01*
X0375139Y0162913D01*
X0375227Y0162928D01*
X0375316Y0162939D01*
X0375405Y0162946D01*
X0375494Y0162949D01*
X0375583Y0162948D01*
X0375672Y0162943D01*
X0375760Y0162934D01*
X0375849Y0162921D01*
X0375936Y0162904D01*
X0376023Y0162884D01*
X0376109Y0162859D01*
X0376193Y0162831D01*
X0376276Y0162799D01*
X0376358Y0162763D01*
X0376438Y0162724D01*
X0376516Y0162681D01*
X0376592Y0162635D01*
X0376666Y0162585D01*
X0376738Y0162532D01*
X0376807Y0162476D01*
X0376874Y0162417D01*
X0376938Y0162355D01*
X0376999Y0162291D01*
X0377058Y0162223D01*
X0377113Y0162153D01*
X0377165Y0162081D01*
X0377214Y0162006D01*
X0377259Y0161930D01*
X0377301Y0161851D01*
X0377339Y0161771D01*
X0377374Y0161689D01*
X0377405Y0161605D01*
X0377433Y0161520D01*
X0377456Y0161434D01*
X0377476Y0161347D01*
X0377492Y0161260D01*
X0377504Y0161171D01*
X0377512Y0161083D01*
X0377516Y0160994D01*
X0377516Y0160904D01*
X0377512Y0160815D01*
X0377504Y0160727D01*
X0377492Y0160638D01*
X0377476Y0160551D01*
X0377456Y0160464D01*
X0377433Y0160378D01*
X0377405Y0160293D01*
X0377374Y0160209D01*
X0377339Y0160127D01*
X0377301Y0160047D01*
X0377259Y0159968D01*
X0377214Y0159892D01*
X0377165Y0159817D01*
X0377113Y0159745D01*
X0377058Y0159675D01*
X0376999Y0159607D01*
X0376938Y0159543D01*
X0376874Y0159481D01*
X0376807Y0159422D01*
X0376738Y0159366D01*
X0376666Y0159313D01*
X0376592Y0159263D01*
X0376516Y0159217D01*
X0376438Y0159174D01*
X0376358Y0159135D01*
X0376276Y0159099D01*
X0376193Y0159067D01*
X0376109Y0159039D01*
X0376023Y0159014D01*
X0375936Y0158994D01*
X0375849Y0158977D01*
X0375760Y0158964D01*
X0375672Y0158955D01*
X0375583Y0158950D01*
X0375494Y0158949D01*
X0375405Y0158952D01*
X0375316Y0158959D01*
X0375227Y0158970D01*
X0375139Y0158985D01*
X0375052Y0159003D01*
X0374966Y0159026D01*
X0374881Y0159052D01*
X0374797Y0159083D01*
X0374715Y0159117D01*
X0374634Y0159154D01*
X0374555Y0159195D01*
X0374478Y0159240D01*
X0374403Y0159288D01*
X0374330Y0159339D01*
X0374259Y0159393D01*
X0374191Y0159451D01*
X0374126Y0159511D01*
X0374063Y0159575D01*
X0374003Y0159641D01*
X0373946Y0159710D01*
X0373893Y0159781D01*
X0373842Y0159854D01*
X0373795Y0159930D01*
X0373752Y0160007D01*
X0373711Y0160087D01*
X0373675Y0160168D01*
X0373642Y0160251D01*
X0373613Y0160335D01*
X0373587Y0160421D01*
X0373565Y0160507D01*
X0373548Y0160594D01*
X0373534Y0160682D01*
X0373524Y0160771D01*
X0373518Y0160860D01*
X0373516Y0160949D01*
X0373516Y0180634D02*
X0373518Y0180723D01*
X0373524Y0180812D01*
X0373534Y0180901D01*
X0373548Y0180989D01*
X0373565Y0181076D01*
X0373587Y0181162D01*
X0373613Y0181248D01*
X0373642Y0181332D01*
X0373675Y0181415D01*
X0373711Y0181496D01*
X0373752Y0181576D01*
X0373795Y0181653D01*
X0373842Y0181729D01*
X0373893Y0181802D01*
X0373946Y0181873D01*
X0374003Y0181942D01*
X0374063Y0182008D01*
X0374126Y0182072D01*
X0374191Y0182132D01*
X0374259Y0182190D01*
X0374330Y0182244D01*
X0374403Y0182295D01*
X0374478Y0182343D01*
X0374555Y0182388D01*
X0374634Y0182429D01*
X0374715Y0182466D01*
X0374797Y0182500D01*
X0374881Y0182531D01*
X0374966Y0182557D01*
X0375052Y0182580D01*
X0375139Y0182598D01*
X0375227Y0182613D01*
X0375316Y0182624D01*
X0375405Y0182631D01*
X0375494Y0182634D01*
X0375583Y0182633D01*
X0375672Y0182628D01*
X0375760Y0182619D01*
X0375849Y0182606D01*
X0375936Y0182589D01*
X0376023Y0182569D01*
X0376109Y0182544D01*
X0376193Y0182516D01*
X0376276Y0182484D01*
X0376358Y0182448D01*
X0376438Y0182409D01*
X0376516Y0182366D01*
X0376592Y0182320D01*
X0376666Y0182270D01*
X0376738Y0182217D01*
X0376807Y0182161D01*
X0376874Y0182102D01*
X0376938Y0182040D01*
X0376999Y0181976D01*
X0377058Y0181908D01*
X0377113Y0181838D01*
X0377165Y0181766D01*
X0377214Y0181691D01*
X0377259Y0181615D01*
X0377301Y0181536D01*
X0377339Y0181456D01*
X0377374Y0181374D01*
X0377405Y0181290D01*
X0377433Y0181205D01*
X0377456Y0181119D01*
X0377476Y0181032D01*
X0377492Y0180945D01*
X0377504Y0180856D01*
X0377512Y0180768D01*
X0377516Y0180679D01*
X0377516Y0180589D01*
X0377512Y0180500D01*
X0377504Y0180412D01*
X0377492Y0180323D01*
X0377476Y0180236D01*
X0377456Y0180149D01*
X0377433Y0180063D01*
X0377405Y0179978D01*
X0377374Y0179894D01*
X0377339Y0179812D01*
X0377301Y0179732D01*
X0377259Y0179653D01*
X0377214Y0179577D01*
X0377165Y0179502D01*
X0377113Y0179430D01*
X0377058Y0179360D01*
X0376999Y0179292D01*
X0376938Y0179228D01*
X0376874Y0179166D01*
X0376807Y0179107D01*
X0376738Y0179051D01*
X0376666Y0178998D01*
X0376592Y0178948D01*
X0376516Y0178902D01*
X0376438Y0178859D01*
X0376358Y0178820D01*
X0376276Y0178784D01*
X0376193Y0178752D01*
X0376109Y0178724D01*
X0376023Y0178699D01*
X0375936Y0178679D01*
X0375849Y0178662D01*
X0375760Y0178649D01*
X0375672Y0178640D01*
X0375583Y0178635D01*
X0375494Y0178634D01*
X0375405Y0178637D01*
X0375316Y0178644D01*
X0375227Y0178655D01*
X0375139Y0178670D01*
X0375052Y0178688D01*
X0374966Y0178711D01*
X0374881Y0178737D01*
X0374797Y0178768D01*
X0374715Y0178802D01*
X0374634Y0178839D01*
X0374555Y0178880D01*
X0374478Y0178925D01*
X0374403Y0178973D01*
X0374330Y0179024D01*
X0374259Y0179078D01*
X0374191Y0179136D01*
X0374126Y0179196D01*
X0374063Y0179260D01*
X0374003Y0179326D01*
X0373946Y0179395D01*
X0373893Y0179466D01*
X0373842Y0179539D01*
X0373795Y0179615D01*
X0373752Y0179692D01*
X0373711Y0179772D01*
X0373675Y0179853D01*
X0373642Y0179936D01*
X0373613Y0180020D01*
X0373587Y0180106D01*
X0373565Y0180192D01*
X0373548Y0180279D01*
X0373534Y0180367D01*
X0373524Y0180456D01*
X0373518Y0180545D01*
X0373516Y0180634D01*
X0271154Y0074335D02*
X0271156Y0074424D01*
X0271162Y0074513D01*
X0271172Y0074602D01*
X0271186Y0074690D01*
X0271203Y0074777D01*
X0271225Y0074863D01*
X0271251Y0074949D01*
X0271280Y0075033D01*
X0271313Y0075116D01*
X0271349Y0075197D01*
X0271390Y0075277D01*
X0271433Y0075354D01*
X0271480Y0075430D01*
X0271531Y0075503D01*
X0271584Y0075574D01*
X0271641Y0075643D01*
X0271701Y0075709D01*
X0271764Y0075773D01*
X0271829Y0075833D01*
X0271897Y0075891D01*
X0271968Y0075945D01*
X0272041Y0075996D01*
X0272116Y0076044D01*
X0272193Y0076089D01*
X0272272Y0076130D01*
X0272353Y0076167D01*
X0272435Y0076201D01*
X0272519Y0076232D01*
X0272604Y0076258D01*
X0272690Y0076281D01*
X0272777Y0076299D01*
X0272865Y0076314D01*
X0272954Y0076325D01*
X0273043Y0076332D01*
X0273132Y0076335D01*
X0273221Y0076334D01*
X0273310Y0076329D01*
X0273398Y0076320D01*
X0273487Y0076307D01*
X0273574Y0076290D01*
X0273661Y0076270D01*
X0273747Y0076245D01*
X0273831Y0076217D01*
X0273914Y0076185D01*
X0273996Y0076149D01*
X0274076Y0076110D01*
X0274154Y0076067D01*
X0274230Y0076021D01*
X0274304Y0075971D01*
X0274376Y0075918D01*
X0274445Y0075862D01*
X0274512Y0075803D01*
X0274576Y0075741D01*
X0274637Y0075677D01*
X0274696Y0075609D01*
X0274751Y0075539D01*
X0274803Y0075467D01*
X0274852Y0075392D01*
X0274897Y0075316D01*
X0274939Y0075237D01*
X0274977Y0075157D01*
X0275012Y0075075D01*
X0275043Y0074991D01*
X0275071Y0074906D01*
X0275094Y0074820D01*
X0275114Y0074733D01*
X0275130Y0074646D01*
X0275142Y0074557D01*
X0275150Y0074469D01*
X0275154Y0074380D01*
X0275154Y0074290D01*
X0275150Y0074201D01*
X0275142Y0074113D01*
X0275130Y0074024D01*
X0275114Y0073937D01*
X0275094Y0073850D01*
X0275071Y0073764D01*
X0275043Y0073679D01*
X0275012Y0073595D01*
X0274977Y0073513D01*
X0274939Y0073433D01*
X0274897Y0073354D01*
X0274852Y0073278D01*
X0274803Y0073203D01*
X0274751Y0073131D01*
X0274696Y0073061D01*
X0274637Y0072993D01*
X0274576Y0072929D01*
X0274512Y0072867D01*
X0274445Y0072808D01*
X0274376Y0072752D01*
X0274304Y0072699D01*
X0274230Y0072649D01*
X0274154Y0072603D01*
X0274076Y0072560D01*
X0273996Y0072521D01*
X0273914Y0072485D01*
X0273831Y0072453D01*
X0273747Y0072425D01*
X0273661Y0072400D01*
X0273574Y0072380D01*
X0273487Y0072363D01*
X0273398Y0072350D01*
X0273310Y0072341D01*
X0273221Y0072336D01*
X0273132Y0072335D01*
X0273043Y0072338D01*
X0272954Y0072345D01*
X0272865Y0072356D01*
X0272777Y0072371D01*
X0272690Y0072389D01*
X0272604Y0072412D01*
X0272519Y0072438D01*
X0272435Y0072469D01*
X0272353Y0072503D01*
X0272272Y0072540D01*
X0272193Y0072581D01*
X0272116Y0072626D01*
X0272041Y0072674D01*
X0271968Y0072725D01*
X0271897Y0072779D01*
X0271829Y0072837D01*
X0271764Y0072897D01*
X0271701Y0072961D01*
X0271641Y0073027D01*
X0271584Y0073096D01*
X0271531Y0073167D01*
X0271480Y0073240D01*
X0271433Y0073316D01*
X0271390Y0073393D01*
X0271349Y0073473D01*
X0271313Y0073554D01*
X0271280Y0073637D01*
X0271251Y0073721D01*
X0271225Y0073807D01*
X0271203Y0073893D01*
X0271186Y0073980D01*
X0271172Y0074068D01*
X0271162Y0074157D01*
X0271156Y0074246D01*
X0271154Y0074335D01*
X0271154Y0054650D02*
X0271156Y0054739D01*
X0271162Y0054828D01*
X0271172Y0054917D01*
X0271186Y0055005D01*
X0271203Y0055092D01*
X0271225Y0055178D01*
X0271251Y0055264D01*
X0271280Y0055348D01*
X0271313Y0055431D01*
X0271349Y0055512D01*
X0271390Y0055592D01*
X0271433Y0055669D01*
X0271480Y0055745D01*
X0271531Y0055818D01*
X0271584Y0055889D01*
X0271641Y0055958D01*
X0271701Y0056024D01*
X0271764Y0056088D01*
X0271829Y0056148D01*
X0271897Y0056206D01*
X0271968Y0056260D01*
X0272041Y0056311D01*
X0272116Y0056359D01*
X0272193Y0056404D01*
X0272272Y0056445D01*
X0272353Y0056482D01*
X0272435Y0056516D01*
X0272519Y0056547D01*
X0272604Y0056573D01*
X0272690Y0056596D01*
X0272777Y0056614D01*
X0272865Y0056629D01*
X0272954Y0056640D01*
X0273043Y0056647D01*
X0273132Y0056650D01*
X0273221Y0056649D01*
X0273310Y0056644D01*
X0273398Y0056635D01*
X0273487Y0056622D01*
X0273574Y0056605D01*
X0273661Y0056585D01*
X0273747Y0056560D01*
X0273831Y0056532D01*
X0273914Y0056500D01*
X0273996Y0056464D01*
X0274076Y0056425D01*
X0274154Y0056382D01*
X0274230Y0056336D01*
X0274304Y0056286D01*
X0274376Y0056233D01*
X0274445Y0056177D01*
X0274512Y0056118D01*
X0274576Y0056056D01*
X0274637Y0055992D01*
X0274696Y0055924D01*
X0274751Y0055854D01*
X0274803Y0055782D01*
X0274852Y0055707D01*
X0274897Y0055631D01*
X0274939Y0055552D01*
X0274977Y0055472D01*
X0275012Y0055390D01*
X0275043Y0055306D01*
X0275071Y0055221D01*
X0275094Y0055135D01*
X0275114Y0055048D01*
X0275130Y0054961D01*
X0275142Y0054872D01*
X0275150Y0054784D01*
X0275154Y0054695D01*
X0275154Y0054605D01*
X0275150Y0054516D01*
X0275142Y0054428D01*
X0275130Y0054339D01*
X0275114Y0054252D01*
X0275094Y0054165D01*
X0275071Y0054079D01*
X0275043Y0053994D01*
X0275012Y0053910D01*
X0274977Y0053828D01*
X0274939Y0053748D01*
X0274897Y0053669D01*
X0274852Y0053593D01*
X0274803Y0053518D01*
X0274751Y0053446D01*
X0274696Y0053376D01*
X0274637Y0053308D01*
X0274576Y0053244D01*
X0274512Y0053182D01*
X0274445Y0053123D01*
X0274376Y0053067D01*
X0274304Y0053014D01*
X0274230Y0052964D01*
X0274154Y0052918D01*
X0274076Y0052875D01*
X0273996Y0052836D01*
X0273914Y0052800D01*
X0273831Y0052768D01*
X0273747Y0052740D01*
X0273661Y0052715D01*
X0273574Y0052695D01*
X0273487Y0052678D01*
X0273398Y0052665D01*
X0273310Y0052656D01*
X0273221Y0052651D01*
X0273132Y0052650D01*
X0273043Y0052653D01*
X0272954Y0052660D01*
X0272865Y0052671D01*
X0272777Y0052686D01*
X0272690Y0052704D01*
X0272604Y0052727D01*
X0272519Y0052753D01*
X0272435Y0052784D01*
X0272353Y0052818D01*
X0272272Y0052855D01*
X0272193Y0052896D01*
X0272116Y0052941D01*
X0272041Y0052989D01*
X0271968Y0053040D01*
X0271897Y0053094D01*
X0271829Y0053152D01*
X0271764Y0053212D01*
X0271701Y0053276D01*
X0271641Y0053342D01*
X0271584Y0053411D01*
X0271531Y0053482D01*
X0271480Y0053555D01*
X0271433Y0053631D01*
X0271390Y0053708D01*
X0271349Y0053788D01*
X0271313Y0053869D01*
X0271280Y0053952D01*
X0271251Y0054036D01*
X0271225Y0054122D01*
X0271203Y0054208D01*
X0271186Y0054295D01*
X0271172Y0054383D01*
X0271162Y0054472D01*
X0271156Y0054561D01*
X0271154Y0054650D01*
X0235720Y0054650D02*
X0235722Y0054739D01*
X0235728Y0054828D01*
X0235738Y0054917D01*
X0235752Y0055005D01*
X0235769Y0055092D01*
X0235791Y0055178D01*
X0235817Y0055264D01*
X0235846Y0055348D01*
X0235879Y0055431D01*
X0235915Y0055512D01*
X0235956Y0055592D01*
X0235999Y0055669D01*
X0236046Y0055745D01*
X0236097Y0055818D01*
X0236150Y0055889D01*
X0236207Y0055958D01*
X0236267Y0056024D01*
X0236330Y0056088D01*
X0236395Y0056148D01*
X0236463Y0056206D01*
X0236534Y0056260D01*
X0236607Y0056311D01*
X0236682Y0056359D01*
X0236759Y0056404D01*
X0236838Y0056445D01*
X0236919Y0056482D01*
X0237001Y0056516D01*
X0237085Y0056547D01*
X0237170Y0056573D01*
X0237256Y0056596D01*
X0237343Y0056614D01*
X0237431Y0056629D01*
X0237520Y0056640D01*
X0237609Y0056647D01*
X0237698Y0056650D01*
X0237787Y0056649D01*
X0237876Y0056644D01*
X0237964Y0056635D01*
X0238053Y0056622D01*
X0238140Y0056605D01*
X0238227Y0056585D01*
X0238313Y0056560D01*
X0238397Y0056532D01*
X0238480Y0056500D01*
X0238562Y0056464D01*
X0238642Y0056425D01*
X0238720Y0056382D01*
X0238796Y0056336D01*
X0238870Y0056286D01*
X0238942Y0056233D01*
X0239011Y0056177D01*
X0239078Y0056118D01*
X0239142Y0056056D01*
X0239203Y0055992D01*
X0239262Y0055924D01*
X0239317Y0055854D01*
X0239369Y0055782D01*
X0239418Y0055707D01*
X0239463Y0055631D01*
X0239505Y0055552D01*
X0239543Y0055472D01*
X0239578Y0055390D01*
X0239609Y0055306D01*
X0239637Y0055221D01*
X0239660Y0055135D01*
X0239680Y0055048D01*
X0239696Y0054961D01*
X0239708Y0054872D01*
X0239716Y0054784D01*
X0239720Y0054695D01*
X0239720Y0054605D01*
X0239716Y0054516D01*
X0239708Y0054428D01*
X0239696Y0054339D01*
X0239680Y0054252D01*
X0239660Y0054165D01*
X0239637Y0054079D01*
X0239609Y0053994D01*
X0239578Y0053910D01*
X0239543Y0053828D01*
X0239505Y0053748D01*
X0239463Y0053669D01*
X0239418Y0053593D01*
X0239369Y0053518D01*
X0239317Y0053446D01*
X0239262Y0053376D01*
X0239203Y0053308D01*
X0239142Y0053244D01*
X0239078Y0053182D01*
X0239011Y0053123D01*
X0238942Y0053067D01*
X0238870Y0053014D01*
X0238796Y0052964D01*
X0238720Y0052918D01*
X0238642Y0052875D01*
X0238562Y0052836D01*
X0238480Y0052800D01*
X0238397Y0052768D01*
X0238313Y0052740D01*
X0238227Y0052715D01*
X0238140Y0052695D01*
X0238053Y0052678D01*
X0237964Y0052665D01*
X0237876Y0052656D01*
X0237787Y0052651D01*
X0237698Y0052650D01*
X0237609Y0052653D01*
X0237520Y0052660D01*
X0237431Y0052671D01*
X0237343Y0052686D01*
X0237256Y0052704D01*
X0237170Y0052727D01*
X0237085Y0052753D01*
X0237001Y0052784D01*
X0236919Y0052818D01*
X0236838Y0052855D01*
X0236759Y0052896D01*
X0236682Y0052941D01*
X0236607Y0052989D01*
X0236534Y0053040D01*
X0236463Y0053094D01*
X0236395Y0053152D01*
X0236330Y0053212D01*
X0236267Y0053276D01*
X0236207Y0053342D01*
X0236150Y0053411D01*
X0236097Y0053482D01*
X0236046Y0053555D01*
X0235999Y0053631D01*
X0235956Y0053708D01*
X0235915Y0053788D01*
X0235879Y0053869D01*
X0235846Y0053952D01*
X0235817Y0054036D01*
X0235791Y0054122D01*
X0235769Y0054208D01*
X0235752Y0054295D01*
X0235738Y0054383D01*
X0235728Y0054472D01*
X0235722Y0054561D01*
X0235720Y0054650D01*
X0235720Y0074335D02*
X0235722Y0074424D01*
X0235728Y0074513D01*
X0235738Y0074602D01*
X0235752Y0074690D01*
X0235769Y0074777D01*
X0235791Y0074863D01*
X0235817Y0074949D01*
X0235846Y0075033D01*
X0235879Y0075116D01*
X0235915Y0075197D01*
X0235956Y0075277D01*
X0235999Y0075354D01*
X0236046Y0075430D01*
X0236097Y0075503D01*
X0236150Y0075574D01*
X0236207Y0075643D01*
X0236267Y0075709D01*
X0236330Y0075773D01*
X0236395Y0075833D01*
X0236463Y0075891D01*
X0236534Y0075945D01*
X0236607Y0075996D01*
X0236682Y0076044D01*
X0236759Y0076089D01*
X0236838Y0076130D01*
X0236919Y0076167D01*
X0237001Y0076201D01*
X0237085Y0076232D01*
X0237170Y0076258D01*
X0237256Y0076281D01*
X0237343Y0076299D01*
X0237431Y0076314D01*
X0237520Y0076325D01*
X0237609Y0076332D01*
X0237698Y0076335D01*
X0237787Y0076334D01*
X0237876Y0076329D01*
X0237964Y0076320D01*
X0238053Y0076307D01*
X0238140Y0076290D01*
X0238227Y0076270D01*
X0238313Y0076245D01*
X0238397Y0076217D01*
X0238480Y0076185D01*
X0238562Y0076149D01*
X0238642Y0076110D01*
X0238720Y0076067D01*
X0238796Y0076021D01*
X0238870Y0075971D01*
X0238942Y0075918D01*
X0239011Y0075862D01*
X0239078Y0075803D01*
X0239142Y0075741D01*
X0239203Y0075677D01*
X0239262Y0075609D01*
X0239317Y0075539D01*
X0239369Y0075467D01*
X0239418Y0075392D01*
X0239463Y0075316D01*
X0239505Y0075237D01*
X0239543Y0075157D01*
X0239578Y0075075D01*
X0239609Y0074991D01*
X0239637Y0074906D01*
X0239660Y0074820D01*
X0239680Y0074733D01*
X0239696Y0074646D01*
X0239708Y0074557D01*
X0239716Y0074469D01*
X0239720Y0074380D01*
X0239720Y0074290D01*
X0239716Y0074201D01*
X0239708Y0074113D01*
X0239696Y0074024D01*
X0239680Y0073937D01*
X0239660Y0073850D01*
X0239637Y0073764D01*
X0239609Y0073679D01*
X0239578Y0073595D01*
X0239543Y0073513D01*
X0239505Y0073433D01*
X0239463Y0073354D01*
X0239418Y0073278D01*
X0239369Y0073203D01*
X0239317Y0073131D01*
X0239262Y0073061D01*
X0239203Y0072993D01*
X0239142Y0072929D01*
X0239078Y0072867D01*
X0239011Y0072808D01*
X0238942Y0072752D01*
X0238870Y0072699D01*
X0238796Y0072649D01*
X0238720Y0072603D01*
X0238642Y0072560D01*
X0238562Y0072521D01*
X0238480Y0072485D01*
X0238397Y0072453D01*
X0238313Y0072425D01*
X0238227Y0072400D01*
X0238140Y0072380D01*
X0238053Y0072363D01*
X0237964Y0072350D01*
X0237876Y0072341D01*
X0237787Y0072336D01*
X0237698Y0072335D01*
X0237609Y0072338D01*
X0237520Y0072345D01*
X0237431Y0072356D01*
X0237343Y0072371D01*
X0237256Y0072389D01*
X0237170Y0072412D01*
X0237085Y0072438D01*
X0237001Y0072469D01*
X0236919Y0072503D01*
X0236838Y0072540D01*
X0236759Y0072581D01*
X0236682Y0072626D01*
X0236607Y0072674D01*
X0236534Y0072725D01*
X0236463Y0072779D01*
X0236395Y0072837D01*
X0236330Y0072897D01*
X0236267Y0072961D01*
X0236207Y0073027D01*
X0236150Y0073096D01*
X0236097Y0073167D01*
X0236046Y0073240D01*
X0235999Y0073316D01*
X0235956Y0073393D01*
X0235915Y0073473D01*
X0235879Y0073554D01*
X0235846Y0073637D01*
X0235817Y0073721D01*
X0235791Y0073807D01*
X0235769Y0073893D01*
X0235752Y0073980D01*
X0235738Y0074068D01*
X0235728Y0074157D01*
X0235722Y0074246D01*
X0235720Y0074335D01*
X0324303Y0068429D02*
X0324305Y0068518D01*
X0324311Y0068607D01*
X0324321Y0068696D01*
X0324335Y0068784D01*
X0324352Y0068871D01*
X0324374Y0068957D01*
X0324400Y0069043D01*
X0324429Y0069127D01*
X0324462Y0069210D01*
X0324498Y0069291D01*
X0324539Y0069371D01*
X0324582Y0069448D01*
X0324629Y0069524D01*
X0324680Y0069597D01*
X0324733Y0069668D01*
X0324790Y0069737D01*
X0324850Y0069803D01*
X0324913Y0069867D01*
X0324978Y0069927D01*
X0325046Y0069985D01*
X0325117Y0070039D01*
X0325190Y0070090D01*
X0325265Y0070138D01*
X0325342Y0070183D01*
X0325421Y0070224D01*
X0325502Y0070261D01*
X0325584Y0070295D01*
X0325668Y0070326D01*
X0325753Y0070352D01*
X0325839Y0070375D01*
X0325926Y0070393D01*
X0326014Y0070408D01*
X0326103Y0070419D01*
X0326192Y0070426D01*
X0326281Y0070429D01*
X0326370Y0070428D01*
X0326459Y0070423D01*
X0326547Y0070414D01*
X0326636Y0070401D01*
X0326723Y0070384D01*
X0326810Y0070364D01*
X0326896Y0070339D01*
X0326980Y0070311D01*
X0327063Y0070279D01*
X0327145Y0070243D01*
X0327225Y0070204D01*
X0327303Y0070161D01*
X0327379Y0070115D01*
X0327453Y0070065D01*
X0327525Y0070012D01*
X0327594Y0069956D01*
X0327661Y0069897D01*
X0327725Y0069835D01*
X0327786Y0069771D01*
X0327845Y0069703D01*
X0327900Y0069633D01*
X0327952Y0069561D01*
X0328001Y0069486D01*
X0328046Y0069410D01*
X0328088Y0069331D01*
X0328126Y0069251D01*
X0328161Y0069169D01*
X0328192Y0069085D01*
X0328220Y0069000D01*
X0328243Y0068914D01*
X0328263Y0068827D01*
X0328279Y0068740D01*
X0328291Y0068651D01*
X0328299Y0068563D01*
X0328303Y0068474D01*
X0328303Y0068384D01*
X0328299Y0068295D01*
X0328291Y0068207D01*
X0328279Y0068118D01*
X0328263Y0068031D01*
X0328243Y0067944D01*
X0328220Y0067858D01*
X0328192Y0067773D01*
X0328161Y0067689D01*
X0328126Y0067607D01*
X0328088Y0067527D01*
X0328046Y0067448D01*
X0328001Y0067372D01*
X0327952Y0067297D01*
X0327900Y0067225D01*
X0327845Y0067155D01*
X0327786Y0067087D01*
X0327725Y0067023D01*
X0327661Y0066961D01*
X0327594Y0066902D01*
X0327525Y0066846D01*
X0327453Y0066793D01*
X0327379Y0066743D01*
X0327303Y0066697D01*
X0327225Y0066654D01*
X0327145Y0066615D01*
X0327063Y0066579D01*
X0326980Y0066547D01*
X0326896Y0066519D01*
X0326810Y0066494D01*
X0326723Y0066474D01*
X0326636Y0066457D01*
X0326547Y0066444D01*
X0326459Y0066435D01*
X0326370Y0066430D01*
X0326281Y0066429D01*
X0326192Y0066432D01*
X0326103Y0066439D01*
X0326014Y0066450D01*
X0325926Y0066465D01*
X0325839Y0066483D01*
X0325753Y0066506D01*
X0325668Y0066532D01*
X0325584Y0066563D01*
X0325502Y0066597D01*
X0325421Y0066634D01*
X0325342Y0066675D01*
X0325265Y0066720D01*
X0325190Y0066768D01*
X0325117Y0066819D01*
X0325046Y0066873D01*
X0324978Y0066931D01*
X0324913Y0066991D01*
X0324850Y0067055D01*
X0324790Y0067121D01*
X0324733Y0067190D01*
X0324680Y0067261D01*
X0324629Y0067334D01*
X0324582Y0067410D01*
X0324539Y0067487D01*
X0324498Y0067567D01*
X0324462Y0067648D01*
X0324429Y0067731D01*
X0324400Y0067815D01*
X0324374Y0067901D01*
X0324352Y0067987D01*
X0324335Y0068074D01*
X0324321Y0068162D01*
X0324311Y0068251D01*
X0324305Y0068340D01*
X0324303Y0068429D01*
X0336114Y0068429D02*
X0336116Y0068518D01*
X0336122Y0068607D01*
X0336132Y0068696D01*
X0336146Y0068784D01*
X0336163Y0068871D01*
X0336185Y0068957D01*
X0336211Y0069043D01*
X0336240Y0069127D01*
X0336273Y0069210D01*
X0336309Y0069291D01*
X0336350Y0069371D01*
X0336393Y0069448D01*
X0336440Y0069524D01*
X0336491Y0069597D01*
X0336544Y0069668D01*
X0336601Y0069737D01*
X0336661Y0069803D01*
X0336724Y0069867D01*
X0336789Y0069927D01*
X0336857Y0069985D01*
X0336928Y0070039D01*
X0337001Y0070090D01*
X0337076Y0070138D01*
X0337153Y0070183D01*
X0337232Y0070224D01*
X0337313Y0070261D01*
X0337395Y0070295D01*
X0337479Y0070326D01*
X0337564Y0070352D01*
X0337650Y0070375D01*
X0337737Y0070393D01*
X0337825Y0070408D01*
X0337914Y0070419D01*
X0338003Y0070426D01*
X0338092Y0070429D01*
X0338181Y0070428D01*
X0338270Y0070423D01*
X0338358Y0070414D01*
X0338447Y0070401D01*
X0338534Y0070384D01*
X0338621Y0070364D01*
X0338707Y0070339D01*
X0338791Y0070311D01*
X0338874Y0070279D01*
X0338956Y0070243D01*
X0339036Y0070204D01*
X0339114Y0070161D01*
X0339190Y0070115D01*
X0339264Y0070065D01*
X0339336Y0070012D01*
X0339405Y0069956D01*
X0339472Y0069897D01*
X0339536Y0069835D01*
X0339597Y0069771D01*
X0339656Y0069703D01*
X0339711Y0069633D01*
X0339763Y0069561D01*
X0339812Y0069486D01*
X0339857Y0069410D01*
X0339899Y0069331D01*
X0339937Y0069251D01*
X0339972Y0069169D01*
X0340003Y0069085D01*
X0340031Y0069000D01*
X0340054Y0068914D01*
X0340074Y0068827D01*
X0340090Y0068740D01*
X0340102Y0068651D01*
X0340110Y0068563D01*
X0340114Y0068474D01*
X0340114Y0068384D01*
X0340110Y0068295D01*
X0340102Y0068207D01*
X0340090Y0068118D01*
X0340074Y0068031D01*
X0340054Y0067944D01*
X0340031Y0067858D01*
X0340003Y0067773D01*
X0339972Y0067689D01*
X0339937Y0067607D01*
X0339899Y0067527D01*
X0339857Y0067448D01*
X0339812Y0067372D01*
X0339763Y0067297D01*
X0339711Y0067225D01*
X0339656Y0067155D01*
X0339597Y0067087D01*
X0339536Y0067023D01*
X0339472Y0066961D01*
X0339405Y0066902D01*
X0339336Y0066846D01*
X0339264Y0066793D01*
X0339190Y0066743D01*
X0339114Y0066697D01*
X0339036Y0066654D01*
X0338956Y0066615D01*
X0338874Y0066579D01*
X0338791Y0066547D01*
X0338707Y0066519D01*
X0338621Y0066494D01*
X0338534Y0066474D01*
X0338447Y0066457D01*
X0338358Y0066444D01*
X0338270Y0066435D01*
X0338181Y0066430D01*
X0338092Y0066429D01*
X0338003Y0066432D01*
X0337914Y0066439D01*
X0337825Y0066450D01*
X0337737Y0066465D01*
X0337650Y0066483D01*
X0337564Y0066506D01*
X0337479Y0066532D01*
X0337395Y0066563D01*
X0337313Y0066597D01*
X0337232Y0066634D01*
X0337153Y0066675D01*
X0337076Y0066720D01*
X0337001Y0066768D01*
X0336928Y0066819D01*
X0336857Y0066873D01*
X0336789Y0066931D01*
X0336724Y0066991D01*
X0336661Y0067055D01*
X0336601Y0067121D01*
X0336544Y0067190D01*
X0336491Y0067261D01*
X0336440Y0067334D01*
X0336393Y0067410D01*
X0336350Y0067487D01*
X0336309Y0067567D01*
X0336273Y0067648D01*
X0336240Y0067731D01*
X0336211Y0067815D01*
X0336185Y0067901D01*
X0336163Y0067987D01*
X0336146Y0068074D01*
X0336132Y0068162D01*
X0336122Y0068251D01*
X0336116Y0068340D01*
X0336114Y0068429D01*
X0355799Y0068429D02*
X0355801Y0068518D01*
X0355807Y0068607D01*
X0355817Y0068696D01*
X0355831Y0068784D01*
X0355848Y0068871D01*
X0355870Y0068957D01*
X0355896Y0069043D01*
X0355925Y0069127D01*
X0355958Y0069210D01*
X0355994Y0069291D01*
X0356035Y0069371D01*
X0356078Y0069448D01*
X0356125Y0069524D01*
X0356176Y0069597D01*
X0356229Y0069668D01*
X0356286Y0069737D01*
X0356346Y0069803D01*
X0356409Y0069867D01*
X0356474Y0069927D01*
X0356542Y0069985D01*
X0356613Y0070039D01*
X0356686Y0070090D01*
X0356761Y0070138D01*
X0356838Y0070183D01*
X0356917Y0070224D01*
X0356998Y0070261D01*
X0357080Y0070295D01*
X0357164Y0070326D01*
X0357249Y0070352D01*
X0357335Y0070375D01*
X0357422Y0070393D01*
X0357510Y0070408D01*
X0357599Y0070419D01*
X0357688Y0070426D01*
X0357777Y0070429D01*
X0357866Y0070428D01*
X0357955Y0070423D01*
X0358043Y0070414D01*
X0358132Y0070401D01*
X0358219Y0070384D01*
X0358306Y0070364D01*
X0358392Y0070339D01*
X0358476Y0070311D01*
X0358559Y0070279D01*
X0358641Y0070243D01*
X0358721Y0070204D01*
X0358799Y0070161D01*
X0358875Y0070115D01*
X0358949Y0070065D01*
X0359021Y0070012D01*
X0359090Y0069956D01*
X0359157Y0069897D01*
X0359221Y0069835D01*
X0359282Y0069771D01*
X0359341Y0069703D01*
X0359396Y0069633D01*
X0359448Y0069561D01*
X0359497Y0069486D01*
X0359542Y0069410D01*
X0359584Y0069331D01*
X0359622Y0069251D01*
X0359657Y0069169D01*
X0359688Y0069085D01*
X0359716Y0069000D01*
X0359739Y0068914D01*
X0359759Y0068827D01*
X0359775Y0068740D01*
X0359787Y0068651D01*
X0359795Y0068563D01*
X0359799Y0068474D01*
X0359799Y0068384D01*
X0359795Y0068295D01*
X0359787Y0068207D01*
X0359775Y0068118D01*
X0359759Y0068031D01*
X0359739Y0067944D01*
X0359716Y0067858D01*
X0359688Y0067773D01*
X0359657Y0067689D01*
X0359622Y0067607D01*
X0359584Y0067527D01*
X0359542Y0067448D01*
X0359497Y0067372D01*
X0359448Y0067297D01*
X0359396Y0067225D01*
X0359341Y0067155D01*
X0359282Y0067087D01*
X0359221Y0067023D01*
X0359157Y0066961D01*
X0359090Y0066902D01*
X0359021Y0066846D01*
X0358949Y0066793D01*
X0358875Y0066743D01*
X0358799Y0066697D01*
X0358721Y0066654D01*
X0358641Y0066615D01*
X0358559Y0066579D01*
X0358476Y0066547D01*
X0358392Y0066519D01*
X0358306Y0066494D01*
X0358219Y0066474D01*
X0358132Y0066457D01*
X0358043Y0066444D01*
X0357955Y0066435D01*
X0357866Y0066430D01*
X0357777Y0066429D01*
X0357688Y0066432D01*
X0357599Y0066439D01*
X0357510Y0066450D01*
X0357422Y0066465D01*
X0357335Y0066483D01*
X0357249Y0066506D01*
X0357164Y0066532D01*
X0357080Y0066563D01*
X0356998Y0066597D01*
X0356917Y0066634D01*
X0356838Y0066675D01*
X0356761Y0066720D01*
X0356686Y0066768D01*
X0356613Y0066819D01*
X0356542Y0066873D01*
X0356474Y0066931D01*
X0356409Y0066991D01*
X0356346Y0067055D01*
X0356286Y0067121D01*
X0356229Y0067190D01*
X0356176Y0067261D01*
X0356125Y0067334D01*
X0356078Y0067410D01*
X0356035Y0067487D01*
X0355994Y0067567D01*
X0355958Y0067648D01*
X0355925Y0067731D01*
X0355896Y0067815D01*
X0355870Y0067901D01*
X0355848Y0067987D01*
X0355831Y0068074D01*
X0355817Y0068162D01*
X0355807Y0068251D01*
X0355801Y0068340D01*
X0355799Y0068429D01*
X0367610Y0068429D02*
X0367612Y0068518D01*
X0367618Y0068607D01*
X0367628Y0068696D01*
X0367642Y0068784D01*
X0367659Y0068871D01*
X0367681Y0068957D01*
X0367707Y0069043D01*
X0367736Y0069127D01*
X0367769Y0069210D01*
X0367805Y0069291D01*
X0367846Y0069371D01*
X0367889Y0069448D01*
X0367936Y0069524D01*
X0367987Y0069597D01*
X0368040Y0069668D01*
X0368097Y0069737D01*
X0368157Y0069803D01*
X0368220Y0069867D01*
X0368285Y0069927D01*
X0368353Y0069985D01*
X0368424Y0070039D01*
X0368497Y0070090D01*
X0368572Y0070138D01*
X0368649Y0070183D01*
X0368728Y0070224D01*
X0368809Y0070261D01*
X0368891Y0070295D01*
X0368975Y0070326D01*
X0369060Y0070352D01*
X0369146Y0070375D01*
X0369233Y0070393D01*
X0369321Y0070408D01*
X0369410Y0070419D01*
X0369499Y0070426D01*
X0369588Y0070429D01*
X0369677Y0070428D01*
X0369766Y0070423D01*
X0369854Y0070414D01*
X0369943Y0070401D01*
X0370030Y0070384D01*
X0370117Y0070364D01*
X0370203Y0070339D01*
X0370287Y0070311D01*
X0370370Y0070279D01*
X0370452Y0070243D01*
X0370532Y0070204D01*
X0370610Y0070161D01*
X0370686Y0070115D01*
X0370760Y0070065D01*
X0370832Y0070012D01*
X0370901Y0069956D01*
X0370968Y0069897D01*
X0371032Y0069835D01*
X0371093Y0069771D01*
X0371152Y0069703D01*
X0371207Y0069633D01*
X0371259Y0069561D01*
X0371308Y0069486D01*
X0371353Y0069410D01*
X0371395Y0069331D01*
X0371433Y0069251D01*
X0371468Y0069169D01*
X0371499Y0069085D01*
X0371527Y0069000D01*
X0371550Y0068914D01*
X0371570Y0068827D01*
X0371586Y0068740D01*
X0371598Y0068651D01*
X0371606Y0068563D01*
X0371610Y0068474D01*
X0371610Y0068384D01*
X0371606Y0068295D01*
X0371598Y0068207D01*
X0371586Y0068118D01*
X0371570Y0068031D01*
X0371550Y0067944D01*
X0371527Y0067858D01*
X0371499Y0067773D01*
X0371468Y0067689D01*
X0371433Y0067607D01*
X0371395Y0067527D01*
X0371353Y0067448D01*
X0371308Y0067372D01*
X0371259Y0067297D01*
X0371207Y0067225D01*
X0371152Y0067155D01*
X0371093Y0067087D01*
X0371032Y0067023D01*
X0370968Y0066961D01*
X0370901Y0066902D01*
X0370832Y0066846D01*
X0370760Y0066793D01*
X0370686Y0066743D01*
X0370610Y0066697D01*
X0370532Y0066654D01*
X0370452Y0066615D01*
X0370370Y0066579D01*
X0370287Y0066547D01*
X0370203Y0066519D01*
X0370117Y0066494D01*
X0370030Y0066474D01*
X0369943Y0066457D01*
X0369854Y0066444D01*
X0369766Y0066435D01*
X0369677Y0066430D01*
X0369588Y0066429D01*
X0369499Y0066432D01*
X0369410Y0066439D01*
X0369321Y0066450D01*
X0369233Y0066465D01*
X0369146Y0066483D01*
X0369060Y0066506D01*
X0368975Y0066532D01*
X0368891Y0066563D01*
X0368809Y0066597D01*
X0368728Y0066634D01*
X0368649Y0066675D01*
X0368572Y0066720D01*
X0368497Y0066768D01*
X0368424Y0066819D01*
X0368353Y0066873D01*
X0368285Y0066931D01*
X0368220Y0066991D01*
X0368157Y0067055D01*
X0368097Y0067121D01*
X0368040Y0067190D01*
X0367987Y0067261D01*
X0367936Y0067334D01*
X0367889Y0067410D01*
X0367846Y0067487D01*
X0367805Y0067567D01*
X0367769Y0067648D01*
X0367736Y0067731D01*
X0367707Y0067815D01*
X0367681Y0067901D01*
X0367659Y0067987D01*
X0367642Y0068074D01*
X0367628Y0068162D01*
X0367618Y0068251D01*
X0367612Y0068340D01*
X0367610Y0068429D01*
X0387295Y0068429D02*
X0387297Y0068518D01*
X0387303Y0068607D01*
X0387313Y0068696D01*
X0387327Y0068784D01*
X0387344Y0068871D01*
X0387366Y0068957D01*
X0387392Y0069043D01*
X0387421Y0069127D01*
X0387454Y0069210D01*
X0387490Y0069291D01*
X0387531Y0069371D01*
X0387574Y0069448D01*
X0387621Y0069524D01*
X0387672Y0069597D01*
X0387725Y0069668D01*
X0387782Y0069737D01*
X0387842Y0069803D01*
X0387905Y0069867D01*
X0387970Y0069927D01*
X0388038Y0069985D01*
X0388109Y0070039D01*
X0388182Y0070090D01*
X0388257Y0070138D01*
X0388334Y0070183D01*
X0388413Y0070224D01*
X0388494Y0070261D01*
X0388576Y0070295D01*
X0388660Y0070326D01*
X0388745Y0070352D01*
X0388831Y0070375D01*
X0388918Y0070393D01*
X0389006Y0070408D01*
X0389095Y0070419D01*
X0389184Y0070426D01*
X0389273Y0070429D01*
X0389362Y0070428D01*
X0389451Y0070423D01*
X0389539Y0070414D01*
X0389628Y0070401D01*
X0389715Y0070384D01*
X0389802Y0070364D01*
X0389888Y0070339D01*
X0389972Y0070311D01*
X0390055Y0070279D01*
X0390137Y0070243D01*
X0390217Y0070204D01*
X0390295Y0070161D01*
X0390371Y0070115D01*
X0390445Y0070065D01*
X0390517Y0070012D01*
X0390586Y0069956D01*
X0390653Y0069897D01*
X0390717Y0069835D01*
X0390778Y0069771D01*
X0390837Y0069703D01*
X0390892Y0069633D01*
X0390944Y0069561D01*
X0390993Y0069486D01*
X0391038Y0069410D01*
X0391080Y0069331D01*
X0391118Y0069251D01*
X0391153Y0069169D01*
X0391184Y0069085D01*
X0391212Y0069000D01*
X0391235Y0068914D01*
X0391255Y0068827D01*
X0391271Y0068740D01*
X0391283Y0068651D01*
X0391291Y0068563D01*
X0391295Y0068474D01*
X0391295Y0068384D01*
X0391291Y0068295D01*
X0391283Y0068207D01*
X0391271Y0068118D01*
X0391255Y0068031D01*
X0391235Y0067944D01*
X0391212Y0067858D01*
X0391184Y0067773D01*
X0391153Y0067689D01*
X0391118Y0067607D01*
X0391080Y0067527D01*
X0391038Y0067448D01*
X0390993Y0067372D01*
X0390944Y0067297D01*
X0390892Y0067225D01*
X0390837Y0067155D01*
X0390778Y0067087D01*
X0390717Y0067023D01*
X0390653Y0066961D01*
X0390586Y0066902D01*
X0390517Y0066846D01*
X0390445Y0066793D01*
X0390371Y0066743D01*
X0390295Y0066697D01*
X0390217Y0066654D01*
X0390137Y0066615D01*
X0390055Y0066579D01*
X0389972Y0066547D01*
X0389888Y0066519D01*
X0389802Y0066494D01*
X0389715Y0066474D01*
X0389628Y0066457D01*
X0389539Y0066444D01*
X0389451Y0066435D01*
X0389362Y0066430D01*
X0389273Y0066429D01*
X0389184Y0066432D01*
X0389095Y0066439D01*
X0389006Y0066450D01*
X0388918Y0066465D01*
X0388831Y0066483D01*
X0388745Y0066506D01*
X0388660Y0066532D01*
X0388576Y0066563D01*
X0388494Y0066597D01*
X0388413Y0066634D01*
X0388334Y0066675D01*
X0388257Y0066720D01*
X0388182Y0066768D01*
X0388109Y0066819D01*
X0388038Y0066873D01*
X0387970Y0066931D01*
X0387905Y0066991D01*
X0387842Y0067055D01*
X0387782Y0067121D01*
X0387725Y0067190D01*
X0387672Y0067261D01*
X0387621Y0067334D01*
X0387574Y0067410D01*
X0387531Y0067487D01*
X0387490Y0067567D01*
X0387454Y0067648D01*
X0387421Y0067731D01*
X0387392Y0067815D01*
X0387366Y0067901D01*
X0387344Y0067987D01*
X0387327Y0068074D01*
X0387313Y0068162D01*
X0387303Y0068251D01*
X0387297Y0068340D01*
X0387295Y0068429D01*
X0399106Y0068429D02*
X0399108Y0068518D01*
X0399114Y0068607D01*
X0399124Y0068696D01*
X0399138Y0068784D01*
X0399155Y0068871D01*
X0399177Y0068957D01*
X0399203Y0069043D01*
X0399232Y0069127D01*
X0399265Y0069210D01*
X0399301Y0069291D01*
X0399342Y0069371D01*
X0399385Y0069448D01*
X0399432Y0069524D01*
X0399483Y0069597D01*
X0399536Y0069668D01*
X0399593Y0069737D01*
X0399653Y0069803D01*
X0399716Y0069867D01*
X0399781Y0069927D01*
X0399849Y0069985D01*
X0399920Y0070039D01*
X0399993Y0070090D01*
X0400068Y0070138D01*
X0400145Y0070183D01*
X0400224Y0070224D01*
X0400305Y0070261D01*
X0400387Y0070295D01*
X0400471Y0070326D01*
X0400556Y0070352D01*
X0400642Y0070375D01*
X0400729Y0070393D01*
X0400817Y0070408D01*
X0400906Y0070419D01*
X0400995Y0070426D01*
X0401084Y0070429D01*
X0401173Y0070428D01*
X0401262Y0070423D01*
X0401350Y0070414D01*
X0401439Y0070401D01*
X0401526Y0070384D01*
X0401613Y0070364D01*
X0401699Y0070339D01*
X0401783Y0070311D01*
X0401866Y0070279D01*
X0401948Y0070243D01*
X0402028Y0070204D01*
X0402106Y0070161D01*
X0402182Y0070115D01*
X0402256Y0070065D01*
X0402328Y0070012D01*
X0402397Y0069956D01*
X0402464Y0069897D01*
X0402528Y0069835D01*
X0402589Y0069771D01*
X0402648Y0069703D01*
X0402703Y0069633D01*
X0402755Y0069561D01*
X0402804Y0069486D01*
X0402849Y0069410D01*
X0402891Y0069331D01*
X0402929Y0069251D01*
X0402964Y0069169D01*
X0402995Y0069085D01*
X0403023Y0069000D01*
X0403046Y0068914D01*
X0403066Y0068827D01*
X0403082Y0068740D01*
X0403094Y0068651D01*
X0403102Y0068563D01*
X0403106Y0068474D01*
X0403106Y0068384D01*
X0403102Y0068295D01*
X0403094Y0068207D01*
X0403082Y0068118D01*
X0403066Y0068031D01*
X0403046Y0067944D01*
X0403023Y0067858D01*
X0402995Y0067773D01*
X0402964Y0067689D01*
X0402929Y0067607D01*
X0402891Y0067527D01*
X0402849Y0067448D01*
X0402804Y0067372D01*
X0402755Y0067297D01*
X0402703Y0067225D01*
X0402648Y0067155D01*
X0402589Y0067087D01*
X0402528Y0067023D01*
X0402464Y0066961D01*
X0402397Y0066902D01*
X0402328Y0066846D01*
X0402256Y0066793D01*
X0402182Y0066743D01*
X0402106Y0066697D01*
X0402028Y0066654D01*
X0401948Y0066615D01*
X0401866Y0066579D01*
X0401783Y0066547D01*
X0401699Y0066519D01*
X0401613Y0066494D01*
X0401526Y0066474D01*
X0401439Y0066457D01*
X0401350Y0066444D01*
X0401262Y0066435D01*
X0401173Y0066430D01*
X0401084Y0066429D01*
X0400995Y0066432D01*
X0400906Y0066439D01*
X0400817Y0066450D01*
X0400729Y0066465D01*
X0400642Y0066483D01*
X0400556Y0066506D01*
X0400471Y0066532D01*
X0400387Y0066563D01*
X0400305Y0066597D01*
X0400224Y0066634D01*
X0400145Y0066675D01*
X0400068Y0066720D01*
X0399993Y0066768D01*
X0399920Y0066819D01*
X0399849Y0066873D01*
X0399781Y0066931D01*
X0399716Y0066991D01*
X0399653Y0067055D01*
X0399593Y0067121D01*
X0399536Y0067190D01*
X0399483Y0067261D01*
X0399432Y0067334D01*
X0399385Y0067410D01*
X0399342Y0067487D01*
X0399301Y0067567D01*
X0399265Y0067648D01*
X0399232Y0067731D01*
X0399203Y0067815D01*
X0399177Y0067901D01*
X0399155Y0067987D01*
X0399138Y0068074D01*
X0399124Y0068162D01*
X0399114Y0068251D01*
X0399108Y0068340D01*
X0399106Y0068429D01*
X0111705Y0229846D02*
X0111707Y0229935D01*
X0111713Y0230024D01*
X0111723Y0230113D01*
X0111737Y0230201D01*
X0111754Y0230288D01*
X0111776Y0230374D01*
X0111802Y0230460D01*
X0111831Y0230544D01*
X0111864Y0230627D01*
X0111900Y0230708D01*
X0111941Y0230788D01*
X0111984Y0230865D01*
X0112031Y0230941D01*
X0112082Y0231014D01*
X0112135Y0231085D01*
X0112192Y0231154D01*
X0112252Y0231220D01*
X0112315Y0231284D01*
X0112380Y0231344D01*
X0112448Y0231402D01*
X0112519Y0231456D01*
X0112592Y0231507D01*
X0112667Y0231555D01*
X0112744Y0231600D01*
X0112823Y0231641D01*
X0112904Y0231678D01*
X0112986Y0231712D01*
X0113070Y0231743D01*
X0113155Y0231769D01*
X0113241Y0231792D01*
X0113328Y0231810D01*
X0113416Y0231825D01*
X0113505Y0231836D01*
X0113594Y0231843D01*
X0113683Y0231846D01*
X0113772Y0231845D01*
X0113861Y0231840D01*
X0113949Y0231831D01*
X0114038Y0231818D01*
X0114125Y0231801D01*
X0114212Y0231781D01*
X0114298Y0231756D01*
X0114382Y0231728D01*
X0114465Y0231696D01*
X0114547Y0231660D01*
X0114627Y0231621D01*
X0114705Y0231578D01*
X0114781Y0231532D01*
X0114855Y0231482D01*
X0114927Y0231429D01*
X0114996Y0231373D01*
X0115063Y0231314D01*
X0115127Y0231252D01*
X0115188Y0231188D01*
X0115247Y0231120D01*
X0115302Y0231050D01*
X0115354Y0230978D01*
X0115403Y0230903D01*
X0115448Y0230827D01*
X0115490Y0230748D01*
X0115528Y0230668D01*
X0115563Y0230586D01*
X0115594Y0230502D01*
X0115622Y0230417D01*
X0115645Y0230331D01*
X0115665Y0230244D01*
X0115681Y0230157D01*
X0115693Y0230068D01*
X0115701Y0229980D01*
X0115705Y0229891D01*
X0115705Y0229801D01*
X0115701Y0229712D01*
X0115693Y0229624D01*
X0115681Y0229535D01*
X0115665Y0229448D01*
X0115645Y0229361D01*
X0115622Y0229275D01*
X0115594Y0229190D01*
X0115563Y0229106D01*
X0115528Y0229024D01*
X0115490Y0228944D01*
X0115448Y0228865D01*
X0115403Y0228789D01*
X0115354Y0228714D01*
X0115302Y0228642D01*
X0115247Y0228572D01*
X0115188Y0228504D01*
X0115127Y0228440D01*
X0115063Y0228378D01*
X0114996Y0228319D01*
X0114927Y0228263D01*
X0114855Y0228210D01*
X0114781Y0228160D01*
X0114705Y0228114D01*
X0114627Y0228071D01*
X0114547Y0228032D01*
X0114465Y0227996D01*
X0114382Y0227964D01*
X0114298Y0227936D01*
X0114212Y0227911D01*
X0114125Y0227891D01*
X0114038Y0227874D01*
X0113949Y0227861D01*
X0113861Y0227852D01*
X0113772Y0227847D01*
X0113683Y0227846D01*
X0113594Y0227849D01*
X0113505Y0227856D01*
X0113416Y0227867D01*
X0113328Y0227882D01*
X0113241Y0227900D01*
X0113155Y0227923D01*
X0113070Y0227949D01*
X0112986Y0227980D01*
X0112904Y0228014D01*
X0112823Y0228051D01*
X0112744Y0228092D01*
X0112667Y0228137D01*
X0112592Y0228185D01*
X0112519Y0228236D01*
X0112448Y0228290D01*
X0112380Y0228348D01*
X0112315Y0228408D01*
X0112252Y0228472D01*
X0112192Y0228538D01*
X0112135Y0228607D01*
X0112082Y0228678D01*
X0112031Y0228751D01*
X0111984Y0228827D01*
X0111941Y0228904D01*
X0111900Y0228984D01*
X0111864Y0229065D01*
X0111831Y0229148D01*
X0111802Y0229232D01*
X0111776Y0229318D01*
X0111754Y0229404D01*
X0111737Y0229491D01*
X0111723Y0229579D01*
X0111713Y0229668D01*
X0111707Y0229757D01*
X0111705Y0229846D01*
X0092020Y0229846D02*
X0092022Y0229935D01*
X0092028Y0230024D01*
X0092038Y0230113D01*
X0092052Y0230201D01*
X0092069Y0230288D01*
X0092091Y0230374D01*
X0092117Y0230460D01*
X0092146Y0230544D01*
X0092179Y0230627D01*
X0092215Y0230708D01*
X0092256Y0230788D01*
X0092299Y0230865D01*
X0092346Y0230941D01*
X0092397Y0231014D01*
X0092450Y0231085D01*
X0092507Y0231154D01*
X0092567Y0231220D01*
X0092630Y0231284D01*
X0092695Y0231344D01*
X0092763Y0231402D01*
X0092834Y0231456D01*
X0092907Y0231507D01*
X0092982Y0231555D01*
X0093059Y0231600D01*
X0093138Y0231641D01*
X0093219Y0231678D01*
X0093301Y0231712D01*
X0093385Y0231743D01*
X0093470Y0231769D01*
X0093556Y0231792D01*
X0093643Y0231810D01*
X0093731Y0231825D01*
X0093820Y0231836D01*
X0093909Y0231843D01*
X0093998Y0231846D01*
X0094087Y0231845D01*
X0094176Y0231840D01*
X0094264Y0231831D01*
X0094353Y0231818D01*
X0094440Y0231801D01*
X0094527Y0231781D01*
X0094613Y0231756D01*
X0094697Y0231728D01*
X0094780Y0231696D01*
X0094862Y0231660D01*
X0094942Y0231621D01*
X0095020Y0231578D01*
X0095096Y0231532D01*
X0095170Y0231482D01*
X0095242Y0231429D01*
X0095311Y0231373D01*
X0095378Y0231314D01*
X0095442Y0231252D01*
X0095503Y0231188D01*
X0095562Y0231120D01*
X0095617Y0231050D01*
X0095669Y0230978D01*
X0095718Y0230903D01*
X0095763Y0230827D01*
X0095805Y0230748D01*
X0095843Y0230668D01*
X0095878Y0230586D01*
X0095909Y0230502D01*
X0095937Y0230417D01*
X0095960Y0230331D01*
X0095980Y0230244D01*
X0095996Y0230157D01*
X0096008Y0230068D01*
X0096016Y0229980D01*
X0096020Y0229891D01*
X0096020Y0229801D01*
X0096016Y0229712D01*
X0096008Y0229624D01*
X0095996Y0229535D01*
X0095980Y0229448D01*
X0095960Y0229361D01*
X0095937Y0229275D01*
X0095909Y0229190D01*
X0095878Y0229106D01*
X0095843Y0229024D01*
X0095805Y0228944D01*
X0095763Y0228865D01*
X0095718Y0228789D01*
X0095669Y0228714D01*
X0095617Y0228642D01*
X0095562Y0228572D01*
X0095503Y0228504D01*
X0095442Y0228440D01*
X0095378Y0228378D01*
X0095311Y0228319D01*
X0095242Y0228263D01*
X0095170Y0228210D01*
X0095096Y0228160D01*
X0095020Y0228114D01*
X0094942Y0228071D01*
X0094862Y0228032D01*
X0094780Y0227996D01*
X0094697Y0227964D01*
X0094613Y0227936D01*
X0094527Y0227911D01*
X0094440Y0227891D01*
X0094353Y0227874D01*
X0094264Y0227861D01*
X0094176Y0227852D01*
X0094087Y0227847D01*
X0093998Y0227846D01*
X0093909Y0227849D01*
X0093820Y0227856D01*
X0093731Y0227867D01*
X0093643Y0227882D01*
X0093556Y0227900D01*
X0093470Y0227923D01*
X0093385Y0227949D01*
X0093301Y0227980D01*
X0093219Y0228014D01*
X0093138Y0228051D01*
X0093059Y0228092D01*
X0092982Y0228137D01*
X0092907Y0228185D01*
X0092834Y0228236D01*
X0092763Y0228290D01*
X0092695Y0228348D01*
X0092630Y0228408D01*
X0092567Y0228472D01*
X0092507Y0228538D01*
X0092450Y0228607D01*
X0092397Y0228678D01*
X0092346Y0228751D01*
X0092299Y0228827D01*
X0092256Y0228904D01*
X0092215Y0228984D01*
X0092179Y0229065D01*
X0092146Y0229148D01*
X0092117Y0229232D01*
X0092091Y0229318D01*
X0092069Y0229404D01*
X0092052Y0229491D01*
X0092038Y0229579D01*
X0092028Y0229668D01*
X0092022Y0229757D01*
X0092020Y0229846D01*
X0092020Y0257406D02*
X0092022Y0257495D01*
X0092028Y0257584D01*
X0092038Y0257673D01*
X0092052Y0257761D01*
X0092069Y0257848D01*
X0092091Y0257934D01*
X0092117Y0258020D01*
X0092146Y0258104D01*
X0092179Y0258187D01*
X0092215Y0258268D01*
X0092256Y0258348D01*
X0092299Y0258425D01*
X0092346Y0258501D01*
X0092397Y0258574D01*
X0092450Y0258645D01*
X0092507Y0258714D01*
X0092567Y0258780D01*
X0092630Y0258844D01*
X0092695Y0258904D01*
X0092763Y0258962D01*
X0092834Y0259016D01*
X0092907Y0259067D01*
X0092982Y0259115D01*
X0093059Y0259160D01*
X0093138Y0259201D01*
X0093219Y0259238D01*
X0093301Y0259272D01*
X0093385Y0259303D01*
X0093470Y0259329D01*
X0093556Y0259352D01*
X0093643Y0259370D01*
X0093731Y0259385D01*
X0093820Y0259396D01*
X0093909Y0259403D01*
X0093998Y0259406D01*
X0094087Y0259405D01*
X0094176Y0259400D01*
X0094264Y0259391D01*
X0094353Y0259378D01*
X0094440Y0259361D01*
X0094527Y0259341D01*
X0094613Y0259316D01*
X0094697Y0259288D01*
X0094780Y0259256D01*
X0094862Y0259220D01*
X0094942Y0259181D01*
X0095020Y0259138D01*
X0095096Y0259092D01*
X0095170Y0259042D01*
X0095242Y0258989D01*
X0095311Y0258933D01*
X0095378Y0258874D01*
X0095442Y0258812D01*
X0095503Y0258748D01*
X0095562Y0258680D01*
X0095617Y0258610D01*
X0095669Y0258538D01*
X0095718Y0258463D01*
X0095763Y0258387D01*
X0095805Y0258308D01*
X0095843Y0258228D01*
X0095878Y0258146D01*
X0095909Y0258062D01*
X0095937Y0257977D01*
X0095960Y0257891D01*
X0095980Y0257804D01*
X0095996Y0257717D01*
X0096008Y0257628D01*
X0096016Y0257540D01*
X0096020Y0257451D01*
X0096020Y0257361D01*
X0096016Y0257272D01*
X0096008Y0257184D01*
X0095996Y0257095D01*
X0095980Y0257008D01*
X0095960Y0256921D01*
X0095937Y0256835D01*
X0095909Y0256750D01*
X0095878Y0256666D01*
X0095843Y0256584D01*
X0095805Y0256504D01*
X0095763Y0256425D01*
X0095718Y0256349D01*
X0095669Y0256274D01*
X0095617Y0256202D01*
X0095562Y0256132D01*
X0095503Y0256064D01*
X0095442Y0256000D01*
X0095378Y0255938D01*
X0095311Y0255879D01*
X0095242Y0255823D01*
X0095170Y0255770D01*
X0095096Y0255720D01*
X0095020Y0255674D01*
X0094942Y0255631D01*
X0094862Y0255592D01*
X0094780Y0255556D01*
X0094697Y0255524D01*
X0094613Y0255496D01*
X0094527Y0255471D01*
X0094440Y0255451D01*
X0094353Y0255434D01*
X0094264Y0255421D01*
X0094176Y0255412D01*
X0094087Y0255407D01*
X0093998Y0255406D01*
X0093909Y0255409D01*
X0093820Y0255416D01*
X0093731Y0255427D01*
X0093643Y0255442D01*
X0093556Y0255460D01*
X0093470Y0255483D01*
X0093385Y0255509D01*
X0093301Y0255540D01*
X0093219Y0255574D01*
X0093138Y0255611D01*
X0093059Y0255652D01*
X0092982Y0255697D01*
X0092907Y0255745D01*
X0092834Y0255796D01*
X0092763Y0255850D01*
X0092695Y0255908D01*
X0092630Y0255968D01*
X0092567Y0256032D01*
X0092507Y0256098D01*
X0092450Y0256167D01*
X0092397Y0256238D01*
X0092346Y0256311D01*
X0092299Y0256387D01*
X0092256Y0256464D01*
X0092215Y0256544D01*
X0092179Y0256625D01*
X0092146Y0256708D01*
X0092117Y0256792D01*
X0092091Y0256878D01*
X0092069Y0256964D01*
X0092052Y0257051D01*
X0092038Y0257139D01*
X0092028Y0257228D01*
X0092022Y0257317D01*
X0092020Y0257406D01*
X0111705Y0257406D02*
X0111707Y0257495D01*
X0111713Y0257584D01*
X0111723Y0257673D01*
X0111737Y0257761D01*
X0111754Y0257848D01*
X0111776Y0257934D01*
X0111802Y0258020D01*
X0111831Y0258104D01*
X0111864Y0258187D01*
X0111900Y0258268D01*
X0111941Y0258348D01*
X0111984Y0258425D01*
X0112031Y0258501D01*
X0112082Y0258574D01*
X0112135Y0258645D01*
X0112192Y0258714D01*
X0112252Y0258780D01*
X0112315Y0258844D01*
X0112380Y0258904D01*
X0112448Y0258962D01*
X0112519Y0259016D01*
X0112592Y0259067D01*
X0112667Y0259115D01*
X0112744Y0259160D01*
X0112823Y0259201D01*
X0112904Y0259238D01*
X0112986Y0259272D01*
X0113070Y0259303D01*
X0113155Y0259329D01*
X0113241Y0259352D01*
X0113328Y0259370D01*
X0113416Y0259385D01*
X0113505Y0259396D01*
X0113594Y0259403D01*
X0113683Y0259406D01*
X0113772Y0259405D01*
X0113861Y0259400D01*
X0113949Y0259391D01*
X0114038Y0259378D01*
X0114125Y0259361D01*
X0114212Y0259341D01*
X0114298Y0259316D01*
X0114382Y0259288D01*
X0114465Y0259256D01*
X0114547Y0259220D01*
X0114627Y0259181D01*
X0114705Y0259138D01*
X0114781Y0259092D01*
X0114855Y0259042D01*
X0114927Y0258989D01*
X0114996Y0258933D01*
X0115063Y0258874D01*
X0115127Y0258812D01*
X0115188Y0258748D01*
X0115247Y0258680D01*
X0115302Y0258610D01*
X0115354Y0258538D01*
X0115403Y0258463D01*
X0115448Y0258387D01*
X0115490Y0258308D01*
X0115528Y0258228D01*
X0115563Y0258146D01*
X0115594Y0258062D01*
X0115622Y0257977D01*
X0115645Y0257891D01*
X0115665Y0257804D01*
X0115681Y0257717D01*
X0115693Y0257628D01*
X0115701Y0257540D01*
X0115705Y0257451D01*
X0115705Y0257361D01*
X0115701Y0257272D01*
X0115693Y0257184D01*
X0115681Y0257095D01*
X0115665Y0257008D01*
X0115645Y0256921D01*
X0115622Y0256835D01*
X0115594Y0256750D01*
X0115563Y0256666D01*
X0115528Y0256584D01*
X0115490Y0256504D01*
X0115448Y0256425D01*
X0115403Y0256349D01*
X0115354Y0256274D01*
X0115302Y0256202D01*
X0115247Y0256132D01*
X0115188Y0256064D01*
X0115127Y0256000D01*
X0115063Y0255938D01*
X0114996Y0255879D01*
X0114927Y0255823D01*
X0114855Y0255770D01*
X0114781Y0255720D01*
X0114705Y0255674D01*
X0114627Y0255631D01*
X0114547Y0255592D01*
X0114465Y0255556D01*
X0114382Y0255524D01*
X0114298Y0255496D01*
X0114212Y0255471D01*
X0114125Y0255451D01*
X0114038Y0255434D01*
X0113949Y0255421D01*
X0113861Y0255412D01*
X0113772Y0255407D01*
X0113683Y0255406D01*
X0113594Y0255409D01*
X0113505Y0255416D01*
X0113416Y0255427D01*
X0113328Y0255442D01*
X0113241Y0255460D01*
X0113155Y0255483D01*
X0113070Y0255509D01*
X0112986Y0255540D01*
X0112904Y0255574D01*
X0112823Y0255611D01*
X0112744Y0255652D01*
X0112667Y0255697D01*
X0112592Y0255745D01*
X0112519Y0255796D01*
X0112448Y0255850D01*
X0112380Y0255908D01*
X0112315Y0255968D01*
X0112252Y0256032D01*
X0112192Y0256098D01*
X0112135Y0256167D01*
X0112082Y0256238D01*
X0112031Y0256311D01*
X0111984Y0256387D01*
X0111941Y0256464D01*
X0111900Y0256544D01*
X0111864Y0256625D01*
X0111831Y0256708D01*
X0111802Y0256792D01*
X0111776Y0256878D01*
X0111754Y0256964D01*
X0111737Y0257051D01*
X0111723Y0257139D01*
X0111713Y0257228D01*
X0111707Y0257317D01*
X0111705Y0257406D01*
M02*
