G75*
%MOIN*%
%OFA0B0*%
%FSLAX25Y25*%
%IPPOS*%
%LPD*%
%AMOC8*
5,1,8,0,0,1.08239X$1,22.5*
%
%ADD10C,0.06000*%
%ADD11C,0.05200*%
%ADD12R,0.09449X0.11024*%
%ADD13R,0.05906X0.05118*%
%ADD14R,0.05512X0.07087*%
%ADD15R,0.07087X0.05512*%
%ADD16R,0.06299X0.09449*%
%ADD17R,0.09449X0.06299*%
%ADD18R,0.05118X0.05906*%
%ADD19R,0.11024X0.09449*%
%ADD20C,0.08661*%
%ADD21C,0.11811*%
%ADD22C,0.09000*%
%ADD23R,0.01772X0.07087*%
%ADD24C,0.05200*%
%ADD25C,0.05937*%
%ADD26R,0.02600X0.08000*%
%ADD27C,0.13780*%
%ADD28OC8,0.05600*%
%ADD29C,0.05600*%
%ADD30R,0.05000X0.05000*%
%ADD31R,0.07500X0.05000*%
%ADD32R,0.05000X0.07500*%
%ADD33R,0.08661X0.06299*%
%ADD34C,0.03937*%
%ADD35C,0.01969*%
%ADD36R,0.03962X0.03962*%
%ADD37C,0.03962*%
%ADD38C,0.02756*%
%ADD39C,0.01600*%
D10*
X0156854Y0090862D02*
X0156854Y0096862D01*
X0163854Y0113862D02*
X0169854Y0113862D01*
X0176854Y0096862D02*
X0176854Y0090862D01*
X0243469Y0090862D02*
X0243469Y0096862D01*
X0250469Y0113862D02*
X0256469Y0113862D01*
X0263469Y0096862D02*
X0263469Y0090862D01*
X0263469Y0138106D02*
X0263469Y0144106D01*
X0243469Y0144106D02*
X0243469Y0138106D01*
X0250469Y0161106D02*
X0256469Y0161106D01*
X0263469Y0185350D02*
X0263469Y0191350D01*
X0256469Y0208350D02*
X0250469Y0208350D01*
X0243469Y0191350D02*
X0243469Y0185350D01*
X0268272Y0020248D02*
X0268272Y0014248D01*
X0278272Y0014248D02*
X0278272Y0020248D01*
X0288272Y0020248D02*
X0288272Y0014248D01*
X0298272Y0014248D02*
X0298272Y0020248D01*
X0308272Y0020248D02*
X0308272Y0014248D01*
X0318272Y0014248D02*
X0318272Y0020248D01*
X0328272Y0020248D02*
X0328272Y0014248D01*
X0338272Y0014248D02*
X0338272Y0020248D01*
X0348272Y0020248D02*
X0348272Y0014248D01*
X0358272Y0014248D02*
X0358272Y0020248D01*
X0368272Y0020248D02*
X0368272Y0014248D01*
X0378272Y0014248D02*
X0378272Y0020248D01*
X0388272Y0020248D02*
X0388272Y0014248D01*
D11*
X0396538Y0101736D02*
X0401738Y0101736D01*
X0401738Y0111736D02*
X0396538Y0111736D01*
X0396538Y0121736D02*
X0401738Y0121736D01*
X0370242Y0121736D02*
X0365042Y0121736D01*
X0365042Y0111736D02*
X0370242Y0111736D01*
X0370242Y0101736D02*
X0365042Y0101736D01*
X0338746Y0101736D02*
X0333546Y0101736D01*
X0333546Y0111736D02*
X0338746Y0111736D01*
X0338746Y0121736D02*
X0333546Y0121736D01*
X0204887Y0113862D02*
X0199687Y0113862D01*
X0199687Y0103862D02*
X0204887Y0103862D01*
X0204887Y0093862D02*
X0199687Y0093862D01*
D12*
X0296185Y0186539D03*
X0320988Y0186539D03*
X0320988Y0210161D03*
X0296185Y0210161D03*
X0202878Y0257406D03*
X0178075Y0257406D03*
X0116264Y0257406D03*
X0091461Y0257406D03*
X0091461Y0229846D03*
X0116264Y0229846D03*
D13*
X0080240Y0209965D03*
X0080240Y0202484D03*
X0080240Y0170594D03*
X0080240Y0163114D03*
X0092051Y0123350D03*
X0092051Y0115870D03*
X0119610Y0087917D03*
X0119610Y0080437D03*
X0092051Y0062327D03*
X0092051Y0054846D03*
X0021185Y0054846D03*
X0021185Y0062327D03*
X0021185Y0115870D03*
X0021185Y0123350D03*
X0017248Y0139492D03*
X0017248Y0146972D03*
X0017248Y0163114D03*
X0017248Y0170594D03*
X0017248Y0202484D03*
X0017248Y0209965D03*
X0155043Y0143035D03*
X0155043Y0135555D03*
X0194413Y0135555D03*
X0194413Y0143035D03*
X0229846Y0155240D03*
X0229846Y0162720D03*
X0206224Y0182799D03*
X0206224Y0190280D03*
X0190476Y0190280D03*
X0190476Y0182799D03*
X0229846Y0202484D03*
X0229846Y0209965D03*
X0296776Y0166657D03*
X0296776Y0159177D03*
X0316461Y0159177D03*
X0316461Y0166657D03*
X0316461Y0143035D03*
X0316461Y0135555D03*
X0296776Y0135555D03*
X0296776Y0143035D03*
X0296776Y0119413D03*
X0296776Y0111933D03*
X0296776Y0095791D03*
X0296776Y0088311D03*
X0296776Y0068232D03*
X0296776Y0060752D03*
X0229846Y0107996D03*
X0229846Y0115476D03*
X0214098Y0068232D03*
X0214098Y0060752D03*
X0340083Y0135555D03*
X0340083Y0143035D03*
X0359768Y0143035D03*
X0359768Y0135555D03*
X0379453Y0135555D03*
X0379453Y0143035D03*
X0399138Y0143035D03*
X0399138Y0135555D03*
X0399138Y0159177D03*
X0399138Y0166657D03*
X0399138Y0178862D03*
X0399138Y0186343D03*
X0379453Y0056421D03*
X0379453Y0048941D03*
D14*
X0388508Y0088114D03*
X0401894Y0088114D03*
X0370398Y0088114D03*
X0357012Y0088114D03*
X0338902Y0088114D03*
X0325516Y0088114D03*
D15*
X0119610Y0105043D03*
X0119610Y0118429D03*
D16*
X0153075Y0214098D03*
X0164886Y0214098D03*
X0164886Y0237720D03*
X0153075Y0237720D03*
X0326303Y0068429D03*
X0338114Y0068429D03*
X0357799Y0068429D03*
X0369610Y0068429D03*
X0389295Y0068429D03*
X0401106Y0068429D03*
D17*
X0174728Y0133390D03*
X0174728Y0145201D03*
X0119610Y0066461D03*
X0119610Y0054650D03*
D18*
X0163114Y0080240D03*
X0170594Y0080240D03*
X0198547Y0080240D03*
X0206028Y0080240D03*
X0139098Y0214098D03*
X0131618Y0214098D03*
X0131618Y0237720D03*
X0139098Y0237720D03*
X0139098Y0261343D03*
X0131618Y0261343D03*
X0155240Y0261343D03*
X0162720Y0261343D03*
D19*
X0347957Y0183193D03*
X0375516Y0183193D03*
X0375516Y0158390D03*
X0347957Y0158390D03*
X0273154Y0076894D03*
X0273154Y0052091D03*
X0237720Y0052091D03*
X0237720Y0076894D03*
D20*
X0216067Y0233075D02*
X0216067Y0241736D01*
X0237720Y0268508D02*
X0237720Y0277169D01*
X0259374Y0241736D02*
X0259374Y0233075D01*
X0279059Y0233075D02*
X0279059Y0241736D01*
X0300713Y0268508D02*
X0300713Y0277169D01*
X0322366Y0241736D02*
X0322366Y0233075D01*
D21*
X0300713Y0243311D03*
X0237720Y0243311D03*
D22*
X0348193Y0223547D03*
X0357917Y0213587D03*
X0348193Y0203547D03*
X0377642Y0203508D03*
X0397287Y0213626D03*
X0407287Y0223547D03*
X0407287Y0203547D03*
X0377642Y0223508D03*
X0397287Y0262847D03*
X0357878Y0262847D03*
D23*
X0174728Y0184965D03*
X0169728Y0184965D03*
X0164728Y0184965D03*
X0159728Y0184965D03*
X0154728Y0184965D03*
X0149728Y0184965D03*
X0144728Y0184965D03*
X0139728Y0184965D03*
X0134728Y0184965D03*
X0129728Y0184965D03*
X0124728Y0184965D03*
X0119728Y0184965D03*
X0119728Y0156618D03*
X0124728Y0156618D03*
X0129728Y0156618D03*
X0134728Y0156618D03*
X0139728Y0156618D03*
X0144728Y0156618D03*
X0149728Y0156618D03*
X0154728Y0156618D03*
X0159728Y0156618D03*
X0164728Y0156618D03*
X0169728Y0156618D03*
X0174728Y0156618D03*
D24*
X0068429Y0097614D03*
X0044807Y0097614D03*
X0044807Y0078614D03*
X0068429Y0078614D03*
D25*
X0092051Y0078272D03*
X0092051Y0097957D03*
X0021185Y0097957D03*
X0021185Y0078272D03*
X0190476Y0216067D03*
X0190476Y0235752D03*
D26*
X0071618Y0147458D03*
X0066618Y0147458D03*
X0061618Y0147458D03*
X0056618Y0147458D03*
X0051618Y0147458D03*
X0046618Y0147458D03*
X0041618Y0147458D03*
X0041618Y0123258D03*
X0046618Y0123258D03*
X0051618Y0123258D03*
X0056618Y0123258D03*
X0061618Y0123258D03*
X0066618Y0123258D03*
X0071618Y0123258D03*
D27*
X0075516Y0250516D03*
X0048744Y0253665D03*
X0022169Y0250516D03*
D28*
X0035358Y0238705D03*
X0035358Y0229059D03*
X0062130Y0228862D03*
X0062130Y0238705D03*
D29*
X0058744Y0209024D02*
X0058744Y0203424D01*
X0048744Y0203424D02*
X0048744Y0209024D01*
X0038744Y0209024D02*
X0038744Y0203424D01*
X0038744Y0189339D02*
X0038744Y0183739D01*
X0048744Y0183739D02*
X0048744Y0189339D01*
X0058744Y0189339D02*
X0058744Y0183739D01*
X0058744Y0169654D02*
X0058744Y0164054D01*
X0048744Y0164054D02*
X0048744Y0169654D01*
X0038744Y0169654D02*
X0038744Y0164054D01*
X0083346Y0144295D02*
X0088946Y0144295D01*
X0088946Y0134295D02*
X0083346Y0134295D01*
X0104999Y0134295D02*
X0110599Y0134295D01*
X0110599Y0144295D02*
X0104999Y0144295D01*
X0073429Y0061387D02*
X0073429Y0055787D01*
X0063429Y0055787D02*
X0063429Y0061387D01*
X0049807Y0061387D02*
X0049807Y0055787D01*
X0039807Y0055787D02*
X0039807Y0061387D01*
D30*
X0119610Y0066461D03*
X0119610Y0054650D03*
X0174728Y0133390D03*
X0174728Y0145201D03*
X0164886Y0214098D03*
X0153075Y0214098D03*
X0153075Y0237720D03*
X0164886Y0237720D03*
X0180634Y0257406D03*
X0200319Y0257406D03*
X0113705Y0257406D03*
X0094020Y0257406D03*
X0094020Y0229846D03*
X0113705Y0229846D03*
X0298744Y0210161D03*
X0318429Y0210161D03*
X0318429Y0186539D03*
X0298744Y0186539D03*
X0347957Y0180634D03*
X0347957Y0160949D03*
X0375516Y0160949D03*
X0375516Y0180634D03*
X0273154Y0074335D03*
X0273154Y0054650D03*
X0237720Y0054650D03*
X0237720Y0074335D03*
X0326303Y0068429D03*
X0338114Y0068429D03*
X0357799Y0068429D03*
X0369610Y0068429D03*
X0389295Y0068429D03*
X0401106Y0068429D03*
D31*
X0273154Y0074335D03*
X0273154Y0054650D03*
X0237720Y0054650D03*
X0237720Y0074335D03*
X0174728Y0133390D03*
X0174728Y0145201D03*
X0119610Y0066461D03*
X0119610Y0054650D03*
X0347957Y0160949D03*
X0347957Y0180634D03*
X0375516Y0180634D03*
X0375516Y0160949D03*
D32*
X0318429Y0186539D03*
X0298744Y0186539D03*
X0298744Y0210161D03*
X0318429Y0210161D03*
X0200319Y0257406D03*
X0180634Y0257406D03*
X0164886Y0237720D03*
X0153075Y0237720D03*
X0153075Y0214098D03*
X0164886Y0214098D03*
X0113705Y0229846D03*
X0094020Y0229846D03*
X0094020Y0257406D03*
X0113705Y0257406D03*
X0326303Y0068429D03*
X0338114Y0068429D03*
X0357799Y0068429D03*
X0369610Y0068429D03*
X0389295Y0068429D03*
X0401106Y0068429D03*
D33*
X0212327Y0200909D03*
X0212327Y0211933D03*
D34*
X0005437Y0111736D02*
X0005437Y0044807D01*
X0021185Y0044807D01*
X0092051Y0044807D01*
X0111736Y0044807D01*
X0119610Y0044807D01*
X0162917Y0044807D01*
X0214098Y0044807D01*
X0225909Y0044807D01*
X0237720Y0044807D01*
X0237720Y0052091D01*
X0237720Y0044807D02*
X0259374Y0044807D01*
X0259374Y0036933D01*
X0273154Y0036933D01*
X0273154Y0052091D01*
X0273154Y0036933D02*
X0288902Y0036933D01*
X0296776Y0036933D01*
X0328272Y0036933D01*
X0367642Y0036933D01*
X0397169Y0036933D01*
X0397169Y0044807D01*
X0430634Y0044807D01*
X0430634Y0158980D01*
X0430634Y0272839D01*
X0322366Y0272839D01*
X0322366Y0237406D01*
X0336224Y0223547D01*
X0348193Y0223547D01*
X0281028Y0237406D02*
X0281028Y0272839D01*
X0237720Y0272839D01*
X0237720Y0273154D01*
X0214098Y0273154D01*
X0214098Y0237720D01*
X0259374Y0237406D02*
X0279059Y0237406D01*
X0281028Y0237406D01*
X0281028Y0272839D02*
X0300713Y0272839D01*
X0322366Y0272839D01*
X0237720Y0272839D02*
X0005437Y0273154D01*
X0005437Y0238705D01*
X0005437Y0209965D01*
X0005437Y0186539D01*
X0005437Y0158980D01*
X0005437Y0139295D01*
X0005437Y0111736D01*
X0139098Y0214098D02*
X0139295Y0214098D01*
X0062130Y0238705D02*
X0035358Y0238705D01*
X0005437Y0238705D01*
X0162917Y0080240D02*
X0163114Y0080240D01*
X0237720Y0076894D02*
X0257406Y0076894D01*
X0257406Y0076303D01*
X0273154Y0076303D02*
X0275122Y0076303D01*
X0284965Y0076303D01*
X0296776Y0076303D01*
X0308587Y0076303D01*
X0308587Y0111736D01*
X0336146Y0111736D01*
X0367642Y0111736D01*
X0399138Y0111736D01*
X0367642Y0036933D02*
X0367642Y0017248D01*
X0368272Y0017248D01*
X0328272Y0017248D02*
X0328272Y0036933D01*
X0288902Y0036933D02*
X0288902Y0017248D01*
X0288272Y0017248D01*
D35*
X0296776Y0036933D02*
X0296776Y0060752D01*
X0302681Y0054650D02*
X0306618Y0054650D01*
X0314492Y0046776D01*
X0355831Y0046776D01*
X0365673Y0052681D02*
X0320398Y0052681D01*
X0316461Y0068429D02*
X0326303Y0068429D01*
X0338114Y0068429D02*
X0338902Y0069217D01*
X0338902Y0088114D01*
X0336146Y0090870D01*
X0336146Y0101736D01*
X0324335Y0095988D02*
X0320398Y0099925D01*
X0316461Y0099925D01*
X0324335Y0095988D02*
X0324335Y0089295D01*
X0325516Y0088114D01*
X0347957Y0088114D02*
X0357012Y0088114D01*
X0367642Y0090870D02*
X0370398Y0088114D01*
X0370398Y0069217D01*
X0369610Y0068429D01*
X0357799Y0068429D02*
X0347957Y0068429D01*
X0367642Y0090870D02*
X0367642Y0101736D01*
X0383390Y0082996D02*
X0388508Y0088114D01*
X0383390Y0082996D02*
X0383390Y0080240D01*
X0381421Y0068429D02*
X0389295Y0068429D01*
X0401106Y0068429D02*
X0401894Y0069217D01*
X0401894Y0088114D01*
X0399138Y0090870D01*
X0399138Y0101736D01*
X0399138Y0111736D02*
X0410949Y0123547D01*
X0410949Y0170791D01*
X0402878Y0178862D01*
X0399138Y0178862D01*
X0399335Y0178665D01*
X0389295Y0176500D02*
X0389295Y0188508D01*
X0399138Y0186343D02*
X0405240Y0192445D01*
X0412917Y0192445D01*
X0416854Y0196382D01*
X0416854Y0218035D01*
X0411343Y0223547D01*
X0407287Y0223547D01*
X0407287Y0203547D02*
X0395870Y0203547D01*
X0375516Y0183193D01*
X0389295Y0176500D02*
X0399138Y0166657D01*
X0399138Y0159177D02*
X0399335Y0158980D01*
X0405043Y0158980D01*
X0405043Y0149138D02*
X0405043Y0137327D01*
X0403272Y0135555D01*
X0399138Y0135555D01*
X0399138Y0121736D01*
X0399138Y0135555D02*
X0379453Y0135555D01*
X0379453Y0143035D02*
X0359768Y0143035D01*
X0359571Y0143232D01*
X0351894Y0143232D01*
X0359768Y0135555D02*
X0340083Y0135555D01*
X0335949Y0135555D01*
X0332209Y0139295D01*
X0332209Y0174728D01*
X0347957Y0183193D02*
X0368272Y0203508D01*
X0377642Y0203508D01*
X0357917Y0213587D02*
X0324413Y0213587D01*
X0320988Y0210161D01*
X0326303Y0221972D02*
X0245594Y0221972D01*
X0237720Y0229846D01*
X0237720Y0243311D01*
X0216067Y0237406D02*
X0214098Y0237406D01*
X0202878Y0246185D02*
X0202878Y0257406D01*
X0202878Y0246185D02*
X0202287Y0245594D01*
X0190476Y0235752D02*
X0212327Y0213902D01*
X0212327Y0211933D01*
X0212327Y0200909D02*
X0212327Y0190476D01*
X0190476Y0190476D01*
X0190476Y0202287D01*
X0164886Y0202287D01*
X0164886Y0214098D01*
X0164886Y0225909D01*
X0139295Y0225909D01*
X0139295Y0214098D01*
X0131618Y0214098D02*
X0131421Y0213902D01*
X0131421Y0198350D01*
X0147169Y0194413D02*
X0149728Y0191854D01*
X0149728Y0184965D01*
X0144728Y0184965D02*
X0144728Y0177169D01*
X0147169Y0174728D01*
X0147169Y0170791D01*
X0151106Y0170791D01*
X0155043Y0166854D01*
X0174728Y0166854D01*
X0174728Y0156618D01*
X0174728Y0145201D01*
X0194413Y0145201D01*
X0194413Y0143035D01*
X0214098Y0143035D01*
X0214098Y0103862D01*
X0214098Y0076894D01*
X0214098Y0068232D01*
X0220004Y0064492D02*
X0239689Y0064492D01*
X0227878Y0060555D02*
X0261343Y0060555D01*
X0265280Y0064492D01*
X0281028Y0064492D01*
X0290870Y0054650D01*
X0296776Y0068232D02*
X0296776Y0076303D01*
X0296776Y0088311D01*
X0296776Y0095791D02*
X0296579Y0095988D01*
X0292839Y0095988D01*
X0284965Y0088114D01*
X0284965Y0085358D01*
X0273154Y0088114D02*
X0269217Y0084177D01*
X0265280Y0084177D01*
X0257406Y0076303D01*
X0273154Y0088114D02*
X0273154Y0088311D01*
X0296776Y0111933D01*
X0300909Y0111933D01*
X0304650Y0116854D01*
X0296776Y0119413D02*
X0292642Y0123547D01*
X0288902Y0123547D01*
X0292642Y0131421D02*
X0253469Y0131421D01*
X0243783Y0141106D01*
X0243469Y0141106D01*
X0229846Y0155240D02*
X0227878Y0153272D01*
X0227878Y0125516D01*
X0229846Y0115476D02*
X0229846Y0113862D01*
X0253469Y0113862D01*
X0229846Y0107996D02*
X0229650Y0107799D01*
X0221972Y0107799D01*
X0214098Y0103862D02*
X0202287Y0103862D01*
X0202287Y0093862D02*
X0198547Y0090122D01*
X0198547Y0080240D01*
X0206028Y0080240D02*
X0206224Y0080043D01*
X0206224Y0064492D01*
X0214098Y0060752D02*
X0214098Y0044807D01*
X0220004Y0052681D02*
X0227878Y0060555D01*
X0237720Y0076894D02*
X0214098Y0076894D01*
X0218035Y0085358D02*
X0233783Y0085358D01*
X0202287Y0113862D02*
X0196854Y0113862D01*
X0176854Y0093862D01*
X0176854Y0086500D01*
X0170594Y0080240D01*
X0163114Y0080240D02*
X0163114Y0093862D01*
X0156854Y0093862D01*
X0152917Y0093862D01*
X0152917Y0118429D01*
X0119610Y0118429D01*
X0116854Y0115673D01*
X0107799Y0115673D01*
X0099925Y0117642D02*
X0092051Y0123350D01*
X0092051Y0125516D01*
X0095988Y0129453D01*
X0092248Y0123547D02*
X0092051Y0123350D01*
X0099925Y0117642D02*
X0099925Y0105831D01*
X0092051Y0097957D01*
X0080240Y0099925D02*
X0080240Y0115870D01*
X0068232Y0115870D01*
X0066461Y0117642D01*
X0066461Y0123101D01*
X0066618Y0123258D01*
X0066618Y0147458D01*
X0071618Y0147458D02*
X0082813Y0136264D01*
X0086146Y0134295D01*
X0078561Y0123258D02*
X0071618Y0123258D01*
X0078561Y0123258D02*
X0080240Y0121579D01*
X0080240Y0115870D02*
X0092051Y0115870D01*
X0080240Y0099925D02*
X0068429Y0088114D01*
X0068429Y0078614D01*
X0084717Y0062327D01*
X0092051Y0062327D01*
X0096185Y0054846D02*
X0099925Y0058587D01*
X0099925Y0070398D01*
X0092051Y0078272D01*
X0119610Y0080437D02*
X0119610Y0066461D01*
X0119610Y0054650D02*
X0119610Y0044807D01*
X0096185Y0054846D02*
X0092051Y0054846D01*
X0092051Y0044807D01*
X0044807Y0078614D02*
X0044807Y0088114D01*
X0032996Y0099925D01*
X0032996Y0115870D01*
X0021185Y0115870D01*
X0021185Y0123350D02*
X0013311Y0117642D01*
X0013311Y0105831D01*
X0021185Y0097957D01*
X0041618Y0100803D02*
X0044807Y0097614D01*
X0041618Y0100803D02*
X0041618Y0123258D01*
X0046618Y0123258D02*
X0046776Y0123101D01*
X0046618Y0123258D02*
X0051618Y0123258D01*
X0051618Y0118547D01*
X0048744Y0115673D01*
X0050713Y0122353D02*
X0051618Y0123258D01*
X0056618Y0123258D02*
X0056618Y0129453D01*
X0050713Y0135358D01*
X0029059Y0135358D01*
X0027091Y0137327D01*
X0017248Y0139492D02*
X0005634Y0139492D01*
X0005437Y0139295D01*
X0005437Y0139492D01*
X0017248Y0146972D02*
X0017734Y0147458D01*
X0029059Y0147458D01*
X0029059Y0155043D01*
X0021185Y0155043D02*
X0017248Y0158980D01*
X0017248Y0163114D01*
X0017248Y0170594D02*
X0038744Y0170594D01*
X0038744Y0166854D01*
X0046618Y0155043D02*
X0046618Y0147458D01*
X0041618Y0147458D02*
X0029059Y0147458D01*
X0046618Y0155043D02*
X0056618Y0155043D01*
X0056618Y0147458D01*
X0056618Y0155043D02*
X0119610Y0155043D01*
X0119610Y0118429D01*
X0119610Y0105043D02*
X0119610Y0087917D01*
X0119610Y0080437D02*
X0127681Y0080437D01*
X0131421Y0085358D01*
X0162917Y0080240D02*
X0162917Y0044807D01*
X0068429Y0097614D02*
X0061618Y0104425D01*
X0061618Y0123258D01*
X0021185Y0123350D02*
X0021185Y0125516D01*
X0017248Y0129453D01*
X0021185Y0123547D02*
X0021185Y0123350D01*
X0058744Y0166854D02*
X0058744Y0170594D01*
X0080240Y0170594D01*
X0088114Y0178665D02*
X0095988Y0170791D01*
X0107799Y0170791D01*
X0111736Y0166854D01*
X0147169Y0166854D01*
X0149728Y0164295D01*
X0149728Y0156618D01*
X0144728Y0156618D02*
X0144728Y0161421D01*
X0143232Y0162917D01*
X0134728Y0156618D02*
X0134728Y0141894D01*
X0135358Y0141264D01*
X0129728Y0141539D02*
X0129728Y0156618D01*
X0124728Y0156618D02*
X0124728Y0142445D01*
X0123547Y0141264D01*
X0129453Y0141264D02*
X0129728Y0141539D01*
X0119610Y0155043D02*
X0119610Y0156618D01*
X0119728Y0156618D01*
X0101894Y0158980D02*
X0090083Y0158980D01*
X0084374Y0158980D01*
X0080240Y0163114D01*
X0088114Y0178665D02*
X0056618Y0178665D01*
X0048744Y0186539D01*
X0052681Y0194413D02*
X0147169Y0194413D01*
X0154728Y0194098D02*
X0154728Y0184965D01*
X0159728Y0184965D02*
X0159728Y0175476D01*
X0158980Y0174728D01*
X0164728Y0176854D02*
X0164728Y0184965D01*
X0169728Y0184965D02*
X0169728Y0195476D01*
X0166854Y0198350D01*
X0158980Y0198350D01*
X0155043Y0202287D01*
X0155043Y0212130D01*
X0153075Y0214098D01*
X0164886Y0225909D02*
X0164886Y0237720D01*
X0153075Y0237720D02*
X0151106Y0237720D01*
X0143232Y0229846D01*
X0135358Y0229846D01*
X0131421Y0225909D01*
X0131421Y0214295D01*
X0131618Y0214098D01*
X0092051Y0214098D01*
X0086146Y0220004D02*
X0086146Y0224531D01*
X0091461Y0229846D01*
X0080240Y0238705D02*
X0080240Y0209965D01*
X0111933Y0209965D01*
X0113705Y0208193D01*
X0115673Y0190476D02*
X0119728Y0186421D01*
X0119728Y0184965D01*
X0139295Y0174728D02*
X0139728Y0175161D01*
X0139728Y0184965D01*
X0154728Y0194098D02*
X0155043Y0194413D01*
X0174728Y0184965D02*
X0174728Y0182602D01*
X0178665Y0178665D01*
X0186343Y0178665D01*
X0190476Y0182799D01*
X0206224Y0182799D01*
X0210161Y0174728D02*
X0221972Y0174728D01*
X0229846Y0182602D01*
X0229846Y0202484D01*
X0229846Y0209965D02*
X0251854Y0209965D01*
X0253469Y0208350D01*
X0284965Y0202287D02*
X0292839Y0210161D01*
X0296185Y0210161D01*
X0284965Y0202287D02*
X0284965Y0178469D01*
X0296776Y0166657D01*
X0296776Y0159177D02*
X0296579Y0158980D01*
X0292839Y0158980D01*
X0285161Y0166657D01*
X0285161Y0170791D01*
X0218035Y0170791D01*
X0206224Y0158980D01*
X0206224Y0151106D01*
X0229846Y0161106D02*
X0229846Y0162720D01*
X0229846Y0161106D02*
X0253469Y0161106D01*
X0288902Y0139295D02*
X0292642Y0143035D01*
X0296776Y0143035D01*
X0296776Y0135555D02*
X0292642Y0131421D01*
X0296776Y0135555D02*
X0314492Y0135555D01*
X0314492Y0133390D01*
X0318429Y0129453D01*
X0347957Y0129453D01*
X0359768Y0135555D02*
X0367445Y0135555D01*
X0367642Y0135358D01*
X0375516Y0158390D02*
X0390870Y0143035D01*
X0399138Y0143035D01*
X0347957Y0158390D02*
X0340083Y0150516D01*
X0340083Y0143035D01*
X0324335Y0143232D02*
X0324138Y0143035D01*
X0316461Y0143035D01*
X0316461Y0159177D01*
X0316461Y0166657D02*
X0316067Y0166657D01*
X0296185Y0186539D01*
X0320988Y0186539D02*
X0337996Y0203547D01*
X0348193Y0203547D01*
X0351894Y0253469D02*
X0422760Y0253469D01*
X0422760Y0060555D01*
X0418823Y0056618D01*
X0379650Y0056618D01*
X0379453Y0056421D01*
X0379453Y0048941D02*
X0375319Y0044807D01*
X0371579Y0044807D01*
X0296776Y0095791D02*
X0296776Y0099925D01*
X0300713Y0103862D01*
X0314492Y0135555D02*
X0316461Y0135555D01*
X0208193Y0125516D02*
X0158980Y0125516D01*
X0152917Y0118429D02*
X0152917Y0133390D01*
X0155043Y0133390D01*
X0155043Y0135555D01*
X0155043Y0133390D02*
X0174728Y0133390D01*
X0194413Y0133390D01*
X0194413Y0135555D01*
X0164728Y0145043D02*
X0164728Y0156618D01*
X0159728Y0156618D02*
X0159728Y0147720D01*
X0155043Y0143035D01*
X0162917Y0143232D02*
X0164728Y0145043D01*
X0147169Y0170791D02*
X0131421Y0170791D01*
X0164728Y0176854D02*
X0166854Y0174728D01*
X0174728Y0206224D02*
X0180634Y0206224D01*
X0190476Y0216067D01*
X0178665Y0214098D02*
X0178665Y0241657D01*
X0170791Y0249531D01*
X0150909Y0249531D01*
X0139098Y0261343D01*
X0131618Y0261343D02*
X0127681Y0257406D01*
X0116264Y0257406D01*
X0091461Y0257406D02*
X0086146Y0252091D01*
X0086146Y0247563D01*
X0080240Y0238705D02*
X0062130Y0238705D01*
X0058744Y0206224D02*
X0062484Y0202484D01*
X0080240Y0202484D01*
X0052681Y0194413D02*
X0048744Y0198350D01*
X0048744Y0206224D01*
X0038744Y0206224D02*
X0035004Y0202484D01*
X0017248Y0202484D01*
X0017248Y0209965D02*
X0005437Y0209965D01*
X0005437Y0186539D02*
X0038744Y0186539D01*
X0116264Y0229846D02*
X0123744Y0229846D01*
X0131618Y0237720D01*
X0139098Y0237720D02*
X0146972Y0245594D01*
X0147169Y0245594D01*
X0155240Y0261343D02*
X0151303Y0265280D01*
X0147169Y0265280D01*
X0162720Y0261343D02*
X0166657Y0257406D01*
X0178075Y0257406D01*
X0044807Y0078614D02*
X0028520Y0062327D01*
X0021185Y0062327D01*
X0019020Y0054846D02*
X0013311Y0060555D01*
X0013311Y0070398D01*
X0021185Y0078272D01*
X0021185Y0054846D02*
X0019020Y0054846D01*
X0021185Y0054846D02*
X0021185Y0044807D01*
D36*
X0111736Y0044807D03*
X0005437Y0111736D03*
X0005437Y0158980D03*
X0115673Y0273154D03*
X0269217Y0273154D03*
X0430634Y0158980D03*
X0284965Y0076303D03*
X0257406Y0076303D03*
X0225909Y0044807D03*
X0397169Y0044807D03*
D37*
X0371579Y0044807D03*
X0365673Y0052681D03*
X0355831Y0046776D03*
X0347957Y0068429D03*
X0347957Y0088114D03*
X0316461Y0099925D03*
X0300713Y0103862D03*
X0304650Y0116854D03*
X0288902Y0123547D03*
X0288902Y0139295D03*
X0324335Y0143232D03*
X0347957Y0129453D03*
X0351894Y0143232D03*
X0367642Y0135358D03*
X0405043Y0149138D03*
X0405043Y0158980D03*
X0389295Y0188508D03*
X0332209Y0174728D03*
X0326303Y0221972D03*
X0351894Y0253469D03*
X0218035Y0190476D03*
X0210161Y0174728D03*
X0206224Y0151106D03*
X0208193Y0125516D03*
X0227878Y0125516D03*
X0235752Y0123547D03*
X0221972Y0107799D03*
X0218035Y0085358D03*
X0233783Y0085358D03*
X0239689Y0064492D03*
X0220004Y0064492D03*
X0220004Y0052681D03*
X0206224Y0064492D03*
X0131421Y0085358D03*
X0107799Y0115673D03*
X0095988Y0129453D03*
X0080240Y0121579D03*
X0048744Y0115673D03*
X0032996Y0115870D03*
X0017248Y0129453D03*
X0027091Y0137327D03*
X0029059Y0155043D03*
X0021185Y0155043D03*
X0090083Y0158980D03*
X0101894Y0158980D03*
X0123547Y0141264D03*
X0129453Y0141264D03*
X0135358Y0141264D03*
X0158980Y0125516D03*
X0162917Y0143232D03*
X0143232Y0162917D03*
X0131421Y0170791D03*
X0139295Y0174728D03*
X0158980Y0174728D03*
X0166854Y0174728D03*
X0155043Y0194413D03*
X0174728Y0206224D03*
X0178665Y0214098D03*
X0202287Y0245594D03*
X0147169Y0245594D03*
X0147169Y0265280D03*
X0086146Y0247563D03*
X0086146Y0220004D03*
X0092051Y0214098D03*
X0113705Y0208193D03*
X0131421Y0198350D03*
X0115673Y0190476D03*
X0284965Y0085358D03*
X0316461Y0068429D03*
X0320398Y0052681D03*
X0302681Y0054650D03*
X0290870Y0054650D03*
X0381421Y0068429D03*
X0383390Y0080240D03*
D38*
X0218035Y0190476D02*
X0212327Y0190476D01*
D39*
X0206224Y0190476D01*
X0206224Y0190280D01*
X0190476Y0190280D02*
X0190476Y0190476D01*
X0214098Y0237406D02*
X0214098Y0237720D01*
X0235752Y0123547D02*
X0288902Y0123547D01*
X0275122Y0076894D02*
X0273154Y0076894D01*
X0275122Y0076894D02*
X0275122Y0076303D01*
M02*
