G75*
%MOIN*%
%OFA0B0*%
%FSLAX25Y25*%
%IPPOS*%
%LPD*%
%AMOC8*
5,1,8,0,0,1.08239X$1,22.5*
%
%ADD10C,0.06800*%
%ADD11C,0.06000*%
%ADD12R,0.10249X0.11824*%
%ADD13R,0.06706X0.05918*%
%ADD14R,0.06312X0.07887*%
%ADD15R,0.07887X0.06312*%
%ADD16R,0.07099X0.10249*%
%ADD17R,0.10249X0.07099*%
%ADD18R,0.05918X0.06706*%
%ADD19R,0.11824X0.10249*%
%ADD20C,0.09461*%
%ADD21C,0.12611*%
%ADD22C,0.09800*%
%ADD23R,0.02572X0.07887*%
%ADD24C,0.06000*%
%ADD25C,0.06737*%
%ADD26R,0.03400X0.08800*%
%ADD27C,0.14580*%
%ADD28OC8,0.06400*%
%ADD29C,0.06400*%
%ADD30C,0.04800*%
%ADD31R,0.09461X0.07099*%
D10*
X0156854Y0090862D02*
X0156854Y0096862D01*
X0163854Y0113862D02*
X0169854Y0113862D01*
X0176854Y0096862D02*
X0176854Y0090862D01*
X0243469Y0090862D02*
X0243469Y0096862D01*
X0250469Y0113862D02*
X0256469Y0113862D01*
X0263469Y0096862D02*
X0263469Y0090862D01*
X0263469Y0138106D02*
X0263469Y0144106D01*
X0243469Y0144106D02*
X0243469Y0138106D01*
X0250469Y0161106D02*
X0256469Y0161106D01*
X0263469Y0185350D02*
X0263469Y0191350D01*
X0256469Y0208350D02*
X0250469Y0208350D01*
X0243469Y0191350D02*
X0243469Y0185350D01*
X0268272Y0020248D02*
X0268272Y0014248D01*
X0278272Y0014248D02*
X0278272Y0020248D01*
X0288272Y0020248D02*
X0288272Y0014248D01*
X0298272Y0014248D02*
X0298272Y0020248D01*
X0308272Y0020248D02*
X0308272Y0014248D01*
X0318272Y0014248D02*
X0318272Y0020248D01*
X0328272Y0020248D02*
X0328272Y0014248D01*
X0338272Y0014248D02*
X0338272Y0020248D01*
X0348272Y0020248D02*
X0348272Y0014248D01*
X0358272Y0014248D02*
X0358272Y0020248D01*
X0368272Y0020248D02*
X0368272Y0014248D01*
X0378272Y0014248D02*
X0378272Y0020248D01*
X0388272Y0020248D02*
X0388272Y0014248D01*
D11*
X0396538Y0101736D02*
X0401738Y0101736D01*
X0401738Y0111736D02*
X0396538Y0111736D01*
X0396538Y0121736D02*
X0401738Y0121736D01*
X0370242Y0121736D02*
X0365042Y0121736D01*
X0365042Y0111736D02*
X0370242Y0111736D01*
X0370242Y0101736D02*
X0365042Y0101736D01*
X0338746Y0101736D02*
X0333546Y0101736D01*
X0333546Y0111736D02*
X0338746Y0111736D01*
X0338746Y0121736D02*
X0333546Y0121736D01*
X0204887Y0113862D02*
X0199687Y0113862D01*
X0199687Y0103862D02*
X0204887Y0103862D01*
X0204887Y0093862D02*
X0199687Y0093862D01*
D12*
X0296185Y0186539D03*
X0320988Y0186539D03*
X0320988Y0210161D03*
X0296185Y0210161D03*
X0202878Y0257406D03*
X0178075Y0257406D03*
X0116264Y0257406D03*
X0091461Y0257406D03*
X0091461Y0229846D03*
X0116264Y0229846D03*
D13*
X0021185Y0054846D03*
X0021185Y0062327D03*
X0021185Y0115870D03*
X0021185Y0123350D03*
X0017248Y0139492D03*
X0017248Y0146972D03*
X0017248Y0163114D03*
X0017248Y0170594D03*
X0017248Y0202484D03*
X0017248Y0209965D03*
X0080240Y0209965D03*
X0080240Y0202484D03*
X0080240Y0170594D03*
X0080240Y0163114D03*
X0092051Y0123350D03*
X0092051Y0115870D03*
X0119610Y0087917D03*
X0119610Y0080437D03*
X0092051Y0062327D03*
X0092051Y0054846D03*
X0155043Y0135555D03*
X0155043Y0143035D03*
X0194413Y0143035D03*
X0194413Y0135555D03*
X0229846Y0155240D03*
X0229846Y0162720D03*
X0206224Y0182799D03*
X0206224Y0190280D03*
X0190476Y0190280D03*
X0190476Y0182799D03*
X0229846Y0202484D03*
X0229846Y0209965D03*
X0296776Y0166657D03*
X0296776Y0159177D03*
X0316461Y0159177D03*
X0316461Y0166657D03*
X0316461Y0143035D03*
X0316461Y0135555D03*
X0296776Y0135555D03*
X0296776Y0143035D03*
X0296776Y0119413D03*
X0296776Y0111933D03*
X0296776Y0095791D03*
X0296776Y0088311D03*
X0296776Y0068232D03*
X0296776Y0060752D03*
X0229846Y0107996D03*
X0229846Y0115476D03*
X0214098Y0068232D03*
X0214098Y0060752D03*
X0340083Y0135555D03*
X0340083Y0143035D03*
X0359768Y0143035D03*
X0359768Y0135555D03*
X0379453Y0135555D03*
X0379453Y0143035D03*
X0399138Y0143035D03*
X0399138Y0135555D03*
X0399138Y0159177D03*
X0399138Y0166657D03*
X0399138Y0178862D03*
X0399138Y0186343D03*
X0379453Y0056421D03*
X0379453Y0048941D03*
D14*
X0388508Y0088114D03*
X0401894Y0088114D03*
X0370398Y0088114D03*
X0357012Y0088114D03*
X0338902Y0088114D03*
X0325516Y0088114D03*
D15*
X0119610Y0105043D03*
X0119610Y0118429D03*
D16*
X0153075Y0214098D03*
X0164886Y0214098D03*
X0164886Y0237720D03*
X0153075Y0237720D03*
X0326303Y0068429D03*
X0338114Y0068429D03*
X0357799Y0068429D03*
X0369610Y0068429D03*
X0389295Y0068429D03*
X0401106Y0068429D03*
D17*
X0174728Y0133390D03*
X0174728Y0145201D03*
X0119610Y0066461D03*
X0119610Y0054650D03*
D18*
X0163114Y0080240D03*
X0170594Y0080240D03*
X0198547Y0080240D03*
X0206028Y0080240D03*
X0139098Y0214098D03*
X0131618Y0214098D03*
X0131618Y0237720D03*
X0139098Y0237720D03*
X0139098Y0261343D03*
X0131618Y0261343D03*
X0155240Y0261343D03*
X0162720Y0261343D03*
D19*
X0347957Y0183193D03*
X0375516Y0183193D03*
X0375516Y0158390D03*
X0347957Y0158390D03*
X0273154Y0076894D03*
X0273154Y0052091D03*
X0237720Y0052091D03*
X0237720Y0076894D03*
D20*
X0216067Y0233075D02*
X0216067Y0241736D01*
X0237720Y0268508D02*
X0237720Y0277169D01*
X0259374Y0241736D02*
X0259374Y0233075D01*
X0279059Y0233075D02*
X0279059Y0241736D01*
X0300713Y0268508D02*
X0300713Y0277169D01*
X0322366Y0241736D02*
X0322366Y0233075D01*
D21*
X0300713Y0243311D03*
X0237720Y0243311D03*
D22*
X0348193Y0223547D03*
X0357917Y0213587D03*
X0348193Y0203547D03*
X0377642Y0203508D03*
X0397287Y0213626D03*
X0407287Y0223547D03*
X0407287Y0203547D03*
X0377642Y0223508D03*
X0397287Y0262847D03*
X0357878Y0262847D03*
D23*
X0174728Y0184965D03*
X0169728Y0184965D03*
X0164728Y0184965D03*
X0159728Y0184965D03*
X0154728Y0184965D03*
X0149728Y0184965D03*
X0144728Y0184965D03*
X0139728Y0184965D03*
X0134728Y0184965D03*
X0129728Y0184965D03*
X0124728Y0184965D03*
X0119728Y0184965D03*
X0119728Y0156618D03*
X0124728Y0156618D03*
X0129728Y0156618D03*
X0134728Y0156618D03*
X0139728Y0156618D03*
X0144728Y0156618D03*
X0149728Y0156618D03*
X0154728Y0156618D03*
X0159728Y0156618D03*
X0164728Y0156618D03*
X0169728Y0156618D03*
X0174728Y0156618D03*
D24*
X0068429Y0097614D03*
X0044807Y0097614D03*
X0044807Y0078614D03*
X0068429Y0078614D03*
D25*
X0092051Y0078272D03*
X0092051Y0097957D03*
X0021185Y0097957D03*
X0021185Y0078272D03*
X0190476Y0216067D03*
X0190476Y0235752D03*
D26*
X0071618Y0147458D03*
X0066618Y0147458D03*
X0061618Y0147458D03*
X0056618Y0147458D03*
X0051618Y0147458D03*
X0046618Y0147458D03*
X0041618Y0147458D03*
X0041618Y0123258D03*
X0046618Y0123258D03*
X0051618Y0123258D03*
X0056618Y0123258D03*
X0061618Y0123258D03*
X0066618Y0123258D03*
X0071618Y0123258D03*
D27*
X0075516Y0250516D03*
X0048744Y0253665D03*
X0022169Y0250516D03*
D28*
X0035358Y0238705D03*
X0035358Y0229059D03*
X0062130Y0228862D03*
X0062130Y0238705D03*
D29*
X0058744Y0209024D02*
X0058744Y0203424D01*
X0048744Y0203424D02*
X0048744Y0209024D01*
X0038744Y0209024D02*
X0038744Y0203424D01*
X0038744Y0189339D02*
X0038744Y0183739D01*
X0048744Y0183739D02*
X0048744Y0189339D01*
X0058744Y0189339D02*
X0058744Y0183739D01*
X0058744Y0169654D02*
X0058744Y0164054D01*
X0048744Y0164054D02*
X0048744Y0169654D01*
X0038744Y0169654D02*
X0038744Y0164054D01*
X0083346Y0144295D02*
X0088946Y0144295D01*
X0088946Y0134295D02*
X0083346Y0134295D01*
X0104999Y0134295D02*
X0110599Y0134295D01*
X0110599Y0144295D02*
X0104999Y0144295D01*
X0073429Y0061387D02*
X0073429Y0055787D01*
X0063429Y0055787D02*
X0063429Y0061387D01*
X0049807Y0061387D02*
X0049807Y0055787D01*
X0039807Y0055787D02*
X0039807Y0061387D01*
D30*
X0119610Y0066461D03*
X0119610Y0054650D03*
X0174728Y0133390D03*
X0174728Y0145201D03*
X0164886Y0214098D03*
X0153075Y0214098D03*
X0153075Y0237720D03*
X0164886Y0237720D03*
X0180634Y0257406D03*
X0200319Y0257406D03*
X0113705Y0257406D03*
X0094020Y0257406D03*
X0094020Y0229846D03*
X0113705Y0229846D03*
X0298744Y0210161D03*
X0318429Y0210161D03*
X0318429Y0186539D03*
X0298744Y0186539D03*
X0347957Y0180634D03*
X0347957Y0160949D03*
X0375516Y0160949D03*
X0375516Y0180634D03*
X0273154Y0074335D03*
X0273154Y0054650D03*
X0237720Y0054650D03*
X0237720Y0074335D03*
X0326303Y0068429D03*
X0338114Y0068429D03*
X0357799Y0068429D03*
X0369610Y0068429D03*
X0389295Y0068429D03*
X0401106Y0068429D03*
D31*
X0212327Y0200909D03*
X0212327Y0211933D03*
M02*
