%
M48
M72
T01C0.02362
T02C0.03200
T03C0.03543
T04C0.03600
T05C0.03937
T06C0.04000
T07C0.05512
T08C0.07087
T09C0.09055
%
T01
X113236Y46807
X132921Y87358
X109299Y117673
X97488Y131453
X81740Y123579
X50244Y117673
X34496Y117870
X18748Y131453
X28591Y139327
X30559Y157043
X22685Y157043
X6937Y160980
X6937Y113736
X89614Y151138
X87646Y160980
X125047Y143264
X130953Y143264
X136858Y143264
X160480Y127516
X164417Y145232
X144732Y164917
X140795Y176728
X132921Y172791
X160480Y176728
X168354Y176728
X156543Y196413
X176228Y208224
X180165Y216098
X219535Y192476
X211661Y176728
X207724Y153106
X209693Y127516
X229378Y127516
X237252Y125547
X223472Y109799
X219535Y87358
X235283Y87358
X258906Y78303
X239220Y66492
X221504Y66492
X207724Y66492
X227409Y46807
X286465Y78303
X286465Y87358
X302213Y105862
X317961Y101925
X306150Y118854
X290402Y125547
X290402Y141295
X325835Y145232
X349457Y131453
X353394Y145232
X369142Y137358
X406543Y151138
X406543Y160980
X432134Y160980
X390795Y190508
X333709Y176728
X327803Y223972
X353394Y255469
X270717Y275154
X203787Y247594
X148669Y247594
X148669Y267280
X117173Y275154
X87646Y249563
X87646Y222004
X93551Y216098
X115205Y210193
X132921Y200350
X117173Y192476
X317961Y70429
X321898Y54681
X349457Y70429
X365205Y54681
X373079Y46807
X398669Y46807
X380953Y70429
X384890Y82240
X349457Y90114
T02
X337646Y103736
X337646Y113736
X337646Y123736
X369142Y123736
X369142Y113736
X369142Y103736
X400638Y103736
X400638Y113736
X400638Y123736
X203787Y115862
X203787Y105862
X203787Y95862
X69929Y99614
X46307Y99614
X46307Y80614
X69929Y80614
T03
X63630Y230862
X63630Y240705
X36858Y240705
X36858Y231059
T04
X40244Y208224
X50244Y208224
X60244Y208224
X60244Y188539
X50244Y188539
X40244Y188539
X40244Y168854
X50244Y168854
X60244Y168854
T05
X22685Y80272
X22685Y99957
X93551Y99957
X93551Y80272
X191976Y218067
X191976Y237752
X217567Y239406
X260874Y239406
X280559Y239406
X323866Y239406
X302213Y274839
X239220Y274839
T06
X254969Y210350
X264969Y190350
X244969Y190350
X254969Y163106
X264969Y143106
X244969Y143106
X254969Y115862
X264969Y95862
X244969Y95862
X178354Y95862
X158354Y95862
X168354Y115862
X269772Y19248
X279772Y19248
X289772Y19248
X299772Y19248
X309772Y19248
X319772Y19248
X329772Y19248
X339772Y19248
X349772Y19248
X359772Y19248
X369772Y19248
X379772Y19248
X389772Y19248
T07
X379142Y205508
X359417Y215587
X349693Y225547
X349693Y205547
X379142Y225508
X398787Y215626
X408787Y225547
X408787Y205547
X398787Y264847
X359378Y264847
T08
X302213Y245311
X239220Y245311
T09
X77016Y252516
X50244Y255665
X23669Y252516
M30
