G75*
%MOIN*%
%OFA0B0*%
%FSLAX25Y25*%
%IPPOS*%
%LPD*%
%AMOC8*
5,1,8,0,0,1.08239X$1,22.5*
%
%ADD10R,0.19685X0.11811*%
%ADD11R,0.07874X0.07874*%
%ADD12C,0.06000*%
%ADD13C,0.05200*%
%ADD14C,0.08661*%
%ADD15C,0.11811*%
%ADD16C,0.09000*%
%ADD17C,0.05200*%
%ADD18C,0.05937*%
%ADD19C,0.13780*%
%ADD20OC8,0.05600*%
%ADD21C,0.05600*%
%ADD22R,0.05906X0.05118*%
%ADD23R,0.05000X0.05000*%
%ADD24R,0.07500X0.05000*%
%ADD25R,0.05000X0.07500*%
%ADD26R,0.03962X0.03962*%
%ADD27C,0.03937*%
%ADD28C,0.02756*%
%ADD29C,0.01969*%
%ADD30C,0.03962*%
%ADD31C,0.02362*%
%ADD32C,0.01600*%
D10*
X0092051Y0044807D03*
X0048744Y0273154D03*
X0377484Y0273154D03*
X0416854Y0044807D03*
D11*
X0401106Y0068429D03*
X0389295Y0068429D03*
X0369610Y0068429D03*
X0357799Y0068429D03*
X0338114Y0068429D03*
X0326303Y0068429D03*
X0273154Y0074335D03*
X0273154Y0054650D03*
X0237720Y0054650D03*
X0237720Y0074335D03*
X0174728Y0133390D03*
X0174728Y0145201D03*
X0164886Y0214098D03*
X0153075Y0214098D03*
X0153075Y0237720D03*
X0164886Y0237720D03*
X0180634Y0257406D03*
X0200319Y0257406D03*
X0113705Y0257406D03*
X0094020Y0257406D03*
X0094020Y0229846D03*
X0113705Y0229846D03*
X0298744Y0210161D03*
X0318429Y0210161D03*
X0318429Y0186539D03*
X0298744Y0186539D03*
X0347957Y0180634D03*
X0347957Y0160949D03*
X0375516Y0160949D03*
X0375516Y0180634D03*
X0119610Y0066461D03*
X0119610Y0054650D03*
D12*
X0156854Y0090862D02*
X0156854Y0096862D01*
X0163854Y0113862D02*
X0169854Y0113862D01*
X0176854Y0096862D02*
X0176854Y0090862D01*
X0243469Y0090862D02*
X0243469Y0096862D01*
X0250469Y0113862D02*
X0256469Y0113862D01*
X0263469Y0096862D02*
X0263469Y0090862D01*
X0263469Y0138106D02*
X0263469Y0144106D01*
X0243469Y0144106D02*
X0243469Y0138106D01*
X0250469Y0161106D02*
X0256469Y0161106D01*
X0263469Y0185350D02*
X0263469Y0191350D01*
X0256469Y0208350D02*
X0250469Y0208350D01*
X0243469Y0191350D02*
X0243469Y0185350D01*
X0268272Y0020248D02*
X0268272Y0014248D01*
X0278272Y0014248D02*
X0278272Y0020248D01*
X0288272Y0020248D02*
X0288272Y0014248D01*
X0298272Y0014248D02*
X0298272Y0020248D01*
X0308272Y0020248D02*
X0308272Y0014248D01*
X0318272Y0014248D02*
X0318272Y0020248D01*
X0328272Y0020248D02*
X0328272Y0014248D01*
X0338272Y0014248D02*
X0338272Y0020248D01*
X0348272Y0020248D02*
X0348272Y0014248D01*
X0358272Y0014248D02*
X0358272Y0020248D01*
X0368272Y0020248D02*
X0368272Y0014248D01*
X0378272Y0014248D02*
X0378272Y0020248D01*
X0388272Y0020248D02*
X0388272Y0014248D01*
D13*
X0396538Y0101736D02*
X0401738Y0101736D01*
X0401738Y0111736D02*
X0396538Y0111736D01*
X0396538Y0121736D02*
X0401738Y0121736D01*
X0370242Y0121736D02*
X0365042Y0121736D01*
X0365042Y0111736D02*
X0370242Y0111736D01*
X0370242Y0101736D02*
X0365042Y0101736D01*
X0338746Y0101736D02*
X0333546Y0101736D01*
X0333546Y0111736D02*
X0338746Y0111736D01*
X0338746Y0121736D02*
X0333546Y0121736D01*
X0204887Y0113862D02*
X0199687Y0113862D01*
X0199687Y0103862D02*
X0204887Y0103862D01*
X0204887Y0093862D02*
X0199687Y0093862D01*
D14*
X0216067Y0233075D02*
X0216067Y0241736D01*
X0237720Y0268508D02*
X0237720Y0277169D01*
X0259374Y0241736D02*
X0259374Y0233075D01*
X0279059Y0233075D02*
X0279059Y0241736D01*
X0300713Y0268508D02*
X0300713Y0277169D01*
X0322366Y0241736D02*
X0322366Y0233075D01*
D15*
X0300713Y0243311D03*
X0237720Y0243311D03*
D16*
X0348193Y0223547D03*
X0357917Y0213587D03*
X0348193Y0203547D03*
X0377642Y0203508D03*
X0397287Y0213626D03*
X0407287Y0223547D03*
X0407287Y0203547D03*
X0377642Y0223508D03*
X0397287Y0262847D03*
X0357878Y0262847D03*
D17*
X0068429Y0097614D03*
X0044807Y0097614D03*
X0044807Y0078614D03*
X0068429Y0078614D03*
D18*
X0092051Y0078272D03*
X0092051Y0097957D03*
X0021185Y0097957D03*
X0021185Y0078272D03*
X0190476Y0216067D03*
X0190476Y0235752D03*
D19*
X0075516Y0250516D03*
X0048744Y0253665D03*
X0022169Y0250516D03*
D20*
X0035358Y0238705D03*
X0035358Y0229059D03*
X0062130Y0228862D03*
X0062130Y0238705D03*
D21*
X0058744Y0209024D02*
X0058744Y0203424D01*
X0048744Y0203424D02*
X0048744Y0209024D01*
X0038744Y0209024D02*
X0038744Y0203424D01*
X0038744Y0189339D02*
X0038744Y0183739D01*
X0048744Y0183739D02*
X0048744Y0189339D01*
X0058744Y0189339D02*
X0058744Y0183739D01*
X0058744Y0169654D02*
X0058744Y0164054D01*
X0048744Y0164054D02*
X0048744Y0169654D01*
X0038744Y0169654D02*
X0038744Y0164054D01*
X0083346Y0144295D02*
X0088946Y0144295D01*
X0088946Y0134295D02*
X0083346Y0134295D01*
X0104999Y0134295D02*
X0110599Y0134295D01*
X0110599Y0144295D02*
X0104999Y0144295D01*
X0073429Y0061387D02*
X0073429Y0055787D01*
X0063429Y0055787D02*
X0063429Y0061387D01*
X0049807Y0061387D02*
X0049807Y0055787D01*
X0039807Y0055787D02*
X0039807Y0061387D01*
D22*
X0013311Y0115870D03*
X0013311Y0123350D03*
X0099925Y0123350D03*
X0099925Y0115870D03*
D23*
X0119610Y0066461D03*
X0119610Y0054650D03*
X0174728Y0133390D03*
X0174728Y0145201D03*
X0164886Y0214098D03*
X0153075Y0214098D03*
X0153075Y0237720D03*
X0164886Y0237720D03*
X0180634Y0257406D03*
X0200319Y0257406D03*
X0113705Y0257406D03*
X0094020Y0257406D03*
X0094020Y0229846D03*
X0113705Y0229846D03*
X0298744Y0210161D03*
X0318429Y0210161D03*
X0318429Y0186539D03*
X0298744Y0186539D03*
X0347957Y0180634D03*
X0347957Y0160949D03*
X0375516Y0160949D03*
X0375516Y0180634D03*
X0273154Y0074335D03*
X0273154Y0054650D03*
X0237720Y0054650D03*
X0237720Y0074335D03*
X0326303Y0068429D03*
X0338114Y0068429D03*
X0357799Y0068429D03*
X0369610Y0068429D03*
X0389295Y0068429D03*
X0401106Y0068429D03*
D24*
X0273154Y0074335D03*
X0273154Y0054650D03*
X0237720Y0054650D03*
X0237720Y0074335D03*
X0174728Y0133390D03*
X0174728Y0145201D03*
X0119610Y0066461D03*
X0119610Y0054650D03*
X0347957Y0160949D03*
X0347957Y0180634D03*
X0375516Y0180634D03*
X0375516Y0160949D03*
D25*
X0318429Y0186539D03*
X0298744Y0186539D03*
X0298744Y0210161D03*
X0318429Y0210161D03*
X0200319Y0257406D03*
X0180634Y0257406D03*
X0164886Y0237720D03*
X0153075Y0237720D03*
X0153075Y0214098D03*
X0164886Y0214098D03*
X0113705Y0229846D03*
X0094020Y0229846D03*
X0094020Y0257406D03*
X0113705Y0257406D03*
X0326303Y0068429D03*
X0338114Y0068429D03*
X0357799Y0068429D03*
X0369610Y0068429D03*
X0389295Y0068429D03*
X0401106Y0068429D03*
D26*
X0397169Y0044807D03*
X0284965Y0076303D03*
X0257406Y0076303D03*
X0225909Y0044807D03*
X0111736Y0044807D03*
X0005437Y0111736D03*
X0005437Y0158980D03*
X0115673Y0273154D03*
X0269217Y0273154D03*
X0430634Y0158980D03*
D27*
X0062524Y0044807D02*
X0005437Y0044807D01*
X0005437Y0111736D01*
X0005437Y0158980D01*
X0005437Y0273154D01*
X0115673Y0273154D01*
X0269217Y0273154D01*
X0430634Y0273154D01*
X0430634Y0158980D01*
X0430634Y0044807D01*
X0397169Y0044807D01*
X0284965Y0048744D02*
X0284965Y0076303D01*
X0257406Y0076303D02*
X0257406Y0052681D01*
X0269217Y0040870D01*
X0269217Y0018193D01*
X0268272Y0017248D01*
X0277091Y0017248D02*
X0277091Y0040870D01*
X0284965Y0048744D01*
X0278272Y0017248D02*
X0277091Y0017248D01*
X0225909Y0044807D02*
X0111736Y0044807D01*
X0062524Y0044807D01*
X0225909Y0044807D02*
X0225909Y0093862D01*
X0243469Y0093862D01*
X0243469Y0141106D01*
X0243469Y0188350D01*
D28*
X0218035Y0188350D01*
D29*
X0218035Y0190476D01*
X0210161Y0174728D02*
X0188508Y0153075D01*
X0155043Y0153075D01*
X0143232Y0141264D01*
X0135358Y0141264D01*
X0129453Y0141264D02*
X0129453Y0125516D01*
X0158980Y0125516D01*
X0162917Y0117799D02*
X0162917Y0143232D01*
X0143232Y0162917D02*
X0066461Y0162917D01*
X0062524Y0158980D01*
X0052681Y0158980D01*
X0048744Y0162917D01*
X0048744Y0166854D01*
X0046933Y0174728D02*
X0029059Y0174728D01*
X0029059Y0155043D01*
X0027091Y0149138D02*
X0021185Y0155043D01*
X0027091Y0149138D02*
X0027091Y0137327D01*
X0017248Y0129453D02*
X0013311Y0125516D01*
X0013311Y0123350D01*
X0013311Y0115870D02*
X0013311Y0115673D01*
X0009374Y0111736D01*
X0005437Y0111736D01*
X0021185Y0097957D02*
X0029059Y0097957D01*
X0029059Y0069335D01*
X0039807Y0058587D01*
X0060555Y0071461D02*
X0060555Y0090083D01*
X0068087Y0097614D01*
X0068429Y0097614D01*
X0091709Y0097614D01*
X0092051Y0097957D01*
X0085949Y0115870D02*
X0099925Y0115870D01*
X0107602Y0115870D01*
X0107799Y0115673D01*
X0111736Y0123547D02*
X0111736Y0076303D01*
X0113705Y0074335D01*
X0125516Y0074335D01*
X0143232Y0056618D01*
X0202287Y0056618D01*
X0206224Y0052681D01*
X0220004Y0052681D01*
X0220004Y0064492D02*
X0206224Y0064492D01*
X0218035Y0085358D02*
X0131421Y0085358D01*
X0125516Y0108980D02*
X0123547Y0109768D01*
X0123547Y0141264D01*
X0107799Y0144295D02*
X0107799Y0151106D01*
X0101894Y0158980D01*
X0090083Y0158980D02*
X0086146Y0155043D01*
X0086146Y0144295D01*
X0095988Y0129453D02*
X0099925Y0125516D01*
X0099925Y0123350D01*
X0107799Y0127484D02*
X0111736Y0123547D01*
X0107799Y0127484D02*
X0107799Y0134295D01*
X0085949Y0115870D02*
X0080240Y0121579D01*
X0048744Y0115673D02*
X0033193Y0115673D01*
X0032996Y0115870D01*
X0029059Y0097957D02*
X0044465Y0097957D01*
X0044807Y0097614D01*
X0060555Y0071461D02*
X0073429Y0058587D01*
X0125516Y0108980D02*
X0208193Y0108980D01*
X0210161Y0109768D01*
X0220004Y0109768D01*
X0221972Y0107799D01*
X0202287Y0113862D02*
X0202287Y0147169D01*
X0206224Y0151106D01*
X0178665Y0178665D02*
X0174728Y0174728D01*
X0166854Y0174728D01*
X0158980Y0174728D02*
X0155043Y0174728D01*
X0151106Y0178665D01*
X0151106Y0190476D01*
X0147169Y0194413D01*
X0147169Y0245594D01*
X0139295Y0257406D02*
X0139295Y0174728D01*
X0131421Y0170791D02*
X0131421Y0198350D01*
X0115673Y0206224D02*
X0115673Y0190476D01*
X0115673Y0206224D02*
X0113705Y0208193D01*
X0092051Y0214098D02*
X0092051Y0194413D01*
X0066618Y0194413D01*
X0058744Y0186539D01*
X0046933Y0174728D01*
X0040870Y0220004D02*
X0035358Y0225516D01*
X0035358Y0229059D01*
X0040870Y0220004D02*
X0086146Y0220004D01*
X0073350Y0228862D02*
X0062130Y0228862D01*
X0073350Y0228862D02*
X0086146Y0241657D01*
X0086146Y0247563D01*
X0139295Y0257406D02*
X0147169Y0265280D01*
X0151106Y0268429D01*
X0206224Y0268429D01*
X0214098Y0261343D01*
X0312524Y0261343D01*
X0320398Y0253469D01*
X0351894Y0253469D01*
X0344020Y0233783D02*
X0371579Y0233783D01*
X0377642Y0227720D01*
X0377642Y0223508D01*
X0377642Y0228035D01*
X0383390Y0233783D01*
X0418823Y0233783D01*
X0425909Y0225909D01*
X0425909Y0055437D01*
X0395201Y0055437D01*
X0388272Y0041815D01*
X0388272Y0017248D01*
X0379453Y0018429D02*
X0379453Y0036933D01*
X0371579Y0044807D01*
X0365673Y0052681D02*
X0381421Y0068429D01*
X0383390Y0080240D02*
X0347957Y0080240D01*
X0347957Y0088114D01*
X0347957Y0080240D02*
X0320398Y0080240D01*
X0316461Y0084177D01*
X0316461Y0099925D01*
X0312524Y0103862D01*
X0300713Y0103862D01*
X0304650Y0116854D02*
X0408980Y0116854D01*
X0410949Y0117642D01*
X0410949Y0153075D01*
X0405043Y0158980D01*
X0405043Y0149138D02*
X0271500Y0149138D01*
X0263469Y0141106D01*
X0288902Y0139295D02*
X0288902Y0123547D01*
X0287248Y0117642D02*
X0292839Y0117642D01*
X0296933Y0121736D01*
X0336146Y0121736D01*
X0324335Y0133547D01*
X0324335Y0143232D01*
X0347957Y0139295D02*
X0347957Y0129453D01*
X0347957Y0139295D02*
X0351894Y0143232D01*
X0367642Y0135358D02*
X0367642Y0121736D01*
X0347957Y0068429D02*
X0347957Y0064492D01*
X0344020Y0060555D01*
X0340083Y0060555D01*
X0318272Y0038744D01*
X0318272Y0017248D01*
X0308587Y0017563D02*
X0308587Y0044807D01*
X0316461Y0052681D01*
X0320398Y0052681D01*
X0316461Y0060555D02*
X0316461Y0068429D01*
X0316461Y0060555D02*
X0296776Y0040870D01*
X0296776Y0018744D01*
X0298272Y0017248D01*
X0308272Y0017248D02*
X0308587Y0017563D01*
X0332209Y0005437D02*
X0263311Y0005437D01*
X0259374Y0009374D01*
X0259374Y0042839D01*
X0247563Y0054650D01*
X0247563Y0060555D01*
X0243626Y0064492D01*
X0239689Y0064492D01*
X0233783Y0085358D02*
X0284965Y0085358D01*
X0263469Y0093862D02*
X0287248Y0117642D01*
X0227878Y0125516D02*
X0208193Y0125516D01*
X0166854Y0113862D02*
X0162917Y0117799D01*
X0178665Y0178665D02*
X0178665Y0214098D01*
X0174728Y0206224D02*
X0162917Y0194413D01*
X0155043Y0194413D01*
X0202287Y0245594D02*
X0210161Y0245594D01*
X0221972Y0257406D01*
X0300713Y0257406D01*
X0300713Y0243311D01*
X0326303Y0221972D02*
X0344020Y0233783D01*
X0389295Y0206224D02*
X0396697Y0213626D01*
X0397287Y0213626D01*
X0389295Y0206224D02*
X0389295Y0188508D01*
X0332209Y0174728D02*
X0277091Y0174728D01*
X0263469Y0188350D01*
X0290870Y0054650D02*
X0302681Y0054650D01*
X0338272Y0017248D02*
X0336146Y0015122D01*
X0336146Y0009374D01*
X0332209Y0005437D01*
X0358272Y0017248D02*
X0358272Y0044335D01*
X0355831Y0046776D01*
X0379453Y0018429D02*
X0378272Y0017248D01*
D30*
X0371579Y0044807D03*
X0365673Y0052681D03*
X0355831Y0046776D03*
X0347957Y0068429D03*
X0347957Y0088114D03*
X0316461Y0099925D03*
X0300713Y0103862D03*
X0304650Y0116854D03*
X0288902Y0123547D03*
X0288902Y0139295D03*
X0324335Y0143232D03*
X0347957Y0129453D03*
X0351894Y0143232D03*
X0367642Y0135358D03*
X0405043Y0149138D03*
X0405043Y0158980D03*
X0389295Y0188508D03*
X0332209Y0174728D03*
X0326303Y0221972D03*
X0351894Y0253469D03*
X0218035Y0190476D03*
X0210161Y0174728D03*
X0206224Y0151106D03*
X0208193Y0125516D03*
X0227878Y0125516D03*
X0235752Y0123547D03*
X0221972Y0107799D03*
X0218035Y0085358D03*
X0233783Y0085358D03*
X0239689Y0064492D03*
X0220004Y0064492D03*
X0220004Y0052681D03*
X0206224Y0064492D03*
X0131421Y0085358D03*
X0107799Y0115673D03*
X0095988Y0129453D03*
X0080240Y0121579D03*
X0048744Y0115673D03*
X0032996Y0115870D03*
X0017248Y0129453D03*
X0027091Y0137327D03*
X0029059Y0155043D03*
X0021185Y0155043D03*
X0090083Y0158980D03*
X0101894Y0158980D03*
X0123547Y0141264D03*
X0129453Y0141264D03*
X0135358Y0141264D03*
X0158980Y0125516D03*
X0162917Y0143232D03*
X0143232Y0162917D03*
X0131421Y0170791D03*
X0139295Y0174728D03*
X0158980Y0174728D03*
X0166854Y0174728D03*
X0155043Y0194413D03*
X0174728Y0206224D03*
X0178665Y0214098D03*
X0202287Y0245594D03*
X0147169Y0245594D03*
X0147169Y0265280D03*
X0086146Y0247563D03*
X0086146Y0220004D03*
X0092051Y0214098D03*
X0113705Y0208193D03*
X0131421Y0198350D03*
X0115673Y0190476D03*
X0284965Y0085358D03*
X0316461Y0068429D03*
X0320398Y0052681D03*
X0302681Y0054650D03*
X0290870Y0054650D03*
X0381421Y0068429D03*
X0383390Y0080240D03*
D31*
X0063429Y0058587D02*
X0062524Y0058587D01*
X0049807Y0058587D01*
X0062524Y0058587D02*
X0062524Y0044807D01*
D32*
X0202287Y0093862D02*
X0202445Y0094020D01*
X0218035Y0094020D01*
X0231815Y0107799D01*
X0231815Y0119610D01*
X0235752Y0123547D01*
M02*
