G75*
%MOIN*%
%OFA0B0*%
%FSLAX25Y25*%
%IPPOS*%
%LPD*%
%AMOC8*
5,1,8,0,0,1.08239X$1,22.5*
%
%ADD10C,0.01000*%
%ADD11C,0.00600*%
%ADD12C,0.00900*%
%ADD13R,0.01181X0.00591*%
%ADD14R,0.02362X0.00591*%
%ADD15R,0.02953X0.00591*%
%ADD16R,0.01772X0.00591*%
%ADD17R,0.06496X0.00591*%
%ADD18R,0.07677X0.00591*%
%ADD19R,0.04134X0.00591*%
%ADD20R,0.09449X0.00591*%
%ADD21R,0.14764X0.00591*%
%ADD22R,0.03543X0.00591*%
%ADD23R,0.15945X0.00591*%
%ADD24R,0.08858X0.00591*%
%ADD25R,0.05906X0.00591*%
%ADD26R,0.00591X0.00591*%
%ADD27R,0.04724X0.00591*%
%ADD28R,0.10039X0.00591*%
%ADD29R,0.07087X0.00591*%
%ADD30R,0.14173X0.00591*%
%ADD31R,0.05315X0.00591*%
%ADD32R,0.08268X0.00591*%
%ADD33R,0.10630X0.00591*%
%ADD34R,0.15354X0.00591*%
%ADD35R,0.11220X0.00591*%
%ADD36R,0.11811X0.00591*%
%ADD37R,0.16535X0.00591*%
%ADD38R,0.13583X0.00591*%
%ADD39R,0.33071X0.00591*%
%ADD40R,0.32480X0.00591*%
%ADD41R,0.30709X0.00591*%
%ADD42R,0.24803X0.00591*%
%ADD43R,0.18307X0.00591*%
%ADD44R,0.18898X0.00591*%
%ADD45R,0.25394X0.00591*%
%ADD46R,0.12402X0.00591*%
%ADD47R,0.40748X0.00591*%
%ADD48R,0.22441X0.00591*%
%ADD49R,0.20669X0.00591*%
%ADD50R,0.20079X0.00591*%
%ADD51R,0.17126X0.00591*%
%ADD52R,0.12992X0.00591*%
%ADD53R,0.37205X0.00591*%
%ADD54R,0.53150X0.00591*%
%ADD55R,0.62008X0.00591*%
%ADD56R,0.28346X0.00591*%
%ADD57R,0.31890X0.00591*%
%ADD58R,0.23031X0.00591*%
%ADD59R,0.17717X0.00591*%
%ADD60R,0.21260X0.00591*%
%ADD61R,0.19488X0.00591*%
%ADD62R,0.23622X0.00591*%
%ADD63R,0.21850X0.00591*%
%ADD64R,0.24213X0.00591*%
%ADD65C,0.00500*%
%ADD66C,0.00400*%
%ADD67C,0.00300*%
%ADD68C,0.01181*%
%ADD69R,0.05709X0.02953*%
D10*
X0003000Y0042870D02*
X0256937Y0042870D01*
X0256937Y0003500D01*
X0402606Y0003500D01*
X0402606Y0042870D01*
X0436071Y0042870D01*
X0436071Y0279091D01*
X0003000Y0279091D01*
X0003000Y0042870D01*
D11*
X0150766Y0052257D02*
X0150766Y0053471D01*
X0151979Y0054684D01*
X0155620Y0054684D01*
X0155620Y0052257D01*
X0154406Y0051044D01*
X0151979Y0051044D01*
X0150766Y0052257D01*
X0153193Y0057111D02*
X0155620Y0054684D01*
X0153193Y0057111D02*
X0150766Y0058324D01*
X0160443Y0058324D02*
X0160443Y0051044D01*
X0162870Y0051044D02*
X0158016Y0051044D01*
X0165267Y0052257D02*
X0166480Y0051044D01*
X0168907Y0051044D01*
X0170120Y0052257D01*
X0165267Y0057111D01*
X0165267Y0052257D01*
X0170120Y0052257D02*
X0170120Y0057111D01*
X0168907Y0058324D01*
X0166480Y0058324D01*
X0165267Y0057111D01*
X0162870Y0055898D02*
X0160443Y0058324D01*
X0172517Y0057111D02*
X0173730Y0058324D01*
X0176157Y0058324D01*
X0177370Y0057111D01*
X0172517Y0057111D02*
X0172517Y0055898D01*
X0177370Y0051044D01*
X0172517Y0051044D01*
D12*
X0174745Y0061037D02*
X0169285Y0061037D01*
X0167465Y0062857D01*
X0167465Y0064677D01*
X0169285Y0066497D01*
X0174745Y0066497D01*
X0178341Y0066497D02*
X0178341Y0070137D01*
X0180161Y0071957D01*
X0185621Y0071957D01*
X0185621Y0061037D01*
X0185621Y0064677D02*
X0180161Y0064677D01*
X0178341Y0066497D01*
X0181981Y0064677D02*
X0178341Y0061037D01*
X0174745Y0061037D02*
X0174745Y0071957D01*
X0169285Y0071957D01*
X0167465Y0070137D01*
X0167465Y0068317D01*
X0169285Y0066497D01*
X0163870Y0068317D02*
X0162050Y0066497D01*
X0158410Y0066497D01*
X0156590Y0064677D01*
X0156590Y0062857D01*
X0158410Y0061037D01*
X0162050Y0061037D01*
X0163870Y0062857D01*
X0163870Y0068317D02*
X0163870Y0070137D01*
X0162050Y0071957D01*
X0158410Y0071957D01*
X0156590Y0070137D01*
X0152995Y0070137D02*
X0151175Y0071957D01*
X0147534Y0071957D01*
X0145714Y0070137D01*
X0152995Y0070137D02*
X0152995Y0062857D01*
X0151175Y0061037D01*
X0147534Y0061037D01*
X0145714Y0062857D01*
X0147511Y0157493D02*
X0143871Y0157493D01*
X0142051Y0159313D01*
X0138455Y0157493D02*
X0138455Y0164774D01*
X0134815Y0164774D02*
X0132995Y0164774D01*
X0134815Y0164774D02*
X0138455Y0161133D01*
X0142051Y0166594D02*
X0143871Y0168414D01*
X0147511Y0168414D01*
X0149331Y0166594D01*
X0149331Y0159313D01*
X0147511Y0157493D01*
X0163801Y0161133D02*
X0171082Y0161133D01*
X0171082Y0159313D02*
X0171082Y0162953D01*
X0169262Y0164774D01*
X0165621Y0164774D01*
X0163801Y0162953D01*
X0163801Y0161133D01*
X0165621Y0157493D02*
X0169262Y0157493D01*
X0171082Y0159313D01*
X0174677Y0157493D02*
X0180137Y0157493D01*
X0181957Y0159313D01*
X0181957Y0162953D01*
X0180137Y0164774D01*
X0174677Y0164774D01*
X0187387Y0164774D02*
X0187387Y0157493D01*
X0189207Y0157493D02*
X0185567Y0157493D01*
X0192803Y0164774D02*
X0196443Y0157493D01*
X0200083Y0164774D01*
X0203685Y0164774D02*
X0205505Y0164774D01*
X0209146Y0161133D01*
X0212741Y0161133D02*
X0212741Y0162953D01*
X0214561Y0164774D01*
X0218201Y0164774D01*
X0220021Y0162953D01*
X0220021Y0159313D01*
X0218201Y0157493D01*
X0214561Y0157493D01*
X0212741Y0161133D02*
X0220021Y0161133D01*
X0223616Y0161133D02*
X0225436Y0162953D01*
X0229076Y0162953D01*
X0230896Y0164774D01*
X0230896Y0166594D01*
X0229076Y0168414D01*
X0225436Y0168414D01*
X0223616Y0166594D01*
X0223616Y0161133D02*
X0223616Y0159313D01*
X0225436Y0157493D01*
X0229076Y0157493D01*
X0230896Y0159313D01*
X0209146Y0157493D02*
X0209146Y0164774D01*
X0209146Y0177178D02*
X0203685Y0177178D01*
X0201865Y0178998D01*
X0203685Y0180818D01*
X0207326Y0180818D01*
X0209146Y0182639D01*
X0207326Y0184459D01*
X0201865Y0184459D01*
X0198270Y0182639D02*
X0196450Y0184459D01*
X0190990Y0184459D01*
X0187395Y0184459D02*
X0185575Y0184459D01*
X0185575Y0177178D01*
X0187395Y0177178D02*
X0183755Y0177178D01*
X0180144Y0178998D02*
X0178324Y0180818D01*
X0172864Y0180818D01*
X0172864Y0182639D02*
X0172864Y0177178D01*
X0178324Y0177178D01*
X0180144Y0178998D01*
X0178324Y0184459D02*
X0174684Y0184459D01*
X0172864Y0182639D01*
X0169269Y0184459D02*
X0169269Y0177178D01*
X0161989Y0177178D02*
X0161989Y0182639D01*
X0163809Y0184459D01*
X0169269Y0184459D01*
X0185575Y0188099D02*
X0185575Y0189919D01*
X0192810Y0180818D02*
X0196450Y0180818D01*
X0198270Y0182639D01*
X0198270Y0177178D02*
X0192810Y0177178D01*
X0190990Y0178998D01*
X0192810Y0180818D01*
X0187387Y0170234D02*
X0187387Y0168414D01*
X0187387Y0164774D02*
X0189207Y0164774D01*
X0212741Y0177178D02*
X0212741Y0184459D01*
X0220021Y0184459D02*
X0220021Y0178998D01*
X0218201Y0177178D01*
X0212741Y0177178D01*
X0223616Y0177178D02*
X0227256Y0180818D01*
X0225436Y0180818D02*
X0230896Y0180818D01*
X0230896Y0177178D02*
X0230896Y0188099D01*
X0225436Y0188099D01*
X0223616Y0186279D01*
X0223616Y0182639D01*
X0225436Y0180818D01*
X0147518Y0182639D02*
X0142058Y0182639D01*
X0140238Y0180818D01*
X0140238Y0178998D01*
X0142058Y0177178D01*
X0147518Y0177178D01*
X0147518Y0188099D01*
X0142058Y0188099D01*
X0140238Y0186279D01*
X0140238Y0184459D01*
X0142058Y0182639D01*
X0136643Y0182639D02*
X0136643Y0178998D01*
X0134823Y0177178D01*
X0131183Y0177178D01*
X0129362Y0180818D02*
X0136643Y0180818D01*
X0136643Y0182639D02*
X0134823Y0184459D01*
X0131183Y0184459D01*
X0129362Y0182639D01*
X0129362Y0180818D01*
X0125767Y0178998D02*
X0123947Y0180818D01*
X0118487Y0180818D01*
X0118487Y0182639D02*
X0118487Y0177178D01*
X0123947Y0177178D01*
X0125767Y0178998D01*
X0120307Y0184459D02*
X0118487Y0182639D01*
X0120307Y0184459D02*
X0123947Y0184459D01*
X0114892Y0184459D02*
X0114892Y0177178D01*
X0114892Y0180818D02*
X0111252Y0184459D01*
X0109432Y0184459D01*
X0111237Y0164774D02*
X0111237Y0159313D01*
X0113057Y0157493D01*
X0114877Y0159313D01*
X0116697Y0157493D01*
X0118517Y0159313D01*
X0118517Y0164774D01*
X0122112Y0162953D02*
X0122112Y0161133D01*
X0129392Y0161133D01*
X0129392Y0159313D02*
X0129392Y0162953D01*
X0127572Y0164774D01*
X0123932Y0164774D01*
X0122112Y0162953D01*
X0123932Y0157493D02*
X0127572Y0157493D01*
X0129392Y0159313D01*
D13*
X0274358Y0154091D03*
X0274949Y0154681D03*
X0275539Y0157634D03*
X0276720Y0162358D03*
X0283807Y0152909D03*
X0290894Y0147004D03*
X0299752Y0147594D03*
X0300343Y0147004D03*
X0300343Y0146413D03*
X0300343Y0145823D03*
X0300933Y0145232D03*
X0300933Y0144642D03*
X0300933Y0143461D03*
X0300933Y0142870D03*
X0300933Y0142280D03*
X0303886Y0145232D03*
X0303886Y0145823D03*
X0303295Y0154681D03*
X0298571Y0154681D03*
X0297980Y0155862D03*
X0297390Y0157043D03*
X0297390Y0157634D03*
X0297390Y0158815D03*
X0297390Y0159406D03*
X0306248Y0164130D03*
X0309201Y0161768D03*
X0310382Y0160587D03*
X0308020Y0154681D03*
X0316878Y0154091D03*
X0317469Y0154681D03*
X0318059Y0148185D03*
X0317469Y0147594D03*
X0317469Y0147004D03*
X0316878Y0146413D03*
X0314516Y0146413D03*
X0314516Y0145823D03*
X0326327Y0157634D03*
X0325736Y0158224D03*
X0326327Y0158815D03*
X0315697Y0171217D03*
X0301524Y0169445D03*
X0299752Y0170626D03*
X0299161Y0171217D03*
X0297980Y0172988D03*
X0297390Y0172398D03*
X0299752Y0184799D03*
X0295618Y0194248D03*
X0295618Y0194839D03*
X0292665Y0195429D03*
X0292665Y0196020D03*
X0293256Y0197201D03*
X0293256Y0197791D03*
X0293256Y0198382D03*
X0296799Y0198972D03*
X0289122Y0198972D03*
X0289122Y0198382D03*
X0289713Y0201925D03*
X0289713Y0202516D03*
X0294437Y0206059D03*
X0294437Y0206650D03*
X0294437Y0207240D03*
X0294437Y0207831D03*
X0294437Y0208421D03*
X0294437Y0209012D03*
X0294437Y0209602D03*
X0294437Y0210193D03*
X0296799Y0211965D03*
X0297390Y0211374D03*
X0291484Y0211965D03*
X0290894Y0209012D03*
X0290894Y0208421D03*
X0290894Y0207831D03*
X0303295Y0201335D03*
X0308020Y0206059D03*
X0308020Y0207240D03*
X0308610Y0207831D03*
X0310382Y0209012D03*
X0309791Y0206059D03*
X0311563Y0204287D03*
X0314516Y0194839D03*
X0327508Y0206650D03*
X0332232Y0201335D03*
X0335776Y0206059D03*
X0339909Y0203106D03*
X0339909Y0202516D03*
X0308610Y0217870D03*
X0344634Y0172988D03*
X0342862Y0157043D03*
X0342272Y0149957D03*
X0349949Y0145823D03*
X0344043Y0141098D03*
X0330461Y0144642D03*
X0331051Y0134012D03*
X0334594Y0129878D03*
X0323374Y0132831D03*
X0315697Y0123382D03*
X0305657Y0126335D03*
X0303295Y0121610D03*
X0305657Y0132831D03*
X0310382Y0134012D03*
X0310382Y0134602D03*
X0356445Y0151728D03*
D14*
X0355264Y0153500D03*
X0355854Y0156453D03*
X0355264Y0157634D03*
X0355854Y0162358D03*
X0355264Y0163539D03*
X0356445Y0165902D03*
X0355854Y0166492D03*
X0355264Y0169445D03*
X0354673Y0170035D03*
X0355264Y0173579D03*
X0354673Y0174169D03*
X0353492Y0174760D03*
X0353492Y0175350D03*
X0353492Y0175941D03*
X0354083Y0177713D03*
X0353492Y0178894D03*
X0352311Y0179484D03*
X0351720Y0180075D03*
X0349949Y0181256D03*
X0349358Y0181846D03*
X0349949Y0184799D03*
X0350539Y0185980D03*
X0350539Y0186571D03*
X0351130Y0187161D03*
X0351720Y0187752D03*
X0352311Y0188343D03*
X0352311Y0188933D03*
X0345815Y0191886D03*
X0339319Y0199563D03*
X0339319Y0200154D03*
X0339319Y0200744D03*
X0339909Y0204287D03*
X0339909Y0204878D03*
X0339909Y0205469D03*
X0339319Y0207240D03*
X0339319Y0207831D03*
X0339319Y0209602D03*
X0339319Y0210193D03*
X0339319Y0210783D03*
X0332232Y0207831D03*
X0326327Y0213736D03*
X0320421Y0214327D03*
X0313925Y0214327D03*
X0310972Y0217280D03*
X0309791Y0208421D03*
X0310972Y0206650D03*
X0311563Y0207240D03*
X0308610Y0205469D03*
X0308610Y0204287D03*
X0308020Y0201335D03*
X0303295Y0202516D03*
X0293846Y0201925D03*
X0293846Y0201335D03*
X0290303Y0204878D03*
X0296799Y0212555D03*
X0292075Y0214327D03*
X0292665Y0216098D03*
X0293256Y0216689D03*
X0313925Y0200154D03*
X0318650Y0206650D03*
X0335185Y0201925D03*
X0335185Y0201335D03*
X0335185Y0200744D03*
X0335185Y0200154D03*
X0315697Y0191886D03*
X0319240Y0184799D03*
X0297390Y0191886D03*
X0288531Y0191886D03*
X0282626Y0192476D03*
X0279083Y0194248D03*
X0279083Y0194839D03*
X0278492Y0192476D03*
X0278492Y0191886D03*
X0278492Y0188343D03*
X0278492Y0187752D03*
X0279083Y0186571D03*
X0279673Y0185390D03*
X0280854Y0184209D03*
X0281445Y0183618D03*
X0281445Y0183028D03*
X0280854Y0181256D03*
X0280854Y0180075D03*
X0281445Y0179484D03*
X0280854Y0178303D03*
X0280264Y0176531D03*
X0279673Y0174760D03*
X0279673Y0173579D03*
X0277311Y0167673D03*
X0276130Y0164720D03*
X0276130Y0164130D03*
X0276720Y0161768D03*
X0276720Y0159996D03*
X0274949Y0156453D03*
X0274949Y0155272D03*
X0288531Y0148776D03*
X0299161Y0153500D03*
X0298571Y0161768D03*
X0296799Y0171807D03*
X0314516Y0155862D03*
X0313925Y0154681D03*
X0320421Y0154091D03*
X0312744Y0147594D03*
X0312154Y0147004D03*
X0311563Y0146413D03*
X0304476Y0143461D03*
X0303886Y0144051D03*
X0303886Y0144642D03*
X0302705Y0140508D03*
X0303295Y0139917D03*
X0310382Y0135193D03*
X0299752Y0128106D03*
X0303295Y0122201D03*
X0312154Y0123382D03*
X0328098Y0129287D03*
X0348177Y0138146D03*
X0346996Y0172988D03*
X0346996Y0173579D03*
X0345815Y0175350D03*
X0292075Y0133421D03*
X0292075Y0132831D03*
D15*
X0291780Y0134012D03*
X0296504Y0132831D03*
X0293551Y0129878D03*
X0298866Y0129287D03*
X0299457Y0128697D03*
X0300638Y0126925D03*
X0301819Y0125154D03*
X0303591Y0122791D03*
X0309496Y0126925D03*
X0315992Y0123972D03*
X0321898Y0129287D03*
X0314811Y0135783D03*
X0310087Y0135783D03*
X0305362Y0135193D03*
X0304772Y0142870D03*
X0307134Y0145232D03*
X0307134Y0145823D03*
X0307134Y0147594D03*
X0311268Y0145823D03*
X0314811Y0144642D03*
X0314811Y0144051D03*
X0314220Y0143461D03*
X0313630Y0142870D03*
X0315402Y0145232D03*
X0314220Y0154091D03*
X0314811Y0157043D03*
X0314811Y0157634D03*
X0314811Y0158224D03*
X0320717Y0154681D03*
X0326031Y0152909D03*
X0331937Y0145823D03*
X0330756Y0144051D03*
X0331346Y0133421D03*
X0349654Y0142280D03*
X0353787Y0143461D03*
X0356150Y0148776D03*
X0356150Y0149366D03*
X0356150Y0151138D03*
X0355559Y0155862D03*
X0355559Y0159406D03*
X0355559Y0159996D03*
X0355559Y0160587D03*
X0356150Y0161177D03*
X0355559Y0167083D03*
X0355559Y0167673D03*
X0355559Y0168264D03*
X0355559Y0168854D03*
X0354378Y0170626D03*
X0354378Y0171217D03*
X0354969Y0171807D03*
X0355559Y0172398D03*
X0355559Y0172988D03*
X0353787Y0176531D03*
X0353787Y0177122D03*
X0353787Y0178303D03*
X0350835Y0180665D03*
X0348472Y0182437D03*
X0348472Y0183028D03*
X0349063Y0183618D03*
X0349654Y0184209D03*
X0350244Y0185390D03*
X0352016Y0189524D03*
X0351425Y0190114D03*
X0351425Y0190705D03*
X0351425Y0191295D03*
X0350835Y0191886D03*
X0350835Y0192476D03*
X0350244Y0193067D03*
X0349654Y0194248D03*
X0349063Y0194839D03*
X0348472Y0196020D03*
X0344929Y0188933D03*
X0344929Y0188343D03*
X0344929Y0187752D03*
X0344929Y0187161D03*
X0344339Y0186571D03*
X0344339Y0185980D03*
X0346701Y0174169D03*
X0347291Y0170626D03*
X0315992Y0192476D03*
X0319535Y0197791D03*
X0319535Y0198382D03*
X0314220Y0200744D03*
X0318945Y0206059D03*
X0322488Y0206059D03*
X0323079Y0206650D03*
X0317173Y0215508D03*
X0313630Y0216689D03*
X0308315Y0211374D03*
X0293551Y0217280D03*
X0297094Y0198382D03*
X0297685Y0197201D03*
X0283512Y0187752D03*
X0278787Y0193067D03*
X0279378Y0195429D03*
X0279969Y0196020D03*
X0279969Y0172988D03*
X0291189Y0162358D03*
X0291780Y0162949D03*
X0298866Y0162358D03*
X0299457Y0162949D03*
X0300638Y0152909D03*
X0288236Y0149366D03*
X0287646Y0149957D03*
X0287055Y0152319D03*
X0287055Y0152909D03*
X0277016Y0146413D03*
X0276425Y0147004D03*
X0275835Y0148776D03*
X0275244Y0149957D03*
X0274654Y0151138D03*
X0274063Y0152319D03*
X0274063Y0152909D03*
X0275244Y0155862D03*
X0276425Y0160587D03*
X0276425Y0161177D03*
X0280559Y0141689D03*
X0339024Y0211374D03*
X0338433Y0211965D03*
D16*
X0339614Y0209012D03*
X0339614Y0208421D03*
X0339614Y0206650D03*
X0339614Y0206059D03*
X0340205Y0203697D03*
X0339614Y0201925D03*
X0339614Y0201335D03*
X0340205Y0196020D03*
X0344339Y0185390D03*
X0320126Y0191886D03*
X0320126Y0192476D03*
X0320126Y0195429D03*
X0327213Y0208421D03*
X0322488Y0213146D03*
X0311268Y0207831D03*
X0300638Y0217870D03*
X0292370Y0215508D03*
X0292370Y0214917D03*
X0291780Y0213736D03*
X0291780Y0213146D03*
X0291780Y0212555D03*
X0291189Y0211374D03*
X0291189Y0210783D03*
X0291189Y0210193D03*
X0291189Y0209602D03*
X0290598Y0207240D03*
X0290598Y0206650D03*
X0290598Y0206059D03*
X0290598Y0205469D03*
X0290008Y0204287D03*
X0290008Y0203697D03*
X0290008Y0203106D03*
X0289417Y0201335D03*
X0289417Y0200744D03*
X0289417Y0200154D03*
X0289417Y0199563D03*
X0288827Y0197201D03*
X0292961Y0196610D03*
X0293551Y0198972D03*
X0293551Y0199563D03*
X0293551Y0200154D03*
X0293551Y0200744D03*
X0294142Y0202516D03*
X0294142Y0203106D03*
X0294142Y0203697D03*
X0294732Y0204287D03*
X0294732Y0204878D03*
X0294732Y0205469D03*
X0295913Y0195429D03*
X0289417Y0191295D03*
X0289417Y0187161D03*
X0288827Y0186571D03*
X0287055Y0185390D03*
X0283512Y0187161D03*
X0279969Y0184799D03*
X0279378Y0185980D03*
X0278787Y0187161D03*
X0278197Y0188933D03*
X0278197Y0189524D03*
X0278197Y0190114D03*
X0278197Y0190705D03*
X0278197Y0191295D03*
X0278787Y0193657D03*
X0291780Y0187161D03*
X0281150Y0182437D03*
X0281150Y0181846D03*
X0280559Y0180665D03*
X0281150Y0178894D03*
X0280559Y0177713D03*
X0280559Y0177122D03*
X0279969Y0175941D03*
X0279969Y0175350D03*
X0279378Y0174169D03*
X0279969Y0172398D03*
X0279969Y0171807D03*
X0279378Y0171217D03*
X0278787Y0170626D03*
X0278197Y0170035D03*
X0278197Y0169445D03*
X0277606Y0168854D03*
X0277606Y0168264D03*
X0277016Y0167083D03*
X0277016Y0166492D03*
X0276425Y0165902D03*
X0276425Y0165311D03*
X0277016Y0159406D03*
X0276425Y0158815D03*
X0275835Y0158224D03*
X0275244Y0157043D03*
X0274654Y0153500D03*
X0289417Y0148185D03*
X0290008Y0147594D03*
X0298866Y0154091D03*
X0298276Y0155272D03*
X0297685Y0156453D03*
X0297685Y0158224D03*
X0297685Y0159996D03*
X0297685Y0160587D03*
X0297685Y0161177D03*
X0307134Y0162949D03*
X0309496Y0161177D03*
X0314220Y0155272D03*
X0320126Y0153500D03*
X0326622Y0157043D03*
X0329575Y0166492D03*
X0321898Y0172988D03*
X0354969Y0162949D03*
X0355559Y0157043D03*
X0355559Y0152909D03*
X0350244Y0145232D03*
X0353787Y0142870D03*
X0334299Y0130469D03*
X0331346Y0145232D03*
X0314811Y0135193D03*
X0309496Y0127516D03*
X0314220Y0126925D03*
X0312449Y0122791D03*
X0306543Y0122791D03*
X0305362Y0133421D03*
X0305362Y0134012D03*
X0305362Y0134602D03*
X0304772Y0136374D03*
X0301819Y0141098D03*
X0301228Y0141689D03*
D17*
X0311268Y0149957D03*
X0319535Y0155862D03*
X0334299Y0148776D03*
X0336661Y0144051D03*
X0347291Y0152909D03*
X0304772Y0123382D03*
X0285283Y0156453D03*
X0285283Y0157043D03*
X0285283Y0164130D03*
X0285283Y0164720D03*
X0284102Y0190114D03*
X0285874Y0195429D03*
X0297094Y0190705D03*
X0297094Y0190114D03*
X0303591Y0193067D03*
X0318354Y0196020D03*
X0327213Y0200154D03*
X0327213Y0200744D03*
X0328394Y0203106D03*
X0317173Y0208421D03*
X0336071Y0213736D03*
D18*
X0332528Y0214917D03*
X0316583Y0213146D03*
X0316583Y0209012D03*
X0300638Y0209602D03*
X0301228Y0203697D03*
X0300047Y0200744D03*
X0286465Y0194839D03*
X0285283Y0162358D03*
X0285283Y0157634D03*
X0288236Y0136374D03*
X0295913Y0130469D03*
X0304772Y0124563D03*
X0304772Y0123972D03*
X0334299Y0149366D03*
X0347882Y0149957D03*
X0347882Y0150547D03*
X0347882Y0151728D03*
X0347882Y0152319D03*
X0346701Y0140508D03*
X0333118Y0188933D03*
X0341976Y0198972D03*
D19*
X0346110Y0197791D03*
X0334890Y0203106D03*
X0332528Y0208421D03*
X0337843Y0212555D03*
X0319535Y0198972D03*
X0310087Y0192476D03*
X0303000Y0198382D03*
X0307724Y0200744D03*
X0309496Y0204878D03*
X0307724Y0211965D03*
X0297685Y0213736D03*
X0297094Y0213146D03*
X0295323Y0219051D03*
X0297094Y0191295D03*
X0293551Y0183618D03*
X0282921Y0191886D03*
X0292370Y0164130D03*
X0300638Y0163539D03*
X0301819Y0152319D03*
X0302409Y0151728D03*
X0307134Y0147004D03*
X0308906Y0144051D03*
X0308315Y0139917D03*
X0318945Y0142870D03*
X0319535Y0144051D03*
X0325441Y0150547D03*
X0325441Y0151138D03*
X0332528Y0146413D03*
X0341976Y0147594D03*
X0354378Y0145823D03*
X0354378Y0145232D03*
X0354969Y0146413D03*
X0355559Y0147004D03*
X0355559Y0147594D03*
X0356740Y0149957D03*
X0356740Y0150547D03*
X0355559Y0154681D03*
X0349063Y0158815D03*
X0347882Y0169445D03*
X0346701Y0172398D03*
X0347291Y0174760D03*
X0345520Y0175941D03*
X0321898Y0172398D03*
X0285874Y0153500D03*
X0277606Y0145823D03*
X0279378Y0143461D03*
X0281740Y0139917D03*
X0291189Y0134602D03*
X0309496Y0126335D03*
X0311858Y0123972D03*
D20*
X0313925Y0124563D03*
X0325736Y0129878D03*
X0332823Y0132240D03*
X0345224Y0148776D03*
X0345815Y0149366D03*
X0335185Y0151138D03*
X0339319Y0161177D03*
X0339319Y0161768D03*
X0328689Y0164130D03*
X0318059Y0156453D03*
X0309201Y0171217D03*
X0309201Y0171807D03*
X0324555Y0182437D03*
X0307429Y0191886D03*
X0317469Y0201335D03*
X0317469Y0201925D03*
X0318650Y0204287D03*
X0305657Y0213146D03*
X0303295Y0216689D03*
X0325146Y0217280D03*
X0326917Y0216689D03*
X0342862Y0198382D03*
X0340500Y0194839D03*
X0289713Y0174760D03*
X0289713Y0174169D03*
X0286169Y0167673D03*
X0286169Y0158815D03*
D21*
X0290008Y0170035D03*
X0309496Y0174760D03*
X0308906Y0183618D03*
X0323669Y0180075D03*
X0332528Y0187752D03*
X0334890Y0185390D03*
X0331937Y0173579D03*
X0342567Y0164130D03*
X0336071Y0158815D03*
X0336071Y0158224D03*
X0336071Y0157634D03*
X0310677Y0138736D03*
X0311858Y0125154D03*
X0329575Y0131650D03*
D22*
X0324555Y0132240D03*
X0321012Y0128697D03*
X0317469Y0140508D03*
X0317469Y0141098D03*
X0318059Y0141689D03*
X0318650Y0142280D03*
X0319240Y0143461D03*
X0310972Y0145232D03*
X0306839Y0146413D03*
X0303886Y0150547D03*
X0307429Y0162358D03*
X0306248Y0169445D03*
X0306248Y0170035D03*
X0297980Y0167673D03*
X0297390Y0167083D03*
X0292075Y0163539D03*
X0276720Y0163539D03*
X0276720Y0162949D03*
X0274358Y0151728D03*
X0274949Y0150547D03*
X0275539Y0149366D03*
X0276130Y0148185D03*
X0276130Y0147594D03*
X0279673Y0142870D03*
X0280264Y0142280D03*
X0280854Y0141098D03*
X0281445Y0140508D03*
X0287350Y0150547D03*
X0286760Y0151728D03*
X0305657Y0135783D03*
X0298571Y0129878D03*
X0300343Y0127516D03*
X0300933Y0126335D03*
X0301524Y0125744D03*
X0331642Y0142280D03*
X0341091Y0146413D03*
X0341681Y0147004D03*
X0349949Y0143461D03*
X0349949Y0142870D03*
X0349358Y0141689D03*
X0348768Y0141098D03*
X0355854Y0148185D03*
X0355264Y0154091D03*
X0355854Y0155272D03*
X0355264Y0158224D03*
X0355264Y0158815D03*
X0355854Y0161768D03*
X0355264Y0164130D03*
X0356445Y0165311D03*
X0347587Y0170035D03*
X0346996Y0171217D03*
X0345224Y0189524D03*
X0345815Y0191295D03*
X0349949Y0193657D03*
X0348768Y0195429D03*
X0347587Y0196610D03*
X0346996Y0197201D03*
X0334594Y0199563D03*
X0335185Y0202516D03*
X0323965Y0208421D03*
X0322783Y0207240D03*
X0318650Y0207240D03*
X0314516Y0198972D03*
X0314516Y0198382D03*
X0314516Y0197791D03*
X0305657Y0196610D03*
X0298571Y0196610D03*
X0297390Y0197791D03*
X0283807Y0188343D03*
X0289122Y0185980D03*
X0280854Y0196610D03*
X0293846Y0217870D03*
X0294437Y0218461D03*
X0303886Y0217870D03*
X0315697Y0216098D03*
X0319831Y0214917D03*
X0326327Y0213146D03*
X0325146Y0190114D03*
X0325736Y0152319D03*
X0325736Y0151728D03*
D23*
X0333118Y0153500D03*
X0333118Y0154091D03*
X0333118Y0155272D03*
X0336661Y0159996D03*
X0343157Y0163539D03*
X0342567Y0164720D03*
X0342567Y0165902D03*
X0332528Y0172988D03*
X0305362Y0195429D03*
X0294142Y0180665D03*
X0303591Y0214917D03*
X0312449Y0125744D03*
D24*
X0317173Y0126335D03*
X0333709Y0132831D03*
X0344929Y0138736D03*
X0345520Y0139327D03*
X0334890Y0150547D03*
X0339614Y0162358D03*
X0339614Y0162949D03*
X0311858Y0150547D03*
X0285874Y0158224D03*
X0293551Y0183028D03*
X0299457Y0188933D03*
X0287055Y0193657D03*
X0286465Y0194248D03*
X0285283Y0197791D03*
X0301819Y0205469D03*
X0301819Y0206059D03*
X0301819Y0206650D03*
X0301819Y0207240D03*
X0317173Y0199563D03*
X0318945Y0204878D03*
X0327803Y0199563D03*
X0327803Y0195429D03*
X0327213Y0194839D03*
X0317173Y0190114D03*
X0316583Y0190705D03*
X0319535Y0218461D03*
D25*
X0327508Y0202516D03*
X0327508Y0201925D03*
X0327508Y0201335D03*
X0336366Y0191886D03*
X0340500Y0195429D03*
X0308020Y0188933D03*
X0289713Y0192476D03*
X0289122Y0193067D03*
X0283807Y0190705D03*
X0285579Y0155862D03*
X0309201Y0144642D03*
X0314516Y0153500D03*
X0334004Y0148185D03*
X0334004Y0147594D03*
X0342272Y0138146D03*
X0339319Y0135783D03*
X0338728Y0135193D03*
X0319240Y0126925D03*
X0289122Y0135783D03*
X0283217Y0139327D03*
X0348177Y0162358D03*
X0348177Y0162949D03*
D26*
X0351425Y0164720D03*
X0344339Y0154091D03*
X0344339Y0153500D03*
X0349654Y0146413D03*
X0356150Y0152319D03*
X0334299Y0142280D03*
X0330165Y0141689D03*
X0327213Y0132240D03*
X0314220Y0127516D03*
X0309496Y0128106D03*
X0305362Y0139917D03*
X0308315Y0143461D03*
X0310087Y0143461D03*
X0314811Y0140508D03*
X0316583Y0145823D03*
X0315402Y0147594D03*
X0318354Y0148776D03*
X0308906Y0149366D03*
X0309496Y0152909D03*
X0307724Y0155272D03*
X0307134Y0155862D03*
X0307134Y0156453D03*
X0306543Y0157043D03*
X0306543Y0157634D03*
X0302409Y0155272D03*
X0301819Y0155862D03*
X0301819Y0156453D03*
X0301228Y0157043D03*
X0301228Y0157634D03*
X0303000Y0152909D03*
X0300638Y0144051D03*
X0292961Y0145823D03*
X0291780Y0146413D03*
X0284102Y0150547D03*
X0282921Y0152319D03*
X0301819Y0170035D03*
X0302409Y0170626D03*
X0302409Y0171217D03*
X0301819Y0171807D03*
X0300047Y0175941D03*
X0296504Y0183618D03*
X0290598Y0183618D03*
X0290008Y0187752D03*
X0288827Y0190705D03*
X0293551Y0194839D03*
X0286465Y0196020D03*
X0283512Y0186571D03*
X0283512Y0185980D03*
X0285283Y0183618D03*
X0285283Y0183028D03*
X0284693Y0182437D03*
X0285874Y0184209D03*
X0286465Y0184799D03*
X0306543Y0188343D03*
X0308315Y0188343D03*
X0306543Y0190705D03*
X0311268Y0188343D03*
X0318945Y0184209D03*
X0321307Y0183028D03*
X0324850Y0183618D03*
X0326031Y0185980D03*
X0324260Y0189524D03*
X0330756Y0189524D03*
X0314220Y0196020D03*
X0311268Y0197791D03*
X0308906Y0201925D03*
X0310677Y0205469D03*
X0307724Y0206650D03*
X0308906Y0210783D03*
X0313039Y0214917D03*
X0297685Y0216689D03*
X0294142Y0210783D03*
X0303591Y0201925D03*
X0333118Y0206059D03*
X0336071Y0206650D03*
X0323079Y0175941D03*
X0320717Y0175941D03*
X0317173Y0171807D03*
X0317764Y0171217D03*
X0318945Y0170626D03*
X0315992Y0171807D03*
X0327803Y0166492D03*
X0324260Y0163539D03*
X0308906Y0163539D03*
X0307724Y0161768D03*
D27*
X0295618Y0166492D03*
X0294437Y0165902D03*
X0293846Y0165311D03*
X0293256Y0164720D03*
X0285579Y0154681D03*
X0285579Y0154091D03*
X0286760Y0151138D03*
X0279083Y0144051D03*
X0278492Y0144642D03*
X0277902Y0145232D03*
X0302705Y0151138D03*
X0316287Y0139917D03*
X0320421Y0144642D03*
X0321012Y0145232D03*
X0321602Y0145823D03*
X0322193Y0146413D03*
X0322783Y0147004D03*
X0323374Y0147594D03*
X0323374Y0148185D03*
X0323965Y0148776D03*
X0324555Y0149366D03*
X0325146Y0149957D03*
X0333413Y0147004D03*
X0339319Y0145232D03*
X0340500Y0145823D03*
X0348768Y0156453D03*
X0348768Y0157043D03*
X0348768Y0157634D03*
X0348768Y0158224D03*
X0348768Y0159406D03*
X0348768Y0159996D03*
X0348768Y0160587D03*
X0355854Y0164720D03*
X0348177Y0168854D03*
X0346996Y0171807D03*
X0345224Y0176531D03*
X0344634Y0177122D03*
X0344634Y0190114D03*
X0344634Y0190705D03*
X0335185Y0190114D03*
X0334594Y0189524D03*
X0325736Y0190705D03*
X0325146Y0183028D03*
X0318059Y0189524D03*
X0312744Y0187752D03*
X0303886Y0192476D03*
X0299161Y0201335D03*
X0299161Y0201925D03*
X0299161Y0202516D03*
X0301524Y0211965D03*
X0315106Y0213736D03*
X0328689Y0206059D03*
X0336957Y0213146D03*
X0319240Y0200154D03*
X0284988Y0198382D03*
X0283807Y0188933D03*
X0336366Y0133421D03*
X0320421Y0128106D03*
X0319831Y0127516D03*
D28*
X0326031Y0130469D03*
X0311858Y0136374D03*
X0311858Y0136965D03*
X0313039Y0151138D03*
X0315402Y0152909D03*
X0318354Y0159996D03*
X0334890Y0151728D03*
X0289417Y0173579D03*
X0290008Y0175350D03*
X0287055Y0168264D03*
X0286465Y0159406D03*
X0302409Y0185980D03*
X0316583Y0197201D03*
X0317764Y0202516D03*
X0317764Y0203106D03*
X0317764Y0203697D03*
X0328394Y0196020D03*
X0332528Y0188343D03*
X0305953Y0213736D03*
X0328394Y0216098D03*
D29*
X0334594Y0214327D03*
X0320421Y0205469D03*
X0326327Y0193067D03*
X0326327Y0192476D03*
X0300933Y0203106D03*
X0300343Y0210193D03*
X0300343Y0210783D03*
X0302114Y0217280D03*
X0297390Y0219642D03*
X0297980Y0189524D03*
X0314516Y0169445D03*
X0329870Y0162949D03*
X0329870Y0162358D03*
X0330461Y0161768D03*
X0347587Y0151138D03*
X0344043Y0148185D03*
X0352311Y0144642D03*
X0352311Y0144051D03*
X0334004Y0142870D03*
X0295618Y0131059D03*
X0295028Y0131650D03*
X0295028Y0132240D03*
X0283807Y0138736D03*
X0284988Y0162949D03*
X0284988Y0163539D03*
X0285579Y0165311D03*
D30*
X0290894Y0171217D03*
X0293846Y0181256D03*
X0303295Y0196020D03*
X0323965Y0180665D03*
X0334594Y0185980D03*
X0328689Y0131059D03*
D31*
X0337252Y0134012D03*
X0337843Y0134602D03*
X0340205Y0136374D03*
X0340795Y0136965D03*
X0341386Y0137555D03*
X0338433Y0144642D03*
X0347882Y0153500D03*
X0347882Y0154091D03*
X0348472Y0154681D03*
X0348472Y0155272D03*
X0349063Y0155862D03*
X0348472Y0161177D03*
X0348472Y0161768D03*
X0348472Y0168264D03*
X0330756Y0161177D03*
X0320717Y0158224D03*
X0320717Y0157634D03*
X0320717Y0157043D03*
X0319535Y0155272D03*
X0314220Y0170035D03*
X0301819Y0164130D03*
X0297685Y0168264D03*
X0285283Y0155272D03*
X0290008Y0135193D03*
X0284102Y0189524D03*
X0283512Y0191295D03*
X0282331Y0197201D03*
X0301228Y0211374D03*
X0308906Y0198382D03*
X0319535Y0200744D03*
X0326031Y0191886D03*
X0326031Y0191295D03*
X0335480Y0190705D03*
X0336071Y0191295D03*
D32*
X0326917Y0194248D03*
X0326327Y0193657D03*
X0317469Y0196610D03*
X0301524Y0204287D03*
X0301524Y0204878D03*
X0301524Y0207831D03*
X0301524Y0208421D03*
X0300933Y0209012D03*
X0301524Y0222004D03*
X0318650Y0219051D03*
X0331642Y0215508D03*
X0285579Y0167083D03*
X0284988Y0166492D03*
X0284988Y0165902D03*
X0309201Y0141689D03*
X0286760Y0136965D03*
X0285579Y0137555D03*
X0284988Y0138146D03*
X0329280Y0163539D03*
X0334594Y0149957D03*
X0334594Y0143461D03*
X0346406Y0139917D03*
D33*
X0318650Y0158815D03*
X0318650Y0159406D03*
X0318059Y0161177D03*
X0316878Y0162358D03*
X0316287Y0162949D03*
X0309201Y0172398D03*
X0308610Y0179484D03*
X0308610Y0180075D03*
X0308610Y0180665D03*
X0289713Y0175941D03*
X0286760Y0161768D03*
X0286760Y0160587D03*
X0286760Y0159996D03*
X0309201Y0142280D03*
X0312154Y0138146D03*
X0312154Y0137555D03*
X0340500Y0194248D03*
X0328689Y0196610D03*
X0331051Y0204878D03*
X0331051Y0205469D03*
X0319831Y0207831D03*
X0322783Y0217870D03*
X0304476Y0212555D03*
X0305657Y0198972D03*
D34*
X0305657Y0194839D03*
X0298571Y0187752D03*
X0309201Y0184209D03*
X0316287Y0185980D03*
X0332232Y0175350D03*
X0336957Y0184799D03*
X0342272Y0166492D03*
X0310382Y0139327D03*
X0290303Y0169445D03*
X0329280Y0209012D03*
X0303886Y0215508D03*
X0303295Y0214327D03*
D35*
X0304181Y0200154D03*
X0308906Y0181256D03*
X0293551Y0182437D03*
X0290008Y0176531D03*
X0288827Y0172988D03*
X0289417Y0172398D03*
X0289417Y0171807D03*
X0287055Y0161177D03*
X0313630Y0151728D03*
X0318354Y0160587D03*
X0317764Y0161768D03*
X0334890Y0152319D03*
X0337843Y0182437D03*
X0337252Y0183028D03*
X0331346Y0204287D03*
D36*
X0331051Y0203697D03*
X0329280Y0197201D03*
X0340500Y0193657D03*
X0338728Y0181846D03*
X0324555Y0181846D03*
X0315697Y0163539D03*
X0313925Y0152319D03*
X0334594Y0152909D03*
X0301524Y0186571D03*
X0299752Y0188343D03*
X0304476Y0199563D03*
D37*
X0309201Y0184799D03*
X0336366Y0160587D03*
X0336366Y0159406D03*
X0333413Y0156453D03*
X0333413Y0155862D03*
X0333413Y0154681D03*
X0342862Y0165311D03*
D38*
X0334890Y0157043D03*
X0315402Y0164130D03*
X0309496Y0174169D03*
X0308906Y0183028D03*
X0324260Y0181256D03*
X0337252Y0184209D03*
X0339024Y0180075D03*
X0329575Y0197791D03*
X0329575Y0198382D03*
X0290008Y0170626D03*
D39*
X0316287Y0164720D03*
D40*
X0315992Y0165311D03*
D41*
X0316287Y0165902D03*
X0331051Y0179484D03*
X0325146Y0187161D03*
D42*
X0315106Y0167673D03*
X0314516Y0167083D03*
X0313925Y0166492D03*
D43*
X0310087Y0175941D03*
X0331346Y0170626D03*
X0342567Y0167083D03*
D44*
X0342272Y0167673D03*
X0291484Y0168854D03*
X0322193Y0211965D03*
X0305657Y0221413D03*
D45*
X0315992Y0168264D03*
D46*
X0310677Y0170626D03*
X0309496Y0172988D03*
X0309496Y0173579D03*
X0308906Y0181846D03*
X0300638Y0187161D03*
X0337252Y0183618D03*
X0339024Y0181256D03*
X0339024Y0180665D03*
X0339024Y0168264D03*
X0340205Y0193067D03*
D47*
X0324260Y0168854D03*
D48*
X0332232Y0169445D03*
D49*
X0332528Y0170035D03*
X0331346Y0171807D03*
X0323079Y0211374D03*
X0305362Y0220823D03*
D50*
X0330461Y0171217D03*
D51*
X0333118Y0172398D03*
X0310087Y0175350D03*
X0294142Y0179484D03*
X0294142Y0180075D03*
X0321307Y0212555D03*
X0313039Y0219642D03*
D52*
X0303295Y0216098D03*
X0329870Y0198972D03*
X0340500Y0192476D03*
X0330461Y0175941D03*
X0331051Y0174760D03*
X0331051Y0174169D03*
X0308610Y0182437D03*
X0293846Y0181846D03*
X0313925Y0193067D03*
D53*
X0317764Y0176531D03*
D54*
X0310972Y0177122D03*
D55*
X0315992Y0177713D03*
X0315992Y0178303D03*
D56*
X0299161Y0178894D03*
D57*
X0325146Y0186571D03*
X0330461Y0178894D03*
D58*
X0310087Y0185390D03*
D59*
X0312154Y0191295D03*
D60*
X0310382Y0193657D03*
D61*
X0308906Y0194248D03*
D62*
X0324555Y0209602D03*
X0324555Y0210193D03*
D63*
X0323669Y0210783D03*
D64*
X0306543Y0220232D03*
D65*
X0426478Y0209853D02*
X0426478Y0208050D01*
X0427380Y0207148D01*
X0429183Y0207148D01*
X0430085Y0208050D01*
X0430085Y0209853D01*
X0429183Y0210755D01*
X0428282Y0210755D01*
X0428282Y0207148D01*
X0426478Y0205327D02*
X0426478Y0203523D01*
X0426478Y0204425D02*
X0431888Y0204425D01*
X0431888Y0203523D01*
X0430085Y0201692D02*
X0426478Y0201692D01*
X0426478Y0198987D01*
X0427380Y0198085D01*
X0430085Y0198085D01*
X0430085Y0196254D02*
X0430085Y0193549D01*
X0429183Y0192648D01*
X0427380Y0192648D01*
X0426478Y0193549D01*
X0426478Y0196254D01*
X0431888Y0196254D01*
X0429183Y0190817D02*
X0427380Y0190817D01*
X0426478Y0189915D01*
X0426478Y0188112D01*
X0427380Y0187210D01*
X0429183Y0187210D01*
X0430085Y0188112D01*
X0430085Y0189915D01*
X0429183Y0190817D01*
X0431888Y0185379D02*
X0426478Y0185379D01*
X0426478Y0181772D02*
X0431888Y0181772D01*
X0430085Y0183576D01*
X0431888Y0185379D01*
X0430085Y0174508D02*
X0430085Y0173607D01*
X0428282Y0171803D01*
X0430085Y0171803D02*
X0426478Y0171803D01*
X0428282Y0169972D02*
X0428282Y0166365D01*
X0429183Y0166365D02*
X0427380Y0166365D01*
X0426478Y0167267D01*
X0426478Y0169071D01*
X0428282Y0169972D02*
X0429183Y0169972D01*
X0430085Y0169071D01*
X0430085Y0167267D01*
X0429183Y0166365D01*
X0430085Y0164544D02*
X0430085Y0162740D01*
X0430987Y0163642D02*
X0427380Y0163642D01*
X0426478Y0164544D01*
X0430085Y0160914D02*
X0430085Y0160012D01*
X0428282Y0158209D01*
X0430085Y0158209D02*
X0426478Y0158209D01*
X0428282Y0156378D02*
X0428282Y0152771D01*
X0429183Y0152771D02*
X0427380Y0152771D01*
X0426478Y0153673D01*
X0426478Y0155476D01*
X0428282Y0156378D02*
X0429183Y0156378D01*
X0430085Y0155476D01*
X0430085Y0153673D01*
X0429183Y0152771D01*
X0430085Y0150940D02*
X0426478Y0149137D01*
X0430085Y0147334D01*
X0429183Y0145503D02*
X0426478Y0145503D01*
X0429183Y0145503D02*
X0430085Y0144601D01*
X0430085Y0141896D01*
X0426478Y0141896D01*
X0427380Y0140065D02*
X0429183Y0140065D01*
X0430085Y0139163D01*
X0430085Y0137360D01*
X0429183Y0136458D01*
X0427380Y0136458D01*
X0426478Y0137360D01*
X0426478Y0139163D01*
X0427380Y0140065D01*
X0427380Y0134627D02*
X0426478Y0133725D01*
X0426478Y0131922D01*
X0427380Y0131020D01*
X0430987Y0131020D01*
X0431888Y0131922D01*
X0431888Y0133725D01*
X0430987Y0134627D01*
X0429183Y0123752D02*
X0427380Y0123752D01*
X0426478Y0122850D01*
X0426478Y0121047D01*
X0427380Y0120145D01*
X0429183Y0120145D01*
X0430085Y0121047D01*
X0430085Y0122850D01*
X0429183Y0123752D01*
X0429183Y0118314D02*
X0428282Y0118314D01*
X0428282Y0114707D01*
X0429183Y0114707D02*
X0427380Y0114707D01*
X0426478Y0115609D01*
X0426478Y0117412D01*
X0429183Y0118314D02*
X0430085Y0117412D01*
X0430085Y0115609D01*
X0429183Y0114707D01*
X0430085Y0112876D02*
X0430085Y0110171D01*
X0429183Y0109270D01*
X0427380Y0109270D01*
X0426478Y0110171D01*
X0426478Y0112876D01*
X0431888Y0112876D01*
X0431888Y0106546D02*
X0432790Y0106546D01*
X0430085Y0106546D02*
X0426478Y0106546D01*
X0426478Y0105644D02*
X0426478Y0107448D01*
X0430085Y0106546D02*
X0430085Y0105644D01*
X0428282Y0103813D02*
X0431888Y0103813D01*
X0428282Y0103813D02*
X0426478Y0102010D01*
X0428282Y0100207D01*
X0431888Y0100207D01*
X0077803Y0223972D02*
X0077803Y0248579D01*
X0076622Y0248579D01*
X0076622Y0256453D01*
X0077803Y0256453D01*
X0077803Y0274169D01*
X0077803Y0256453D02*
X0077803Y0248579D01*
X0023866Y0248579D02*
X0022882Y0248579D01*
X0023866Y0248579D02*
X0023866Y0256453D01*
X0022685Y0256453D01*
X0022685Y0223776D01*
X0022685Y0256453D02*
X0022685Y0274169D01*
X0011124Y0192864D02*
X0011124Y0189257D01*
X0011124Y0191060D02*
X0016534Y0191060D01*
X0014731Y0189257D01*
X0012026Y0187440D02*
X0011124Y0187440D01*
X0011124Y0186538D01*
X0012026Y0186538D01*
X0012026Y0187440D01*
X0011124Y0184707D02*
X0011124Y0181101D01*
X0011124Y0182904D02*
X0016534Y0182904D01*
X0014731Y0181101D01*
X0013829Y0173832D02*
X0011124Y0173832D01*
X0013829Y0173832D02*
X0014731Y0172930D01*
X0014731Y0170225D01*
X0011124Y0170225D01*
X0012026Y0168394D02*
X0013829Y0168394D01*
X0014731Y0167492D01*
X0014731Y0165689D01*
X0013829Y0164787D01*
X0012026Y0164787D01*
X0011124Y0165689D01*
X0011124Y0167492D01*
X0012026Y0168394D01*
X0011124Y0162966D02*
X0011124Y0161162D01*
X0011124Y0162064D02*
X0014731Y0162064D01*
X0014731Y0161162D01*
X0014731Y0159331D02*
X0014731Y0156626D01*
X0013829Y0155725D01*
X0012927Y0156626D01*
X0012927Y0158430D01*
X0012026Y0159331D01*
X0011124Y0158430D01*
X0011124Y0155725D01*
X0014731Y0153898D02*
X0014731Y0152996D01*
X0012927Y0151193D01*
X0011124Y0151193D02*
X0014731Y0151193D01*
X0013829Y0149362D02*
X0012927Y0149362D01*
X0012927Y0145755D01*
X0012026Y0145755D02*
X0013829Y0145755D01*
X0014731Y0146657D01*
X0014731Y0148460D01*
X0013829Y0149362D01*
X0011124Y0148460D02*
X0011124Y0146657D01*
X0012026Y0145755D01*
X0012927Y0143924D02*
X0016534Y0143924D01*
X0016534Y0140318D02*
X0012927Y0140318D01*
X0011124Y0142121D01*
X0012927Y0143924D01*
X0016534Y0162064D02*
X0017436Y0162064D01*
D66*
X0017409Y0123110D02*
X0017409Y0120110D01*
X0012213Y0120209D02*
X0012213Y0123110D01*
X0098827Y0123110D02*
X0098827Y0120209D01*
X0104024Y0120110D02*
X0104024Y0123110D01*
X0418554Y0123722D02*
X0419341Y0122935D01*
X0420128Y0123722D01*
X0420128Y0126083D01*
X0420915Y0126083D02*
X0418554Y0126083D01*
X0418554Y0123722D01*
X0421702Y0123722D02*
X0421702Y0125296D01*
X0420915Y0126083D01*
X0421702Y0127647D02*
X0418554Y0127647D01*
X0418554Y0129221D02*
X0420915Y0129221D01*
X0421702Y0130008D01*
X0420915Y0130795D01*
X0418554Y0130795D01*
X0419341Y0132360D02*
X0420128Y0133147D01*
X0420128Y0135508D01*
X0420915Y0135508D02*
X0418554Y0135508D01*
X0418554Y0133147D01*
X0419341Y0132360D01*
X0421702Y0133147D02*
X0421702Y0134721D01*
X0420915Y0135508D01*
X0420915Y0137073D02*
X0421702Y0137860D01*
X0421702Y0139434D01*
X0420915Y0140221D01*
X0418554Y0140221D01*
X0419341Y0141785D02*
X0420128Y0142572D01*
X0420128Y0144934D01*
X0420915Y0144934D02*
X0418554Y0144934D01*
X0418554Y0142572D01*
X0419341Y0141785D01*
X0421702Y0142572D02*
X0421702Y0144146D01*
X0420915Y0144934D01*
X0418554Y0151211D02*
X0423276Y0151211D01*
X0421702Y0152785D01*
X0423276Y0154359D01*
X0418554Y0154359D01*
X0419341Y0155923D02*
X0418554Y0156710D01*
X0418554Y0158285D01*
X0419341Y0159072D01*
X0420128Y0159072D01*
X0420915Y0158285D01*
X0420915Y0156710D01*
X0421702Y0155923D01*
X0422489Y0155923D01*
X0423276Y0156710D01*
X0423276Y0158285D01*
X0422489Y0159072D01*
X0423276Y0160636D02*
X0418554Y0163784D01*
X0418554Y0160636D02*
X0423276Y0163784D01*
X0420915Y0170062D02*
X0419341Y0170062D01*
X0418554Y0170849D01*
X0418554Y0173210D01*
X0419341Y0174774D02*
X0418554Y0175561D01*
X0418554Y0177135D01*
X0419341Y0177922D01*
X0420915Y0177922D01*
X0421702Y0177135D01*
X0421702Y0175561D01*
X0420915Y0174774D01*
X0419341Y0174774D01*
X0421702Y0173210D02*
X0421702Y0170849D01*
X0420915Y0170062D01*
X0421702Y0179487D02*
X0418554Y0179487D01*
X0418554Y0181061D02*
X0420915Y0181061D01*
X0421702Y0181848D01*
X0420915Y0182635D01*
X0418554Y0182635D01*
X0418554Y0184200D02*
X0418554Y0186561D01*
X0419341Y0187348D01*
X0420915Y0187348D01*
X0421702Y0186561D01*
X0421702Y0184200D01*
X0416980Y0184200D01*
X0420915Y0181061D02*
X0421702Y0180274D01*
X0421702Y0179487D01*
X0421702Y0188912D02*
X0419341Y0188912D01*
X0418554Y0189699D01*
X0418554Y0192060D01*
X0421702Y0192060D01*
X0421702Y0193625D02*
X0421702Y0195199D01*
X0422489Y0194412D02*
X0419341Y0194412D01*
X0418554Y0195199D01*
X0419341Y0196767D02*
X0420915Y0196767D01*
X0421702Y0197554D01*
X0421702Y0199128D01*
X0420915Y0199915D01*
X0420128Y0199915D01*
X0420128Y0196767D01*
X0419341Y0196767D02*
X0418554Y0197554D01*
X0418554Y0199128D01*
X0418554Y0201479D02*
X0421702Y0201479D01*
X0420128Y0201479D02*
X0421702Y0203053D01*
X0421702Y0203840D01*
X0420915Y0205407D02*
X0421702Y0206194D01*
X0421702Y0208555D01*
X0420128Y0207768D02*
X0420128Y0206194D01*
X0420915Y0205407D01*
X0418554Y0205407D02*
X0418554Y0207768D01*
X0419341Y0208555D01*
X0420128Y0207768D01*
X0418554Y0137073D02*
X0423276Y0137073D01*
X0420915Y0129221D02*
X0421702Y0128434D01*
X0421702Y0127647D01*
X0422489Y0121370D02*
X0423276Y0121370D01*
X0422489Y0121370D02*
X0420915Y0119796D01*
X0418554Y0119796D01*
X0420915Y0119796D02*
X0422489Y0118222D01*
X0423276Y0118222D01*
X0421702Y0111943D02*
X0421702Y0111156D01*
X0420128Y0109582D01*
X0418554Y0109582D02*
X0421702Y0109582D01*
X0420915Y0108017D02*
X0419341Y0108017D01*
X0418554Y0107230D01*
X0418554Y0105656D01*
X0419341Y0104869D01*
X0420915Y0104869D01*
X0421702Y0105656D01*
X0421702Y0107230D01*
X0420915Y0108017D01*
X0423276Y0103305D02*
X0423276Y0100157D01*
X0418554Y0100157D01*
X0420915Y0100157D02*
X0420915Y0101731D01*
D67*
X0109152Y0116461D02*
X0108546Y0115855D01*
X0106119Y0115855D01*
X0105512Y0116461D01*
X0105512Y0117675D01*
X0106119Y0118281D01*
X0106119Y0119480D02*
X0105512Y0120087D01*
X0105512Y0121300D01*
X0106119Y0121907D01*
X0106726Y0121907D01*
X0107332Y0121300D01*
X0107332Y0120693D01*
X0107332Y0121300D02*
X0107939Y0121907D01*
X0108546Y0121907D01*
X0109152Y0121300D01*
X0109152Y0120087D01*
X0108546Y0119480D01*
X0108546Y0118281D02*
X0109152Y0117675D01*
X0109152Y0116461D01*
X0108546Y0123105D02*
X0109152Y0123712D01*
X0109152Y0124925D01*
X0108546Y0125532D01*
X0107939Y0125532D01*
X0107332Y0124925D01*
X0106726Y0125532D01*
X0106119Y0125532D01*
X0105512Y0124925D01*
X0105512Y0123712D01*
X0106119Y0123105D01*
X0107332Y0124318D02*
X0107332Y0124925D01*
X0097341Y0126009D02*
X0097341Y0128436D01*
X0095521Y0127222D02*
X0095521Y0126009D01*
X0095521Y0124811D02*
X0094308Y0124811D01*
X0093701Y0124204D01*
X0093701Y0122384D01*
X0092488Y0122384D02*
X0096128Y0122384D01*
X0096128Y0124204D01*
X0095521Y0124811D01*
X0093701Y0126009D02*
X0097341Y0126009D01*
X0097341Y0121186D02*
X0096735Y0121186D01*
X0094308Y0118759D01*
X0093701Y0118759D01*
X0093701Y0116954D02*
X0097341Y0116954D01*
X0095521Y0115134D01*
X0095521Y0117560D01*
X0097341Y0118759D02*
X0097341Y0121186D01*
X0071748Y0120398D02*
X0071141Y0119792D01*
X0069928Y0119792D01*
X0069321Y0120398D01*
X0069321Y0122825D01*
X0069928Y0123432D01*
X0071141Y0123432D01*
X0071748Y0122825D01*
X0071748Y0120398D01*
X0068123Y0119792D02*
X0068123Y0123432D01*
X0066302Y0123432D01*
X0065696Y0122825D01*
X0065696Y0121612D01*
X0066302Y0121005D01*
X0068123Y0121005D01*
X0064497Y0123432D02*
X0062071Y0123432D01*
X0060872Y0123432D02*
X0059659Y0123432D01*
X0060266Y0123432D02*
X0060266Y0119792D01*
X0060872Y0119792D02*
X0059659Y0119792D01*
X0058455Y0120398D02*
X0057849Y0119792D01*
X0056635Y0119792D01*
X0056029Y0120398D01*
X0056029Y0122825D01*
X0056635Y0123432D01*
X0057849Y0123432D01*
X0058455Y0122825D01*
X0058455Y0120398D01*
X0054830Y0119792D02*
X0054830Y0123432D01*
X0052404Y0119792D01*
X0052404Y0123432D01*
X0051205Y0122218D02*
X0049992Y0123432D01*
X0048778Y0122218D01*
X0048778Y0119792D01*
X0047580Y0119792D02*
X0047580Y0123432D01*
X0048778Y0121612D02*
X0051205Y0121612D01*
X0051205Y0122218D02*
X0051205Y0119792D01*
X0047580Y0119792D02*
X0045153Y0119792D01*
X0063284Y0119792D02*
X0063284Y0123432D01*
X0022538Y0123268D02*
X0021931Y0123875D01*
X0021325Y0123875D01*
X0020718Y0123268D01*
X0020111Y0123875D01*
X0019505Y0123875D01*
X0018898Y0123268D01*
X0018898Y0122055D01*
X0019505Y0121448D01*
X0019505Y0120250D02*
X0018898Y0119643D01*
X0018898Y0118430D01*
X0019505Y0117823D01*
X0021931Y0117823D01*
X0022538Y0118430D01*
X0022538Y0119643D01*
X0021931Y0120250D01*
X0021931Y0121448D02*
X0022538Y0122055D01*
X0022538Y0123268D01*
X0020718Y0123268D02*
X0020718Y0122662D01*
X0021931Y0125073D02*
X0022538Y0125680D01*
X0022538Y0126894D01*
X0021931Y0127500D01*
X0021325Y0127500D01*
X0018898Y0125073D01*
X0018898Y0127500D01*
X0010727Y0128436D02*
X0010727Y0126009D01*
X0007087Y0126009D01*
X0007694Y0124811D02*
X0007087Y0124204D01*
X0007087Y0122384D01*
X0005874Y0122384D02*
X0009514Y0122384D01*
X0009514Y0124204D01*
X0008907Y0124811D01*
X0007694Y0124811D01*
X0008907Y0126009D02*
X0008907Y0127222D01*
X0010120Y0121186D02*
X0007694Y0118759D01*
X0007087Y0118759D01*
X0007087Y0116954D02*
X0010727Y0116954D01*
X0008907Y0115134D01*
X0008907Y0117560D01*
X0010727Y0118759D02*
X0010727Y0121186D01*
X0010120Y0121186D01*
D68*
X0024654Y0121610D02*
X0026622Y0119642D01*
X0026622Y0121610D01*
X0026622Y0123579D01*
X0024654Y0121610D01*
X0026622Y0121610D01*
X0042370Y0121610D01*
X0073866Y0121610D02*
X0091583Y0121610D01*
X0089614Y0119642D01*
X0089614Y0123579D01*
X0091583Y0121610D01*
D69*
X0101430Y0118787D03*
X0101430Y0124487D03*
X0014816Y0124487D03*
X0014816Y0118787D03*
M02*
